<svg xmlns="http://www.w3.org/2000/svg" fill="none" stroke-linecap="square" stroke-miterlimit="10" viewBox="0 0 958.297 278.753"><style>.B{fill-rule:evenodd}.C{fill:#000}.D{stroke:#1a1a1a}.E{stroke-width:1.039}.F{stroke-linejoin:round}.G{fill:#e9edee}.H{fill:#fff2cc}</style><clipPath id="A"><path d="M0 0h958.297v278.753H0z"/></clipPath><g clip-path="url(#A)"><g class="B"><path fill-opacity="0" d="M0 0h958.297v278.753H0z" class="C"/><path d="M168.558 8.283h646.52v264.724h-646.52z" class="H"/></g><path d="M168.558 8.283h646.52v264.724h-646.52z" class="D E F"/><path d="M459.021 22.527v2.219h-12.766v-2.219zm1.844 10.094v2.219H444.24v-2.219zm20.172-.203-.344 1.828q-.422 2.234-2.375 2.234h-3.5q-1.703 0-1.703-2v-6.39h-1.922v1.406q0 6.031-6.562 7.719l-.969-2.344q5.219-1.297 5.219-5.297V28.09h-4.891v-2h16.547v2h-5.125v5.859q0 .297.234.297h2q.641 0 .734-.484l.359-2.031zm-2.359-9.078h-12.766v-2h12.766zm6.688 6.016h-2.297v-2h4.375v6.188q1.25 1.594 4.375 1.594h9.047l-.422 2.016h-8.547q-4.016 0-5.312-1.859-1.109 1.125-2.516 1.969l-1.297-2.203q2.047-.766 2.594-1.359v-4.344zm.281-4.156q-.906-1.687-2.281-3.156l1.719-1.312q1.703 1.531 2.438 2.984l-1.875 1.484zm3.359-.156h4.078v-.516h-3.047v-1.781h3.047v-.594h-3.422v2.297h-2.078v-4.078h12.625v4.078h-2.078v-2.297h-3.187v.594h2.813v1.781h-2.812v.516h4.156v6.391h-4.156v.438h5.344v1.781h-5.344v1.422h-1.859v-1.422h-5.203v-1.781h5.203v-.437h-4.078v-6.391zm8.016 4.609v-.516h-2.078v.516zm-5.937-2.297h2v-.531h-2zm2 2.297v-.516h-2v.516zm1.859-2.297h2.078v-.531h-2.078zm7.719 6.969v-1.781h5.563v-.516h-2.453v-7.641h4.984l-.641-.406q1.703-1.609 2.516-4.375l1.781.703q1.422.563-.125.984l-.016.047h5.531v1.781h-3.187l.609 1-2.125.531-.687-1.531h-.969q-.375.688-.828 1.266h4.438v7.641h-2v.516h5.125v1.781h-5.125v3.203h-2.078v-3.203h-2.859q-.203 2.563-5.516 3.547l-.625-2.016q3.781-.453 4.016-1.531zm4.922-13.938q1.438.531-.109.984l.016-.031h4.141v1.781h-2.094l.547 1.031-2.219.422-.453-1.453h-.719q-.906 1.594-2.422 2.859l-1.531-1.547q2.25-1.937 3.141-4.766l1.703.719zm7.609 5.781h-7.563v.359h7.563zm0 2.219v-.375h-7.563v.375zm0 1.859v-.375h-7.563v.375zm-2.219 2.297v-.516h-2.672v.516zm11.359-9.344v-2.016h11.031l.422-.312 1.875 1.875-.766.406q-2.672 2.375-4.625 3.484v1.234h7.422v2.219h-7.422v5.5q0 1.484-1.484 1.484h-2.391l-.516-2.234h2.094v-4.75h-7.656V27.87h7.656v-3.39l1.641.25q1.438-.875 2.094-1.531z" class="C"/><path fill="#fff" d="M89.306 49.745h384.157v211.78H89.306z" class="B"/><path d="M89.306 49.745h384.157v211.78H89.306z" class="D E F"/><path d="M233.448 75.786v-1.781h5.563v-.516h-2.453v-7.641h4.984l-.641-.406q1.703-1.609 2.516-4.375l1.781.703q1.422.563-.125.984l-.016.047h5.531v1.781h-3.187l.609 1-2.125.531-.687-1.531h-.969q-.375.688-.828 1.266h4.438v7.641h-2v.516h5.125v1.781h-5.125v3.203h-2.078v-3.203h-2.859q-.203 2.563-5.516 3.547l-.625-2.016q3.781-.453 4.016-1.531zm4.922-13.937q1.438.531-.109.984l.016-.031h4.141v1.781h-2.094l.547 1.031-2.219.422-.453-1.453h-.719q-.906 1.594-2.422 2.859l-1.531-1.547q2.25-1.937 3.141-4.766zm7.609 5.781h-7.562v.359h7.563zm0 2.219v-.375h-7.562v.375zm0 1.859v-.375h-7.562v.375zm-2.219 2.297v-.516h-2.672v.516zm20.031-8.156q-.687-1.187-1.344-2.219l1.438-1.141q.813.719 1.563 2.016zm-10.5-.172q2.625-1.75 3.938-4.281l1.578 1.109q.703.891-.25.891-1.219 1.984-4.109 4.141zm7.172 4.328q.063 2.484-1.078 6.031l-1.969-.75q1.031-3.25 1.125-6.453l1.703.297q1.031.328.219.875m4.297-1.156q.672 2.516.906 5.719l-2 .219q-.094-3.328-.859-5.703zm.375-6.344h4.75v2h-4.75zm-2.375 5.047v10.766h-2.078V67.551h-2.297v-2h2.297v-3.719h1.719q1.359.172.359.906v2.812h2.516v2h-2.516zm2.078-.453h5.719v2.016h-1.859v8.156q0 1.563-1.562 1.563h-1.797l-.422-2h1.781q0 .078-.078.063v-7.781h-1.781zm-7.5 11.813h-2.078v-7.547q-.078.094-1.203 1.125l-1.031-2.047q2.438-1.891 3.953-5.391l1.5.859q.938.891-.125.891-.375.891-1.016 1.938zm17.594-8.094h-2.297v-2h4.375v6.188q1.25 1.594 4.375 1.594h9.047l-.422 2.016h-8.547q-4.016 0-5.312-1.859-1.109 1.125-2.516 1.969l-1.297-2.203q2.047-.766 2.594-1.359V70.82zm.281-4.156q-.906-1.687-2.281-3.156l1.719-1.312q1.703 1.531 2.438 2.984zm3.359-.156h4.078v-.516h-3.047v-1.781h3.047v-.594h-3.422v2.297h-2.078v-4.078h12.625v4.078h-2.078v-2.297h-3.187v.594h2.813v1.781h-2.812v.516h4.156v6.391h-4.156v.438h5.344v1.781h-5.344v1.422h-1.859v-1.422h-5.203v-1.781h5.203v-.437h-4.078v-6.391zm8.016 4.609v-.516h-2.078v.516zm-5.937-2.297h2v-.531h-2zm2 2.297v-.516h-2v.516zm1.859-2.297h2.078v-.531h-2.078zm7.719 6.969v-1.781h5.563v-.516h-2.453v-7.641h4.984l-.641-.406q1.703-1.609 2.516-4.375l1.781.703q1.422.563-.125.984l-.016.047h5.531v1.781h-3.187l.609 1-2.125.531-.687-1.531h-.969q-.375.688-.828 1.266h4.438v7.641h-2v.516h5.125v1.781h-5.125v3.203h-2.078v-3.203h-2.859q-.203 2.563-5.516 3.547l-.625-2.016q3.781-.453 4.016-1.531h-5.328zm4.922-13.937q1.438.531-.109.984l.016-.031h4.141v1.781h-2.094l.547 1.031-2.219.422-.453-1.453h-.719q-.906 1.594-2.422 2.859l-1.531-1.547q2.25-1.937 3.141-4.766l1.703.719zm7.609 5.781h-7.562v.359h7.563zm0 2.219v-.375h-7.562v.375zm0 1.859v-.375h-7.562v.375zm-2.219 2.297v-.516h-2.672v.516zm11.359-9.344v-2.016h11.031l.422-.312 1.875 1.875-.766.406q-2.672 2.375-4.625 3.484v1.234h7.422v2.219h-7.422v5.5q0 1.484-1.484 1.484h-2.391l-.516-2.234h2.094v-4.75h-7.656v-2.219h7.656v-3.391l1.641.25q1.438-.875 2.094-1.531H313.9z" class="C"/><use class="B H" href="#C"/><use class="D E F" href="#C"/><path d="M121.187 110.147q1.641-.219 4.156-1.031l.656.922q.266.328-.281.219-2.781.609-4.531.828v.813q0 .438.375.438h3.781q.438 0 .484-.375l.172-.828 1.094.281-.281 1.094q-.219.875-1.25.875h-4.547q-.922 0-.922-.984v-4.047h1.031q.438.047.063.328v1.469zm-5.531 10.625-.156-1.047h.875q.219 0 .219-.219v-3.344l-1.156.391q-.219.547-.375 0l-.437-1.094 1.969-.5v-3.172h-1.703v-1.031h1.703v-2.516h1.031q.438.047.063.328v2.188h1.641v1.031h-1.641v2.844l1.641-.594.266 1.031-1.906.766v4.063q0 .875-.875.875h-1.156zm9.406-4.062v-1.531h-3.609v1.531zm1.094 3.891h-1.094v-.547h-3.609v.656h-1.094v-6.406h5.797zm-1.094-3.016h-3.609v1.594h3.609zm5.531 1.484-.766-.391q.656-.922.984-1.422h-2.031v-.875h2.406l.5-.875h-2.187v-2.234h2.234v-.719h-2.125v-1.359h-1.203v-.656h1.203v-1.375h2.125v-.922h.875q.438.047.063.328v.594h2.125v1.375h1.156v.656h-1.156v1.359h-2.125v.719h2.234v2.234h-2.734l.281.172q.484.266-.109.328l-.219.375h3.547v.875h-1.312q-.219.766-.812 1.531.656.219 1.359.609l-.484.875q-.609-.437-1.484-.766-1.531 1.094-3.656 1.375l-.219-.828q1.75-.219 3-.984-.266-.172-1.141-.437zm.703-1.047q.656.172 1.422.438.5-.594.766-1.203h-1.75l-.437.766zm2.734-6.828h-1.359v.703h1.359zm-2.297 2.734h-1.469v.922h1.469zm2.406 0h-1.469v.922h1.469zm-2.406-3.391v-.719h-1.359v.719zm6.406-1.812q.484.063-.062.328-.219 1.094-.547 2.25h3.391v1.031h-.875q-.047 2.625-1.141 4.813.922 1.156 2.406 2.031l-.828 1.094q-1.422-1.156-2.125-2.078-1.312 1.75-2.687 2.516l-.547-.812q1.484-.891 2.625-2.531-1.031-1.75-1.203-3.328-.266.594-.703 1.25l-.719-.812q1.484-2.406 2.078-5.969l.938.219zm-4.109 1.813v-.719h-1.359v.719zm-2.297 1.359v-.703h-1.359v.703zm6.516 4.438q.813-1.812.875-4h-1.969q.219 2.578 1.094 4" class="C"/><use class="B H" href="#D"/><use class="D E F" href="#D"/><path d="M420.319 118.205q-1.375.969-4.016 1.484l-.453-1.359q2.438-.312 3.484-1.047-.391-.469-.641-.969-.5.719-1.844 1.578l-.781-1.047q1.938-1.25 2.391-2.516l-1.359.063q-.078.547-.562.063l-.406-1.359 2.047-.047.656-.547q-.859-.609-1.937-1.109l.734-1.125.484.25q.688-.859 1.375-2.187l.969.578q.859.469-.031.656-.578.781-1.281 1.609.281.172.594.375.719-.687 1.703-2.078l1 .625q.469.453-.141.547-.859 1.172-2.266 2.375l1.859-.125q-.125-.141-.641-.656l.922-.781q1.234.906 2.031 2.391l-1.094.844-.422-.734-2.812.25-.203.438h1.938l.188-.297.938.547q.813.359-.141.609-.625 1.172-1.266 1.781.969.609 2.984.906l-.5 1.453q-2.078-.469-3.5-1.437zm0-1.672q.375-.375.641-.766h-1.203q.156.359.563.766zm-4.359 3.125h-1.312v-4.562q-.109.109-.859.734l-.594-1.297q1.641-1.281 2.688-3.344l1.047.688q.453.453-.156.547-.281.5-.812 1.203v6.031zm.75-9.687q-.797 1.156-2.641 2.406l-.703-1.266q1.531-1.016 2.656-2.453l1.047.813q.109.563-.359.5m13.266 2.188h-1.031v.609q0 4.016-2.469 6.688l-1.078-.953q2.234-2.531 2.234-5.781v-.562h-1.734v-1.266h1.734v-2.109h1.094q.859.109.219.563v1.547h2.344v4.641q0 1.906-.297 2.656-.375.906-1.531.906h-.922l-.125-1.406h.953q.328 0 .438-.297.172-.437.172-1.719v-3.516zm1.734-1.781h4.5v8.391h-1.312v-.562h-1.875v.75h-1.312v-8.578zm1.313 1.266v5.297h1.875v-5.297zm13.672 2.969q.297-.812.672-2.641l1.188.594q.5.5-.187.641-.359 1.688-1.266 3.328.641 1.422.688 1.359.188-.219.188-1.469l1.281.75q-.266 2.219-1.047 2.391-.937.219-2-1.797-.734 1.016-2.844 1.891l-.844-1.109q2.516-1.016 3.188-2.156-.5-2.859-.547-4.844h-3.094v3.75q0 2.359-1.359 4.438l-1.156-.828q1.344-1.891 1.344-4.312v-4.312h4.266v-1.781h1.094q.859.109.219.563v1.219h2.344v1.266h-2.344q.094 2.281.219 3.063zm.797-3.953q-.484-.609-1.234-1.172l.906-.687q.797.391 1.25.984zm-8.203 8.344q.422.859-.5.438l-1.047-.766q1.203-1.906 1.891-3.937l1.109.719q-.422 1.734-1.453 3.547zm3.016-5.344h2.906v3.469h-1.734v.797h-1.172zm1.172 2.344h.563v-1.219h-.562v1.219zm-1.266-2.719v-1.266h3.047v1.266zm-2.469 1.188q-.984-1.047-1.781-1.609l.875-1.187q.969.625 1.781 1.547l-.875 1.25zm-.328-5.562q.953.672 1.734 1.609l-1 1.125q-.875-1.031-1.672-1.656z" class="C"/><use class="B G" href="#E"/><use class="D E F" href="#E"/><use class="C" href="#F"/><path d="M407.429 221.684c0-13.403 10.336-24.268 23.087-24.268 6.123 0 11.995 2.557 16.325 7.108s6.762 10.724 6.762 17.16c0 13.403-10.336 24.268-23.087 24.268s-23.087-10.865-23.087-24.268" class="B G"/><path d="M407.429 221.684h0c0-13.403 10.336-24.268 23.087-24.268h0c6.123 0 11.995 2.557 16.325 7.108s6.762 10.724 6.762 17.16h0c0 13.403-10.336 24.268-23.087 24.268h0c-12.75 0-23.087-10.865-23.087-24.268z" class="D E F"/><path d="M427.899 224.631v-1.719h5.234v1.719z" class="C"/><use class="B H" href="#G"/><use class="D E F" href="#G"/><path d="M302.393 114.459q-.484.781-1.391 1.516l-.969-.969q1.563-1.297 1.922-3.328l1.094.359q.953.313.078.609-.109.281-.203.547h1.375v-1.875h1.094q.859.109.219.563v1.313h3.234v1.266h-3.234v1.406h4.406v1.266h-3.328v3.188q0 .188.141.188h1.547q.219 0 .234-.156l.109-1.094 1.359.25-.109.969q-.156 1.297-1.172 1.297h-2.437q-.984 0-.984-.984v-3.656h-.984q0 4.484-4.437 5.031l-.562-1.391q3.594-.391 3.594-3.641h-3.375v-1.266h4.688v-1.406h-1.906zm18.75-2.406q.953 1.188-.75.625-1.359.094-2.594.172v.578h4.688v1.266H317.8v2.609q1.563 1.875 5.094 3.203l-.687 1.266q-2.828-.969-4.406-2.656v3.125h-1.312v-2.984q-1.094 1.5-4.062 2.75l-.766-1.219q2.422-1 3.563-2.062h-.609v-.5l-1.719.469q-.172.891-.656-.078l-.359-1.062 2.734-.531v-.406h-2.109v-1.125h2.109v-.75h1.094q.859.109.219.563v2.734q.328-.281.563-.672v-2.672h-4.594v-1.266h4.594v-.516q-1.406.047-3.187.047l-.391-1.266q3.109.047 7.75-.391l.484.75zm-.109 5.266q.172 0 .234-.281l.203-.703 1.188.344-.219.969q-.172.797-.937.797H319.3q-.937 0-.937-1.078v-2.625h1.094q.859.109.219.563v.234l1.75-.344.547.547q.734.813-.328.641l-1.969.297v.406q0 .234.141.234h1.219zm9.953-4.625q-.906 1.703-3.312 3.25l-.469-.75-.094.266q.906 1.141.906 2.703 0 2.109-1.266 2.109h-.969l-.125-1.266h.766q.328 0 .328-.937 0-1.016-1-2.547l1.016-2.75h-1v9.422h-1.312v-10.687h2.969l.172-.172.781.797q.5.484-.094.578l-.656 1.563q1.656-.797 2.766-3.203l1.375.172q.484.484-.109.578l.047-.094q1.172 1.688 3.563 2.641l-.703 1.375q-2.516-1.187-3.578-3.047zm2.25 5.406q.781 1.156 2.094 2.25l-1.016 1.016q-1.187-.922-2.187-2.609l1.109-.656zm-2.547-2.047h-1.781v-1.266h4.641v1.266h-1.547v.75h2.625v1.266h-2.625v3q0 .984-.984.984h-.953l-.266-1.266h.938q0 .047-.047.047v-2.766h-2.859v-1.266h2.859v-.75zm-.656 2.563q.688.484-.062.656-.578 1.109-1.859 2.297l-.984-.984q1.344-1.078 1.922-2.5z" class="C"/><use class="B G" href="#H"/><use class="D E F" href="#H"/><path d="m284.554 157.644.438-1.344q1.5.531 2.172.922-.172-1.719-.187-2.359h1.375q-.031.938-.219 2.344.984-.484 2.234-.906l.438 1.344q-1.203.406-2.359.531.578.5 1.625 1.797l-1.125.797q-.547-.75-1.297-2.031-.703 1.328-1.234 2.031l-1.109-.797q1.094-1.359 1.563-1.797-1.219-.234-2.312-.531z" class="C"/><path d="M264.615 220.003c0-13.399 10.342-24.26 23.1-24.26 6.126 0 12.002 2.556 16.334 7.106s6.766 10.72 6.766 17.155c0 13.399-10.342 24.26-23.1 24.26s-23.1-10.862-23.1-24.26z" class="B G"/><path d="M264.615 220.003h0c0-13.399 10.342-24.26 23.1-24.26h0c6.126 0 12.002 2.556 16.334 7.106s6.766 10.72 6.766 17.155h0c0 13.399-10.342 24.26-23.1 24.26h0c-12.758 0-23.1-10.862-23.1-24.26z" class="D E F"/><path d="m285.023 227.34 4.016-14.344h1.375l-4.016 14.344z" class="C"/><path d="M322.748 220.003c0-13.399 10.342-24.26 23.1-24.26 6.126 0 12.002 2.556 16.334 7.106s6.766 10.72 6.766 17.155c0 13.399-10.342 24.26-23.1 24.26s-23.1-10.862-23.1-24.26z" class="B G"/><path d="M322.748 220.003h0c0-13.399 10.342-24.26 23.1-24.26h0c6.126 0 12.002 2.556 16.334 7.106s6.766 10.72 6.766 17.155h0c0 13.399-10.342 24.26-23.1 24.26h0c-12.758 0-23.1-10.862-23.1-24.26z" class="D E F"/><path d="m340.465 227.34 4.016-14.344h1.375l-4.016 14.344zm5.383 0 4.016-14.344h1.375l-4.016 14.344z" class="C"/><path d="M322.748 161.869c0-13.399 10.342-24.26 23.1-24.26 6.126 0 12.002 2.556 16.334 7.106s6.766 10.72 6.766 17.155c0 13.399-10.342 24.26-23.1 24.26s-23.1-10.862-23.1-24.26z" class="B G"/><path d="M322.748 161.869h0c0-13.399 10.342-24.26 23.1-24.26h0c6.126 0 12.002 2.556 16.334 7.106s6.766 10.72 6.766 17.155h0c0 13.399-10.342 24.26-23.1 24.26h0c-12.758 0-23.1-10.862-23.1-24.26z" class="D E F"/><path d="M339.639 158.441q0-1.5.75-2.531.75-1.047 2.172-1.047 1.297 0 2.156.938t.859 2.734q0 1.766-.875 2.719-.859.938-2.125.938t-2.109-.922q-.828-.937-.828-2.828zm2.969-2.406q-.641 0-1.062.563-.422.547-.422 2 0 1.344.422 1.891.438.531 1.063.531.641 0 1.063-.547t.422-2q0-1.344-.437-1.891-.422-.547-1.047-.547zm0 13.453 7.594-14.625h1.375l-7.562 14.625zm6-3.766q0-1.5.75-2.531.75-1.047 2.172-1.047 1.313 0 2.156.938.859.938.859 2.734 0 1.766-.875 2.719-.859.953-2.125.953t-2.109-.937q-.828-.953-.828-2.828zm2.969-2.391q-.641 0-1.062.547t-.422 2.016q0 1.313.422 1.875.438.547 1.063.547.641 0 1.063-.547.422-.562.422-2.016 0-1.344-.422-1.875-.422-.547-1.062-.547z" class="C"/><path d="M104.69 160.637c0-13.403 10.336-24.268 23.087-24.268 6.123 0 11.995 2.557 16.325 7.108s6.762 10.724 6.762 17.16c0 13.403-10.336 24.268-23.087 24.268s-23.087-10.865-23.087-24.268" class="B G"/><path d="M104.69 160.637h0c0-13.403 10.336-24.268 23.087-24.268h0c6.123 0 11.995 2.557 16.325 7.108s6.762 10.724 6.762 17.16h0c0 13.403-10.336 24.268-23.087 24.268h0c-12.75 0-23.087-10.865-23.087-24.268z" class="D E F"/><path d="m122.323 157.363.344-1.062q1.188.422 1.719.719-.141-1.344-.141-1.844h1.078q-.031.734-.172 1.844.766-.391 1.75-.719l.344 1.063q-.953.313-1.859.406.453.406 1.281 1.406l-.891.641q-.422-.594-1.016-1.609-.547 1.047-.969 1.609l-.875-.641q.859-1.062 1.234-1.406-.953-.187-1.828-.406zm5.923 0 .344-1.062q1.188.422 1.719.719-.141-1.344-.141-1.844h1.078q-.031.734-.172 1.844.766-.391 1.75-.719l.344 1.063q-.953.313-1.859.406.453.406 1.281 1.406l-.891.641q-.422-.594-1.016-1.609-.547 1.047-.969 1.609l-.875-.641q.859-1.062 1.234-1.406-.953-.187-1.828-.406z" class="C"/><use fill="#fff" class="B" href="#I"/><use class="D E F" href="#I"/><path d="M675.449 65.617q1.75.703 3.25 1.859l-1.094 2.016q-1.516-1.25-3.266-2.016zm.547-3.922q1.75.688 3.234 1.844l-1.109 1.859q-1.578-1.156-3.281-1.953zm7.656 6.656.281.516q.828-1.031 1.922-3.641l1.281.172q1.406.188.188.953-.266.594-.328.688h.703l.688-1.578 1.328.094q1.438.156.188.953l-.344.531h1.906v1.781h-2.234v.594h1.781v1.781h-1.781v.594h1.781v1.781h-1.781v.891h2.531v1.781h-5.047v.438h-1.641l.141-6.687q.109.109-.469.75l.25.828-1.672.781-.172-.703-.453.047v5.063h-1.844V71.82l-1.266.094q-.703.875-.891-.234l-.281-1.453h1.25l.609-.703-2.062-1.625 1.016-1.344.672.453 1.531-1.906 1.141.563q1.313 1.125-.109.938l-1.187 1.438.125.125 1.672-2.094 1.125.563q1.156.828-.156.984l-2.156 2.5.719-.031q-.094-.172-.547-.953l1.594-.781zm8.672 8.328-.734 2.016h-8.734q-3.391 0-5.484-2.031l-2.234 2.406-1.047-2.266 2.156-1.672v-2.687h-2.078v-2h4.156v4.688q1.891 1.547 4.672 1.547h9.328zm-6.5-13.359h-1.344v.812h1.344zm-6.312 2.297v-3.781h11.578v3.781zm4.281 6.016q.828 1.453 1.266 3.016l-1.391.938q-.656-1.984-1.297-3.359l1.422-.594zm-3.25.453q1.516.453.281 1.016-.281 1.656-.875 3.219l-1.469-1.016q.531-1.516.875-3.422zm6.172 2.375h.891v-.891h-.891zm0-2.672h.891v-.594h-.891zm0-2.375h.891v-.594h-.891zm.969-5.281h1.547v-.812h-1.547zm-6.312-.812v.812h1.266v-.812zm26.5 13.312-6 .672-.109-2.016 1.359-.078v-6.844h-1.187v-1.781h9.563v1.781h-1.547v6.109l1.531-.219.109 1.938-1.641.234v2.484h-2.078zm-2.672-2.844v1.156l2.672-.234v-.922zm2.672-2.672H705.2v.891h2.672zm0-2.75H705.2v.969h2.672zm-4.906-2.078v-4.375h7.047v4.375zm5.203-1.781v-.812h-3.344v.812zm-9.062 9.203h3.266v2h-3.266v3.281h-1.859V75.71h-3.328v-2h3.328v-.672h-2.593v-7.047h2.594v-.594h-3.109v-2h3.109V61.32h1.5q1.375.188.359.891v1.188h3.047v2h-3.047v.594h2.672v7.047h-2.672v.672zm-1.859-2.453v-.812h-.734v.813h.734zm0-3.484h-.734v.891h.734zm2.672.891v-.891h-.812v.891zm0 2.594v-.812h-.812v.813h.813zm15.891-.437h-2.297v-2h4.375v6.188q1.25 1.594 4.375 1.594h9.047l-.422 2.016h-8.547q-4.016 0-5.312-1.859-1.109 1.125-2.516 1.969l-1.297-2.203q2.047-.766 2.594-1.359V70.82zm.281-4.156q-.906-1.687-2.281-3.156l1.719-1.312q1.703 1.531 2.438 2.984zm3.359-.156h4.078v-.516h-3.047V64.21h3.047v-.594h-3.422v2.297h-2.078v-4.078h12.625v4.078h-2.078v-2.297h-3.187v.594h2.813v1.781h-2.812v.516h4.156v6.391h-4.156v.438h5.344v1.781h-5.344v1.422h-1.859v-1.422h-5.203v-1.781h5.203v-.437h-4.078v-6.391zm8.016 4.609v-.516h-2.078v.516zm-5.937-2.297h2v-.531h-2zm2 2.297v-.516h-2v.516zm1.859-2.297h2.078v-.531h-2.078zm7.719 6.969V74.01h5.563v-.516h-2.453v-7.641h4.984l-.641-.406q1.703-1.609 2.516-4.375l1.781.703q1.422.563-.125.984l-.016.047h5.531v1.781h-3.187l.609 1-2.125.531-.687-1.531h-.969q-.375.688-.828 1.266h4.438v7.641h-2v.516h5.125v1.781h-5.125v3.203h-2.078v-3.203h-2.859q-.203 2.563-5.516 3.547l-.625-2.016q3.781-.453 4.016-1.531zm4.922-13.937q1.438.531-.109.984l.016-.031h4.141v1.781h-2.094l.547 1.031-2.219.422-.453-1.453h-.719q-.906 1.594-2.422 2.859l-1.531-1.547q2.25-1.937 3.141-4.766zm7.609 5.781h-7.562v.359h7.563zm0 2.219v-.375h-7.562v.375zm0 1.859v-.375h-7.562v.375zm-2.219 2.297v-.516h-2.672v.516zm11.359-9.344V62.65h11.031l.422-.312 1.875 1.875-.766.406q-2.672 2.375-4.625 3.484v1.234h7.422v2.219h-7.422v5.5q0 1.484-1.484 1.484h-2.391l-.516-2.234h2.094v-4.75h-7.656v-2.219h7.656v-3.391l1.641.25q1.438-.875 2.094-1.531z" class="C"/><use fill="#fff" class="B" href="#J"/><use class="D E F" href="#J"/><path d="M516.539 68.948h-4.375v5.797l4.453-.953.438 1.828-7.516 2.031q-.141.906-.906.141l-.797-2.328 2.25-.391V61.902h1.719q1.375.141.359.891v4.156h4.375v2zm7.859-2.516q.156.969-.625.688l-4.703 2.672v5.469q0 .297.219.297h3.047q.484 0 .594-.641l.266-1.969 2.063.531-.187 1.656q-.25 2.422-2.219 2.422h-4.375q-1.484 0-1.484-1.562v-14.25h1.719q1.359.172.359.906v4.859l3.969-2.594 1.359 1.516zm15.063.25q.938.438-.078.813-1.234 2.156-3 3.672l-1.344-1.844q1.328-.953 2.844-3.531zm-3.844-3h3.266v-2.609h1.719q1.359.172.359.906v1.703h3.703v2h-9.047zm-8.312 11.719v-2h3.406v-1.109h-2.672v-6.687h2.672v-.812h-3.031v-2h3.031v-1.937h1.5q1.359.172.359.906v1.031h2.969v2h-2.969v.813h2.672v6.688h-2.672v1.109h3.266v2h-3.266v3.125h-1.859v-3.125h-3.406zm3.406-8.312h-.812v1.109h.813zm0 2.594h-.812v1.125h.813zm2.672 1.125v-1.125h-.812v1.125zm0-3.719h-.812v1.109h.813zm7.969-1.281q2.641 1.813 3.547 3.172l-1.516 1.625q-1.234-1.672-3.297-3.312zm1.328 5.172q-.719 2.109-1.5 3.203.844.891 4.016 2.156l-.719 2.141q-3.609-1.641-4.625-2.719-1.859 1.922-5.125 2.969l-1.109-1.937q3.688-1.141 4.969-2.594-.859-1.25-1.766-3.422l1.609-1.187q.859 2.188 1.438 3.016.594-.812 1.188-3.437l1.734.953q.563.719-.109.859zm6.594-.547h-2.297v-2h4.375v6.188q1.25 1.594 4.375 1.594h9.047l-.422 2.016h-8.547q-4.016 0-5.312-1.859-1.109 1.125-2.516 1.969l-1.297-2.203q2.047-.766 2.594-1.359v-4.344zm.281-4.156q-.906-1.687-2.281-3.156l1.719-1.312q1.703 1.531 2.438 2.984l-1.875 1.484zm3.359-.156h4.078v-.516h-3.047v-1.781h3.047v-.594h-3.422v2.297h-2.078v-4.078h12.625v4.078h-2.078V63.23h-3.187v.594h2.813v1.781h-2.812v.516h4.156v6.391h-4.156v.438h5.344v1.781h-5.344v1.422h-1.859V74.73h-5.203v-1.781h5.203v-.437h-4.078V66.12zm8.016 4.609v-.516h-2.078v.516zm-5.937-2.297h2v-.531h-2zm2 2.297v-.516h-2v.516zm1.859-2.297h2.078v-.531h-2.078zm7.719 6.969V73.62h5.563v-.516h-2.453v-7.641h4.984l-.641-.406q1.703-1.609 2.516-4.375l1.781.703q1.422.563-.125.984l-.016.047h5.531v1.781h-3.187l.609 1-2.125.531-.687-1.531h-.969q-.375.688-.828 1.266h4.438v7.641h-2v.516h5.125v1.781h-5.125v3.203h-2.078v-3.203h-2.859q-.203 2.563-5.516 3.547l-.625-2.016q3.781-.453 4.016-1.531h-5.328zm4.922-13.938q1.438.531-.109.984l.016-.031h4.141v1.781h-2.094l.547 1.031-2.219.422-.453-1.453h-.719q-.906 1.594-2.422 2.859l-1.531-1.547q2.25-1.938 3.141-4.766l1.703.719zm7.609 5.781h-7.562v.359h7.563v-.359zm0 2.219v-.375h-7.562v.375h7.563zm0 1.859v-.375h-7.562v.375h7.563zm-2.219 2.297v-.516h-2.672v.516zm11.359-9.344V62.26h11.031l.422-.312 1.875 1.875-.766.406q-2.672 2.375-4.625 3.484v1.234h7.422v2.219h-7.422v5.5q0 1.484-1.484 1.484h-2.391l-.516-2.234h2.094v-4.75h-7.656v-2.219h7.656v-3.391l1.641.25q1.438-.875 2.094-1.531h-9.375z" class="C"/><use class="B G" href="#K"/><use class="D E F" href="#K"/><path d="M526.653 118.458h-6.547v-1.141h6.547zm0 3h-6.547v-1.141h6.547zm8.075-3h-6.547v-1.141h6.547zm0 3h-6.547v-1.141h6.547z" class="C"/><path d="M559.156 119.483c0-13.403 11.817-24.268 26.394-24.268s26.394 10.865 26.394 24.268-11.817 24.268-26.394 24.268-26.394-10.865-26.394-24.268" class="B G"/><path d="M559.156 119.483h0c0-13.403 11.817-24.268 26.394-24.268h0c14.577 0 26.394 10.865 26.394 24.268h0c0 13.403-11.817 24.268-26.394 24.268h0c-14.577 0-26.394-10.865-26.394-24.268z" class="D E F"/><path d="m581.154 121.818-.375-5.25v-2.203h1.5v2.203l-.344 5.25zm-.312 2.453v-1.391h1.391v1.391zm9.904-5.812h-6.547v-1.141h6.547zm0 3h-6.547v-1.141h6.547z" class="C"/><path d="M501.022 173.162c0-13.403 11.817-24.268 26.394-24.268s26.394 10.865 26.394 24.268-11.817 24.268-26.394 24.268-26.394-10.865-26.394-24.268" class="B G"/><path d="M501.022 173.162h0c0-13.403 11.817-24.268 26.394-24.268h0c14.577 0 26.394 10.865 26.394 24.268h0c0 13.403-11.817 24.268-26.394 24.268h0c-14.577 0-26.394-10.865-26.394-24.268z" class="D E F"/><path d="m526.653 173.622-6.562 2.797v-1.203l5.203-2.156-5.203-2.125v-1.219l6.563 2.766zm8.075-1.484h-6.547v-1.141h6.547zm0 3h-6.547v-1.141h6.547z" class="C"/><path d="M559.156 173.162c0-13.403 11.817-24.268 26.394-24.268s26.394 10.865 26.394 24.268-11.817 24.268-26.394 24.268-26.394-10.865-26.394-24.268" class="B G"/><path d="M559.156 173.162h0c0-13.403 11.817-24.268 26.394-24.268h0c14.577 0 26.394 10.865 26.394 24.268h0c0 13.403-11.817 24.268-26.394 24.268h0c-14.577 0-26.394-10.865-26.394-24.268z" class="D E F"/><path d="M578.224 173.622v-1.141l6.563-2.766v1.219l-5.203 2.125 5.203 2.156v1.203zm14.638-1.484h-6.547v-1.141h6.547zm0 3h-6.547v-1.141h6.547z" class="C"/><path d="M501.022 226.842c0-13.403 11.817-24.268 26.394-24.268s26.394 10.865 26.394 24.268-11.817 24.268-26.394 24.268-26.394-10.865-26.394-24.268" class="B G"/><path d="M501.022 226.842h0c0-13.403 11.817-24.268 26.394-24.268h0c14.577 0 26.394 10.865 26.394 24.268h0c0 13.403-11.817 24.268-26.394 24.268h0c-14.577 0-26.394-10.865-26.394-24.268z" class="D E F"/><path d="m530.69 227.301-6.562 2.797v-1.203l5.203-2.156-5.203-2.125v-1.219l6.563 2.766z" class="C"/><path d="M559.156 226.842c0-13.403 11.817-24.268 26.394-24.268s26.394 10.865 26.394 24.268-11.817 24.268-26.394 24.268-26.394-10.865-26.394-24.268" class="B G"/><path d="M559.156 226.842h0c0-13.403 11.817-24.268 26.394-24.268h0c14.577 0 26.394 10.865 26.394 24.268h0c0 13.403-11.817 24.268-26.394 24.268h0c-14.577 0-26.394-10.865-26.394-24.268z" class="D E F"/><path d="M582.262 227.301v-1.141l6.563-2.766v1.219l-5.203 2.125 5.203 2.156v1.203z" class="C"/><use class="B G" href="#L"/><use class="D E F" href="#L"/><path d="m752.097 145.45 3.797-9.906h1.406l4.063 9.906h-1.5l-1.156-3h-4.141l-1.078 3zm2.844-4.062h3.359l-1.031-2.75q-.469-1.25-.703-2.047-.187.953-.531 1.891zm7.442 4.063v-9.906h1.344l5.203 7.781v-7.781h1.266v9.906h-1.344l-5.203-7.781v7.781zm10.002 0v-9.906h3.422q1.141 0 1.75.156.859.188 1.453.703.781.656 1.172 1.688.391 1.031.391 2.359 0 1.125-.266 2-.266.859-.672 1.438-.406.563-.906.891-.484.328-1.187.5-.687.172-1.578.172h-3.578zm1.313-1.172h2.109q.984 0 1.531-.172.563-.187.906-.516.453-.469.719-1.25.266-.797.266-1.922 0-1.547-.516-2.375-.516-.844-1.234-1.125-.531-.203-1.703-.203h-2.078z" class="C"/><path d="M730.254 203.028c0-13.403 16.322-24.268 36.457-24.268 20.134 0 36.457 10.865 36.457 24.268s-16.322 24.268-36.457 24.268c-20.134 0-36.457-10.865-36.457-24.268" class="B G"/><path d="M730.254 203.028h0c0-13.403 16.322-24.268 36.457-24.268h0c20.134 0 36.457 10.865 36.457 24.268h0c0 13.403-16.322 24.268-36.457 24.268h0c-20.134 0-36.457-10.865-36.457-24.268z" class="D E F"/><path d="M757.012 202.987q0-2.453 1.313-3.844 1.328-1.406 3.422-1.406 1.375 0 2.469.656 1.109.656 1.688 1.828.578 1.172.578 2.656 0 1.5-.609 2.703-.609 1.188-1.734 1.797-1.109.609-2.391.609-1.406 0-2.516-.672-1.094-.687-1.656-1.844-.562-1.172-.562-2.484zm1.344.031q0 1.781.953 2.813.969 1.031 2.422 1.031 1.484 0 2.438-1.031.953-1.047.953-2.953 0-1.219-.406-2.109-.406-.906-1.203-1.406-.781-.5-1.75-.5-1.391 0-2.406.969-1 .953-1 3.188zm9.834 4.797v-9.906h4.375q1.328 0 2.016.281.688.266 1.094.938.422.672.422 1.484 0 1.063-.687 1.781-.672.719-2.094.922.516.25.781.484.578.531 1.094 1.328l1.719 2.688h-1.656l-1.297-2.062q-.578-.891-.953-1.359-.375-.469-.672-.656-.281-.203-.594-.266-.219-.047-.719-.047h-1.531v4.391zm1.297-5.531h2.828q.891 0 1.391-.187.516-.187.781-.594.266-.406.266-.891 0-.703-.516-1.141-.516-.453-1.609-.453h-3.141z" class="C"/><use fill="#a2ffe8" class="B" href="#M"/><use class="D E F" href="#M"/><path d="M681.26 110.302v1.766h-12.828v-1.766zm16.156 4.188-.266 1.438q-.344 1.766-1.875 1.766h-2.766q-1.344 0-1.344-1.578v-5.047h-1.516v1.109q0 4.766-5.187 6.094l-.75-1.844q4.109-1.031 4.109-4.187v-1.172h-3.859v-1.578h13.063v1.578h-4.047v4.625q0 .234.188.234h1.578q.516 0 .578-.391l.281-1.594zm-1.859-7.172h-10.078v-1.578h10.078zm-33.391 22.75h-1.812v-1.578h3.453v4.891q.984 1.25 3.453 1.25h7.141l-.328 1.594h-6.75q-3.172 0-4.187-1.469-.891.891-1.984 1.563l-1.031-1.75q1.609-.609 2.047-1.078v-3.422zm.219-3.281q-.703-1.328-1.797-2.5l1.359-1.016q1.344 1.203 1.922 2.344zm2.656-.125h3.219v-.406h-2.406v-1.406h2.406v-.469h-2.703v1.813h-1.641v-3.219h9.969v3.219h-1.641v-1.812h-2.516v.469h2.219v1.406h-2.219v.406h3.281v5.047h-3.281v.344h4.219v1.406h-4.219v1.125h-1.469v-1.125h-4.109v-1.406h4.109v-.344h-3.218v-5.047zm6.328 3.641v-.406h-1.641v.406zm-4.687-1.812h1.578v-.422h-1.578zm1.578 1.813v-.406h-1.578v.406zm1.469-1.812h1.641v-.422h-1.641zm6.094 5.5v-1.406h4.391v-.406h-1.938v-6.031h3.938l-.5-.328q1.344-1.266 1.969-3.453l1.422.563q1.109.453-.109.781l-.016.031h4.375v1.406h-2.516l.469.797-1.656.422-.562-1.219h-.75q-.297.531-.656 1h3.5v6.031h-1.578v.406h4.047v1.406h-4.047v2.531h-1.641v-2.531h-2.25q-.172 2.031-4.359 2.797l-.5-1.594q3-.359 3.172-1.203h-4.203zm3.891-11q1.125.422-.094.766l.016-.016h3.266v1.406h-1.656l.438.813-1.75.328-.359-1.141h-.562q-.719 1.266-1.922 2.25l-1.203-1.219q1.781-1.531 2.484-3.75l1.344.563zm6 4.563h-5.969v.281h5.969zm0 1.75v-.297h-5.969v.297zm0 1.469v-.297h-5.969v.297zm-1.75 1.813v-.406h-2.109v.406zm8.969-7.375v-1.594h8.703l.344-.25 1.469 1.484-.594.313q-2.109 1.875-3.656 2.766v.969h5.859v1.75h-5.859v4.344q0 1.172-1.172 1.172h-1.891l-.406-1.766h1.656v-3.75h-6.047v-1.75h6.047v-2.688l1.297.203q1.141-.687 1.656-1.203z" class="C"/><use class="B G" href="#N"/><use class="D E F" href="#N"/><path d="M670.607 185.27v-9.906h1.344l5.203 7.781v-7.781h1.266v9.906h-1.344l-5.203-7.781v7.781zm9.611-4.828q0-2.453 1.313-3.844 1.328-1.406 3.422-1.406 1.375 0 2.469.656 1.109.656 1.688 1.828.578 1.172.578 2.656 0 1.5-.609 2.703-.609 1.188-1.734 1.797-1.109.609-2.391.609-1.406 0-2.516-.672-1.094-.687-1.656-1.844-.562-1.172-.562-2.484zm1.344.031q0 1.781.953 2.813.969 1.031 2.422 1.031 1.484 0 2.438-1.031.953-1.047.953-2.953 0-1.219-.406-2.109-.406-.906-1.203-1.406-.781-.5-1.75-.5-1.391 0-2.406.969-1 .953-1 3.188zm12.318 4.797v-8.734h-3.25v-1.172h7.844v1.172h-3.281v8.734h-1.312z" class="C"/><use fill="#a2ffe8" class="B" href="#O"/><use class="D E F" href="#O"/><use class="B G" href="#P"/><use class="D E F" href="#P"/><path d="M203.774 149.992v-3.812h-3.781v-1.594h3.781v-3.766h1.609v3.766h3.766v1.594h-3.766v3.813z" class="C"/><use class="B G" href="#Q"/><use class="D E F" href="#Q"/><path d="M201.956 216.906v-1.719h5.234v1.719z" class="C"/><use class="B H" href="#R"/><use class="D E F" href="#R"/><path d="m31.392 113.349-.25 3.266q-.094 1.328-1.25 1.328h-1.203l-.078-.812h1.203q.422 0 .469-.516l.219-2.578h-1.375l-.047.297-.906-.125q.266-1.375.438-3.312h2.016v-1.625h-2.453v-.687h3.188v3.297h-.734v-.297h-1.25q-.047.984-.219 1.766h2.234zm5.375 3.703q-2.578.469-4.594.641-.266.344-.297 0l-.172-.859q1.328-.047 2.578-.172v-1.547h-1.375v.344h-.734v-3.062h2.109v-1.156q-1.078.094-2.031.172-.25.469-.344-.047l-.172-.891q.516.031 1.031 0 .688-1 1.344-2.375l.891.344q.266.141-.125.219-.594 1.078-1.109 1.813 1.031-.047 2.094-.141-.516-.547-.641-.687l.688-.516q1.031.953 1.891 2.063l-.766.563q-.219-.297-.609-.766l-1.422.172v1.234h2.203v2.719h-2.203v1.5q.828-.094 1.422-.172-.25-.391-.594-.781l.594-.422q.953.906 1.547 2.016l-.812.484q-.094-.266-.391-.687zm-3.859-2.625h1.375v-1.344h-1.375zm2.094 0h1.469v-1.344h-1.469zm12.375 2.578q.172 0 .172-.172v-8.391h.828q.344.047.031.266v8.516q0 .594-.594.594h-.984l-.219-.812h.766zm-6.562-7.359h.984v-1.5h.813q.344.047.047.266v1.234h1.938v.828H42.66v1.109h2.656v.813H42.66v.828h2.016v3.172q0 .609-.594.609h-.656l-.172-.828h.391q.172 0 .172-.172v-1.969h-1.156v3.828h-.859v-3.828h-1.031v2.969h-.859v-3.781h1.891v-.828H39.1v-.812h2.703v-1.109H40.47q-.266.469-.562.891l-.687-.469q.641-.906 1.25-2.359l.766.25q.172.172-.125.219l-.297.641zm4.891 5.984v-6.406h.813q.344.047.047.25v6.156zm-17.877 10.157q1.5-1.766 1.766-4.687l.938.172q.172.172-.125.219-.219 1.375-.562 2.406.563.094.172.297v6.75h-.859v-5.578q-.375.766-.859 1.203l-.469-.781zm7.141 3.828q1.109.391 2.953.469l-.25.859q-1.937-.172-3.437-.891-1.547.719-3.563.891l-.266-.812q2.109-.078 3.141-.562-.641-.422-.906-.812-.766.594-1.719.938l-.391-.641q1.766-.734 2.406-1.766-.297-.125-.297-.641v-1.156h-1.453v.984h-.734v-1.5h1.109v-2.531h1.766l.047-.609h-2.672v-.516h6.844v.516h-3.234l-.203.609h2.234v2.531h1.453v1.453h-.734v-.937h-2.875q.344.297.609.766l-.656.391q-.203-.422-.547-.859l.422-.297h-.641v1.078q0 .344.344.344h.938q.313 0 .344-.266l.094-.422.766.203q-.125 1-.641 1h-1.422l-.375.469h2.313l.219-.172.688.516q.344.219-.172.25-.687.734-1.5 1.125zm1.234-3.953q.688.594.953 1.328l-.641.391q-.266-.641-.859-1.328zm-5.281 1.625q.609-.594.906-1.375l.594.313q.266.172-.078.203-.266.688-.813 1.297l-.609-.437zm4.688-4.031v-.516h-3.312v.516h3.313zm0 .297h-3.312v.563h3.313v-.562zm0 .859h-3.312v.563h3.313v-.562zm-2.406 4q.297.391 1.031.813.641-.297 1.203-.812zm8.469-4.594q-.484.766-1.172 1.328l-.641-.641q1.328-1.125 1.641-2.844l.813.266q.391.125 0 .25l-.297.813h1.672v-1.719h.813q.344.047.047.266v1.453h2.969v.828H44.55v1.625h4.031v.813h-3.047v3.094q0 .344.297.344h1.422q.344 0 .391-.297l.078-.812.906.172-.078.734q-.141 1.031-.906 1.031H45.41q-.734 0-.734-.734v-3.531h-1.25q0 4.141-3.781 4.609l-.375-.953q3.219-.344 3.219-3.656h-3.094v-.812h4.297v-1.625h-2.016z" class="C"/><use class="B G" href="#S"/><use class="D E F" href="#S"/><path d="M37.109 171.818q-1.406-1.781-2.391-4.156-.969-2.391-.969-4.953 0-2.25.734-4.312.844-2.391 2.625-4.766h1.219q-1.141 1.969-1.516 2.813-.578 1.313-.906 2.719-.406 1.781-.406 3.563 0 4.547 2.828 9.094h-1.219zm4.311 0h-1.219q2.828-4.547 2.828-9.094 0-1.781-.406-3.531-.328-1.422-.891-2.719-.375-.859-1.531-2.844h1.219q1.781 2.375 2.641 4.766.719 2.063.719 4.313 0 2.563-.984 4.953-.969 2.375-2.375 4.156z" class="C"/><use fill="#fff" class="B" href="#T"/><use class="D E F" href="#T"/><path d="M850.221 22.402q1.875-.25 5.453-1.406l1.016 1.422q.922 1.078-.594.781-3.75.813-5.875 1.078v.844q0 .297.234.297h5.109q.344 0 .375-.266l.281-1.422 2.078.5-.437 1.781q-.344 1.406-2 1.406h-6.156q-1.562 0-1.562-1.625v-5.797h1.734q1.375.188.344.906v1.5zm-8.031 15.047-.328-2h1.531v-4.125l-1.031.344q-.547 1.375-1.031-.141l-.719-1.781 2.781-.703v-3.766h-2.297v-2.016h2.297v-3.406h1.734q1.391.188.344.891v2.516h2.234v2.016h-2.234v3.141l2.141-.797.531 1.984-2.672 1.063v5.297q0 1.484-1.484 1.484zm12.719-6.094v-1.484h-4.312v1.484h4.313zm2.078 5.875h-2.078v-.75h-4.312v.891h-2.078V28.09h8.469v9.141zm-2.078-4.094h-4.312v1.563h4.313v-1.562zm5.406 2.75q3.797-2.328 3.719-7.406l2.141.375q.563.563 0 .906l-.344 2.391q.984 1.203 2.281 1.891v-6.391h-5.047v-2.016h11.797v2.016h-4.672v2.141h5.203v2.016h-5.203v3.031q.844.234 1.938.234h5.25l-.422 2h-4.828q-4.453 0-6.984-2.875-.953 2.109-3.25 3.563zm9.797-13.813h6.828v4.531h-2.078V24.09h-11.719v2.672h-2.078v-4.687h6.75v-2.141h1.969q1.469.281.328 1.047v1.094zm12.031 7.281h-2.297v-2h4.375v6.188q1.25 1.594 4.375 1.594h9.047l-.422 2.016h-8.547q-4.016 0-5.312-1.859-1.109 1.125-2.516 1.969l-1.297-2.203q2.047-.766 2.594-1.359v-4.344zm.281-4.156q-.906-1.687-2.281-3.156l1.719-1.312q1.703 1.531 2.438 2.984l-1.875 1.484zm3.359-.156h4.078v-.516h-3.047v-1.781h3.047v-.594h-3.422v2.297h-2.078V20.37h12.625v4.078h-2.078v-2.297h-3.187v.594h2.813v1.781h-2.812v.516h4.156v6.391h-4.156v.438h5.344v1.781h-5.344v1.422h-1.859v-1.422h-5.203v-1.781h5.203v-.437h-4.078v-6.391zm8.016 4.609v-.516h-2.078v.516zm-5.937-2.297h2v-.531h-2zm2 2.297v-.516h-2v.516zm1.859-2.297h2.078v-.531h-2.078zm7.719 6.969v-1.781h5.563v-.516h-2.453v-7.641h4.984l-.641-.406q1.703-1.609 2.516-4.375l1.781.703q1.422.563-.125.984l-.016.047h5.531v1.781h-3.187l.609 1-2.125.531-.687-1.531h-.969q-.375.688-.828 1.266h4.438v7.641h-2v.516h5.125v1.781h-5.125v3.203h-2.078v-3.203h-2.859q-.203 2.563-5.516 3.547l-.625-2.016q3.781-.453 4.016-1.531zm4.922-13.938q1.438.531-.109.984l.016-.031h4.141v1.781h-2.094l.547 1.031-2.219.422-.453-1.453h-.719q-.906 1.594-2.422 2.859l-1.531-1.547q2.25-1.937 3.141-4.766l1.703.719zm7.609 5.781h-7.562v.359h7.563v-.359zm0 2.219v-.375h-7.562v.375h7.563zm0 1.859v-.375h-7.562v.375h7.563zm-2.219 2.297v-.516h-2.672v.516zm11.359-9.344v-2.016h11.031l.422-.312 1.875 1.875-.766.406q-2.672 2.375-4.625 3.484v1.234h7.422v2.219h-7.422v5.5q0 1.484-1.484 1.484h-2.391l-.516-2.234h2.094v-4.75h-7.656v-2.219h7.656V24.48l1.641.25q1.438-.875 2.094-1.531h-9.375z" class="C"/><use class="B G" href="#U"/><use class="D E F" href="#U"/><path d="M862.282 76.586h-6.547v-1.141h6.547zm0 3h-6.547v-1.141h6.547z" class="C"/><path d="M832.613 119.118c0-9.524 11.817-17.244 26.394-17.244s26.394 7.72 26.394 17.244-11.817 17.244-26.394 17.244-26.394-7.72-26.394-17.244" class="B G"/><path d="M832.613 119.118h0c0-9.524 11.817-17.244 26.394-17.244h0c14.577 0 26.394 7.72 26.394 17.244h0c0 9.524-11.817 17.244-26.394 17.244h0c-14.577 0-26.394-7.72-26.394-17.244z" class="D E F"/><path d="M854.4 122.312v-2.719h-2.703v-1.141h2.703v-2.687h1.141v2.688h2.703v1.141h-2.703v2.719H854.4zm11.919-4.219h-6.547v-1.141h6.547zm0 3h-6.547v-1.141h6.547z" class="C"/><use class="B G" href="#V"/><use class="D E F" href="#V"/><path d="m911.75 206.153 2.578-9.219h.875l-2.578 9.219zm3.46 0 2.578-9.219h.875l-2.578 9.219zm10.038-5.391h-5.891v-1.031h5.891zm0 2.703h-5.891v-1.031h5.891z" class="C"/><path d="M894.216 160.627c0-9.524 11.027-17.244 24.63-17.244s24.63 7.72 24.63 17.244-11.027 17.244-24.63 17.244-24.63-7.72-24.63-17.244" class="B G"/><path d="M894.216 160.627h0c0-9.524 11.027-17.244 24.63-17.244h0c13.603 0 24.63 7.72 24.63 17.244h0c0 9.524-11.027 17.244-24.63 17.244h0c-13.603 0-24.63-7.72-24.63-17.244z" class="D E F"/><path d="m912.887 165.586 2.875-10.234h.969l-2.859 10.234zm11.154-5.984h-6.547v-1.141h6.547zm0 3h-6.547v-1.141h6.547z" class="C"/><path d="M832.613 160.625c0-9.524 11.817-17.244 26.394-17.244s26.394 7.72 26.394 17.244-11.817 17.244-26.394 17.244-26.394-7.72-26.394-17.244" class="B G"/><path d="M832.613 160.625h0c0-9.524 11.817-17.244 26.394-17.244h0c14.577 0 26.394 7.72 26.394 17.244h0c0 9.524-11.817 17.244-26.394 17.244h0c-14.577 0-26.394-7.72-26.394-17.244z" class="D E F"/><path d="M853.104 162.444v-1.219h3.734v1.219zm11.48-2.844h-6.547v-1.141h6.547zm0 3h-6.547v-1.141h6.547z" class="C"/><path d="M890.508 119.118c0-9.524 11.817-17.244 26.394-17.244s26.394 7.72 26.394 17.244-11.817 17.244-26.394 17.244-26.394-7.72-26.394-17.244" class="B G"/><path d="M890.508 119.118h0c0-9.524 11.817-17.244 26.394-17.244h0c14.577 0 26.394 7.72 26.394 17.244h0c0 9.524-11.817 17.244-26.394 17.244h0c-14.577 0-26.394-7.72-26.394-17.244z" class="D E F"/><path d="m910.611 115.828.313-.969q1.063.391 1.547.656-.125-1.219-.125-1.672h.969q-.016.656-.156 1.672.703-.359 1.594-.656l.313.969q-.859.281-1.672.375.406.359 1.156 1.281l-.812.563q-.391-.531-.922-1.453-.5.953-.875 1.453l-.797-.562q.781-.969 1.125-1.281-.875-.172-1.656-.375zm12.256 2.266h-6.547v-1.141h6.547zm0 3h-6.547v-1.141h6.547z" class="C"/><path d="M832.613 202.135c0-9.524 11.817-17.244 26.394-17.244s26.394 7.72 26.394 17.244-11.817 17.244-26.394 17.244-26.394-7.72-26.394-17.244" class="B G"/><path d="M832.613 202.135h0c0-9.524 11.817-17.244 26.394-17.244h0c14.577 0 26.394 7.72 26.394 17.244h0c0 9.524-11.817 17.244-26.394 17.244h0c-14.577 0-26.394-7.72-26.394-17.244z" class="D E F"/><path d="M851.499 200.249q0-.844.422-1.437.438-.594 1.25-.594.734 0 1.219.531.5.531.5 1.563 0 1-.5 1.547-.484.531-1.219.531-.719 0-1.203-.531-.469-.531-.469-1.609zm1.688-1.375q-.359 0-.609.328-.234.313-.234 1.141 0 .766.25 1.078t.594.313q.375 0 .609-.312.25-.312.25-1.156 0-.766-.25-1.078-.234-.312-.609-.312zm.016 7.688 4.328-8.344h.781L854 206.562zm3.422-2.156q0-.859.422-1.437.422-.594 1.25-.594.734 0 1.219.531.5.531.5 1.563 0 1-.5 1.547-.484.547-1.219.547-.719 0-1.203-.531-.469-.547-.469-1.625zm1.688-1.359q-.359 0-.609.313-.234.313-.234 1.141 0 .766.234 1.078.25.313.609.313.375 0 .609-.312.25-.312.25-1.156 0-.766-.25-1.062-.234-.312-.609-.312zm8.227-1.437h-5.234v-.906h5.234zm0 2.406h-5.234v-.906h5.234z" class="C"/><path d="M893.78 243.643c0-9.524 11.817-17.244 26.394-17.244s26.394 7.72 26.394 17.244-11.817 17.244-26.394 17.244-26.394-7.72-26.394-17.244" class="B G"/><path d="M893.78 243.643h0c0-9.524 11.817-17.244 26.394-17.244h0c14.577 0 26.394 7.72 26.394 17.244h0c0 9.524-11.817 17.244-26.394 17.244h0c-14.577 0-26.394-7.72-26.394-17.244z" class="D E F"/><path d="m913.872 241.288.219-.672q.75.266 1.094.453-.094-.859-.094-1.172h.688q-.016.469-.109 1.172.484-.25 1.125-.453l.203.672q-.594.188-1.172.266.297.25.813.891l-.562.406q-.281-.375-.656-1.031-.344.672-.609 1.031l-.562-.406q.547-.672.797-.891-.625-.125-1.172-.266zm3.77 0 .219-.672q.75.266 1.094.453-.094-.859-.094-1.172h.688q-.016.469-.109 1.172.484-.25 1.125-.453l.203.672q-.594.188-1.172.266.297.25.813.891l-.562.406q-.281-.375-.656-1.031-.344.672-.609 1.031l-.562-.406q.547-.672.797-.891-.625-.125-1.172-.266zm8.598 1.578h-4.578v-.797h4.578zm0 2.109h-4.578v-.797h4.578z" class="C"/></g><defs><path id="C" d="M97.89 104.377a9.97 9.97 0 0 1 9.969-9.969h39.874a9.97 9.97 0 0 1 9.968 9.969V241.92a9.97 9.97 0 0 1-9.968 9.969h-39.874a9.97 9.97 0 0 1-9.969-9.969z"/><path id="D" d="M397.225 105.71a11.31 11.31 0 0 1 11.307-11.307h45.228a11.31 11.31 0 0 1 11.307 11.307v134.866a11.31 11.31 0 0 1-11.307 11.307h-45.228a11.31 11.31 0 0 1-11.307-11.307z"/><path id="E" d="M407.429 160.637c0-13.403 10.336-24.268 23.087-24.268 6.123 0 11.995 2.557 16.325 7.108s6.762 10.724 6.762 17.16c0 13.403-10.336 24.268-23.087 24.268s-23.087-10.865-23.087-24.268"/><path id="F" d="M429.718 165.505v-3.812h-3.781v-1.594h3.781v-3.766h1.609v3.766h3.766v1.594h-3.766v3.813z"/><path id="G" d="M257.814 114.198c0-10.931 8.861-19.792 19.792-19.792h79.168a19.79 19.79 0 0 1 19.792 19.792v117.913c0 10.931-8.861 19.792-19.792 19.792h-79.168c-10.931 0-19.792-8.861-19.792-19.792z"/><path id="H" d="M264.615 161.869c0-13.399 10.342-24.26 23.1-24.26 6.126 0 12.002 2.556 16.334 7.106s6.766 10.72 6.766 17.155c0 13.399-10.342 24.26-23.1 24.26s-23.1-10.862-23.1-24.26z"/><path id="I" d="M637.947 49.748h168.63v211.78h-168.63z"/><path id="J" d="M484.483 49.361h142.488v211.78H484.483z"/><path id="K" d="M501.022 119.483c0-13.403 11.817-24.268 26.394-24.268s26.394 10.865 26.394 24.268-11.817 24.268-26.394 24.268-26.394-10.865-26.394-24.268"/><path id="L" d="M730.254 140.662c0-13.403 16.322-24.268 36.457-24.268 20.134 0 36.457 10.865 36.457 24.268s-16.322 24.268-36.457 24.268c-20.134 0-36.457-10.865-36.457-24.268"/><path id="M" d="M642.886 93.608h79.685v157.48h-79.685z"/><path id="N" d="M647.698 180.482c0-18.038 16.322-32.661 36.457-32.661 20.134 0 36.457 14.623 36.457 32.661s-16.322 32.661-36.457 32.661c-20.134 0-36.457-14.623-36.457-32.661"/><path id="O" d="M173.182 94.403h67.843v157.48h-67.843z"/><path id="P" d="M181.472 145.124c0-15.865 10.342-28.726 23.1-28.726 6.126 0 12.002 3.027 16.334 8.414s6.766 12.694 6.766 20.313c0 15.865-10.342 28.727-23.1 28.727s-23.1-12.861-23.1-28.727z"/><path id="Q" d="M181.472 213.959c0-15.865 10.342-28.727 23.1-28.727 6.126 0 12.002 3.027 16.334 8.414s6.766 12.694 6.766 20.313c0 15.865-10.342 28.727-23.1 28.727s-23.1-12.861-23.1-28.727"/><path id="R" d="M8.58 104.377a9.97 9.97 0 0 1 9.969-9.969h39.874a9.97 9.97 0 0 1 9.969 9.969V241.92a9.97 9.97 0 0 1-9.969 9.969H18.549a9.97 9.97 0 0 1-9.969-9.969z"/><path id="S" d="M14.4 160.637c0-13.403 11.027-24.268 24.63-24.268 6.532 0 12.797 2.557 17.416 7.108s7.214 10.724 7.214 17.16c0 13.403-11.027 24.268-24.63 24.268S14.4 174.04 14.4 160.637"/><path id="T" d="M825.068 8.283h127.055v256.535H825.068z"/><path id="U" d="M832.613 77.61c0-9.524 11.817-17.244 26.394-17.244s26.394 7.72 26.394 17.244-11.817 17.244-26.394 17.244-26.394-7.72-26.394-17.244"/><path id="V" d="M894.216 201.538c0-9.524 11.027-17.244 24.63-17.244s24.63 7.72 24.63 17.244-11.027 17.244-24.63 17.244-24.63-7.72-24.63-17.244"/></defs></svg>