<svg xmlns="http://www.w3.org/2000/svg" fill="none" stroke-linecap="square" stroke-miterlimit="10" viewBox="0 0 245.853 333.892"><clipPath id="a"><path d="M0 0h245.853v333.892H0z"/></clipPath><g clip-path="url(#a)"><path fill="none" d="M0 0h245.853v333.892H0z"/><path fill="#fff" fill-rule="evenodd" d="M55.835 134.974H171.74v129.858H55.835z"/><path stroke="#1a1a1a" stroke-linecap="butt" stroke-linejoin="round" d="M55.835 134.974H171.74v129.858H55.835z"/><path fill="#000" d="m82.912 169.885-1.625-1.859v7.438h-1.484V168.4q-1.125 2.078-2.375 3.188l-.969-1.407q2.516-2.453 3.344-5.562h-2.75v-1.406h2.75v-2.079l-2.312.36-.438-1.485q3.563-.593 5.719-1.406l1.031 1.406q.078.532-.437.235l-2.079.594v2.375h2.672v1.406h-2.672v1.484q1.188.813 2.735 2.453zm6.61-1.703v1.922h3.11v1.422h-3.11v2h4.156v1.406H83.131v-1.406h4.906v-2h-3.343v-1.422h3.343v-1.922h-3.64v-1.406h8.765v1.406zm1.703-7.281h-4.672v2.672h4.672zm0 4.75v-.656h-4.672v.734h-1.484v-6.234h7.64v6.156zm17.375 5.422q.953 1.781 1.703 1.781.297 0 .375-.437l.14-1.266 1.641.734-.297 1.782q-.234 1.265-1.343 1.265-2.22 0-3.782-3.047-1.484-2.89-1.562-8.156H96.35v-1.64h9.047v-3.407h1.64q.735.14.079.594v2.813h5.187v1.64h-5.187q.296 5.188 1.484 7.344m-2.906 1.344q-4.157.89-8.375 1.625-.157.672-.532.156l-.359-1.86q1.844-.156 3.625-.453v-4.218h-2.969v-1.422h7.36v1.422h-2.907v4q1.72-.22 3.938-.672zm3.422-13.36q1.03.516 2 1.407l-1.329 1.109q-.75-.734-1.937-1.406zm8.312 14.016h14.25v1.422h-14.25v.734h-1.484v-15.656h15.953v1.406h-14.469zm10.469-6.969h-6.985v-4.015h6.985zm-1.485-1.187v-1.641h-4.015v1.64zm3.86 6.968h-1.266v-.593h-2.531v.828h-1.25v-4.985h5.047zm-1.266-1.78v-1.782h-2.531v1.781zm-6.453 1.859v-.672h-2.531v.89h-1.266v-5.047h5.047v4.829zm0-1.86v-1.781h-2.531v1.781zm26.781 2.75 1.344.297-.297 1.047q-.219.89-1.11.89h-3.202q-1.188 0-1.188-1.484v-5.578h-1.328v.672q0 5.125-5.562 6.687l-.454-1.343q4.75-1.266 4.75-5.422v-.594h-1.921v-7.344h3.187l.813-2.297 1.64.22q.219.218-.156.452l-.969 1.625h4.75v7.344h-3.484v3.344h.297l.672-2.89 1.265.296q.219.219-.156.438l-.734 2.078 1.484-.22-.594-1.265 1.031-.437q.891 1.328 1.407 2.75l-1.25.437-.157-.437-3.265.515v.97q0 .296.453.296h2q.516 0 .594-.453zm-11.797-13.797q.594.063.079.438v3.719h2.078v1.406h-2.078v5.265l2.453-.593.218 1.265-5.562 1.703q-.234.516-.453.157l-.438-1.563 2.297-.594v-5.64h-1.937v-1.406h1.937v-4.157zm8.094 4.672h2.75v-1.86h-2.75zm-4.015 0h2.75v-1.86h-2.75zm0 3.11h2.75v-1.922h-2.75zm6.765 0v-1.922h-2.75v1.922zM106.631 195.823v-1.875h1.875v1.875zm6.235 0v-1.875h1.859v1.875zm6.203 0v-1.875h1.875v1.875z"/><path fill="red" d="M93.188 217.823h-1.516v-13.36h1.64v4.766q1.048-1.297 2.657-1.297.89 0 1.688.36.796.359 1.312 1.015.516.64.797 1.563.297.922.297 1.969 0 2.484-1.235 3.843-1.218 1.36-2.953 1.36-1.703 0-2.687-1.438zm-.016-4.906q0 1.734.485 2.515.765 1.266 2.093 1.266 1.078 0 1.86-.938.78-.937.78-2.78 0-1.891-.75-2.798-.75-.906-1.827-.906-1.063 0-1.86.938-.78.937-.78 2.703m8.876 4.906v-9.672h1.469v1.469q.562-1.031 1.03-1.36.485-.328 1.063-.328.829 0 1.688.532l-.563 1.515q-.609-.36-1.203-.36-.547 0-.968.329-.422.328-.61.89-.281.876-.281 1.922v5.063zm12.853-3.11 1.688.204q-.407 1.484-1.485 2.312-1.078.813-2.765.813-2.125 0-3.375-1.297-1.235-1.313-1.235-3.672 0-2.453 1.25-3.797 1.266-1.344 3.266-1.344 1.937 0 3.156 1.328 1.235 1.313 1.235 3.704v.437h-7.22q.095 1.594.907 2.453.813.844 2.016.844.906 0 1.547-.469.64-.484 1.015-1.515m-5.39-2.656h5.406q-.11-1.218-.625-1.828-.781-.953-2.031-.953-1.125 0-1.907.766-.765.75-.843 2.015m15.453 4.578q-.921.766-1.765 1.094-.828.313-1.797.313-1.594 0-2.453-.782-.86-.78-.86-1.984 0-.719.329-1.297.328-.594.843-.937.532-.36 1.188-.547.469-.125 1.453-.25 1.984-.235 2.922-.563.015-.343.015-.422 0-1-.468-1.421-.625-.547-1.875-.547-1.157 0-1.703.406-.547.406-.813 1.422l-1.61-.219q.22-1.016.72-1.64.5-.641 1.453-.985t2.187-.344q1.25 0 2.016.297.78.281 1.14.735.375.437.516 1.109.078.422.078 1.516v2.187q0 2.281.11 2.89.109.594.406 1.157h-1.703q-.266-.516-.329-1.188m-.14-3.671q-.89.375-2.672.625-1.016.14-1.438.328-.421.187-.656.53-.219.345-.219.782 0 .656.5 1.094.5.437 1.454.437.937 0 1.671-.406.75-.422 1.094-1.14.266-.563.266-1.641zm4.204 4.859v-13.36h1.64v7.626l3.89-3.938h2.11l-3.687 3.594 4.062 6.078h-2.015l-3.204-4.953-1.156 1.125v3.828zM118.725 239.823v-2.563h2.562v2.563zm-6.219 0v-2.563h2.563v2.563zm-6.219 0v-2.563h2.563v2.563z"/><path fill="#fff" fill-rule="evenodd" d="M55.837 4.9h115.906v41.323H55.837z"/><path stroke="#1a1a1a" stroke-linecap="butt" stroke-linejoin="round" d="M55.837 4.9h115.906v41.323H55.837z"/><path fill="#000" d="M73.571 25.279v-1.485h-3.265v1.485zm0 1.406h-3.265v1.562h3.265zm-.234 5.875q.234 0 .234-.235v-2.671h-3.265v4.468H68.82V22.388h6.235V32.7q0 1.266-1.188 1.266h-1.484l-.375-1.406zm3.86-9.797h1.484v8.531h-1.485zm3.796 9.719q.219 0 .219-.22V22.17h1.406q.75.14.078.594v9.875q0 1.25-1.187 1.25h-1.64l-.298-1.406zm-1.265-14.47q-.454.813-1.11 1.845h5.64v1.422H67.182v-1.422h5.047q-.438-1.032-1.032-1.782l1.328-.734q.813.813 1.641 2.516h2.734q.829-1.407 1.344-2.813l1.703.594q.297.297-.218.375m22.703 6.298v1.64H86.774v-1.64zm7.656-.953q-.156.437-.75 1.78 1.562.735 2.672 1.626.453-1.625.594-3.406zm-1.422 2.89q-1.187 1.782-2.375 2.516l-.89-1.406q3.343-2.672 3.859-7.64h-2.672V18.31h8.687v1.406h-4.53q0 .375-.36 2.219h3.86q.14 9.062-6.907 12.031l-.969-1.562q3.719-1.625 4.969-4.079-.656-.89-2.672-2.078m10.984-8.39h1.422q.594.078.063.453v14.094q0 1.125-.89 1.125h-2.22l-.156-1.422h1.485q.296 0 .296-.297zm-2.375 2q.594.078.079.453v9.797h-1.485v-10.25zm13.141 8.687-1.625-1.86v7.438h-1.484V27.06q-1.125 2.078-2.375 3.187l-.97-1.406q2.517-2.453 3.345-5.562h-2.75v-1.407h2.75v-2.078l-2.313.36-.437-1.485q3.562-.594 5.718-1.406l1.032 1.406q.078.531-.438.235l-2.078.593v2.375h2.672v1.407h-2.672v1.484q1.188.812 2.734 2.453zm6.61-1.703v1.922h3.109v1.422h-3.11v2h4.157v1.406h-10.547v-1.406h4.906v-2h-3.344v-1.422h3.344V26.84h-3.64v-1.406h8.765v1.406zm1.703-7.281h-4.672v2.672h4.672zm0 4.75v-.656h-4.672v.734h-1.485v-6.234h7.64v6.156zm17.375 5.422q.953 1.78 1.703 1.78.297 0 .375-.437l.14-1.265 1.64.734-.296 1.781q-.234 1.266-1.344 1.266-2.218 0-3.781-3.047-1.484-2.89-1.562-8.156h-9.125v-1.64h9.046V17.34h1.641q.734.14.078.594v2.812h5.188v1.64h-5.188q.297 5.188 1.485 7.345m-2.907 1.343q-4.156.891-8.375 1.625-.156.672-.531.157l-.36-1.86q1.844-.156 3.626-.453v-4.219h-2.97v-1.421h7.36v1.421h-2.906v4q1.719-.218 3.938-.671zm3.422-13.359q1.031.516 2 1.406l-1.328 1.11q-.75-.735-1.937-1.407z"/><path fill="#fff" fill-rule="evenodd" d="m30.228 90.598 83.56-26.454 83.561 26.454-83.56 26.454z"/><path stroke="#1a1a1a" stroke-linecap="butt" stroke-linejoin="round" d="m30.228 90.598 83.56-26.454 83.561 26.454-83.56 26.454z"/><path fill="#000" d="M92.71 89.58q3.047-.827 4.016-1.64-.969-.968-1.719-2.156-.734.969-1.484 1.719l-.89-.969q2.234-2.375 2.968-4.531l1.188.156q.531.063 0 .438l-.657 1.343h6.672v1.188h-1.859q-1.031 1.781-2.219 2.734.969.672 4.156 1.266l-.453 1.406q-3.265-.812-4.75-1.844-1.484 1.188-4.156 2zm-.374 7.423q2.968-1.781 4.453-4.016h-3.625v-1.406h3.86v-1.703h1.405q.594.062.078.437v1.266h4.375v1.406h-4.234q1.938 2.297 4.828 3.485l-.89 1.421q-2.454-1.421-4.079-3.343v4.453h-1.484V94.69q-1.422 2.078-3.797 3.5zm0-.75H90.85V85.05h1.422q.594.078.063.437zm-4.157-6.61q-.515.891-1.25 1.86l-.968-1.188q2.671-3.703 3.562-8.156l1.266.297q.593.14.062.437-.594 2.235-1.406 4.079.812.078.219.593v11.516h-1.485zm9.5-2.437q.97-.828 1.641-2.078h-3.344q.453 1.031 1.703 2.078m16.11-2.75q-.078.516-.438 2.078h2.297v-4.078h1.406q.594.062.078.437v3.641h3.641v1.406h-3.64v3.719h5.124v1.406h-5.125v6.016h-1.484v-6.016h-5.5V91.66h5.5V87.94h-2.75q-.734 2-1.781 3.188l-1.266-1.188q2.156-2.734 2.375-6.297l1.781.438q.297.297-.218.375m-4.594 14.703h-1.484V89.94q-.532.969-1.344 1.938l-1.188-1.344q2.828-3.266 3.344-8.234l1.563.297q.515.156 0 .375-.454 2.453-1.047 4.156l.297.078q.218.219-.141.437zm27.906-4.39q.953 1.78 1.703 1.78.297 0 .375-.437l.141-1.265 1.64.734-.296 1.781q-.235 1.266-1.344 1.266-2.219 0-3.781-3.047-1.485-2.89-1.563-8.156h-9.125v-1.641h9.047v-3.406h1.64q.735.14.079.594v2.812h5.187v1.64h-5.187q.297 5.188 1.484 7.344m-2.906 1.343q-4.156.89-8.375 1.625-.156.672-.531.156l-.36-1.859q1.844-.156 3.625-.453v-4.219h-2.968V89.94h7.359v1.422h-2.906v4q1.718-.219 3.937-.672zm3.422-13.36q1.031.516 2 1.407l-1.328 1.11q-.75-.735-1.938-1.407z"/><path fill="#fff" fill-rule="evenodd" d="M55.837 282.753h115.906v44.504H55.837z"/><path stroke="#1a1a1a" stroke-linecap="butt" stroke-linejoin="round" d="M55.837 282.753h115.906v44.504H55.837z"/><path fill="#000" d="M78.243 311.113q-2.297 1.625-6.156 2.375l-.531-1.563q3.562-.453 5.578-1.86-.828-.968-1.422-2.155-1.031 1.484-2.89 2.672l-.891-1.188q2.89-1.844 3.78-4.375l-2.812.156q-.078.516-.375.219l-.515-1.703 2.969-.078 1.406-1.188q-1.703-1.187-3.11-1.86l.813-1.265.734.375q1.266-1.562 2.235-3.406l1.265.734q.657.375-.078.516-.969 1.344-2.297 2.906.735.438 1.407.89 1.328-1.265 2.75-3.265l1.328.813q.297.297-.22.375-1.405 1.922-4.312 4.375l4.454-.297q-.594-.672-1.188-1.266l1.047-.89q1.703 1.265 2.812 3.343l-1.25.97-.593-1.048-4.828.453-.594 1.25h3.703l.234-.359 1.25.734q.532.22-.297.454-1.03 1.921-2.296 3.109 1.937 1.187 4.828 1.64l-.594 1.704q-2.969-.672-5.344-2.297m0-1.86q.813-.812 1.563-1.937h-2.907q.454 1.047 1.344 1.937m-7.203 4.235h-1.484v-7.656q-.672.671-1.563 1.421l-.656-1.484q2.437-1.937 4-4.984l1.344.89q.297.297-.235.375-.515.89-1.406 2.078zm1.344-15.375q-1.344 1.937-3.938 3.719l-.812-1.485q2.219-1.484 3.86-3.562l1.327 1.03q.078.376-.437.298m30.047 5.64v1.641H86.774v-1.64zm7.656-.953q-.156.438-.75 1.782 1.562.734 2.672 1.625.453-1.625.594-3.407zm-1.422 2.89q-1.187 1.782-2.375 2.517l-.89-1.407q3.343-2.672 3.859-7.64h-2.672v-1.407h8.687v1.407h-4.53q0 .375-.36 2.218h3.86q.14 9.063-6.907 12.032l-.969-1.563q3.719-1.625 4.969-4.078-.656-.89-2.672-2.078m10.984-8.39h1.422q.594.078.063.453v14.094q0 1.125-.89 1.125h-2.22l-.156-1.422h1.485q.296 0 .296-.297zm-2.375 2q.594.078.079.453v9.797h-1.485V299.3zm13.141 8.688-1.625-1.86v7.438h-1.484v-7.063q-1.125 2.079-2.375 3.188l-.97-1.406q2.517-2.453 3.345-5.563h-2.75v-1.406h2.75v-2.078l-2.313.36-.437-1.485q3.562-.594 5.718-1.406l1.032 1.406q.078.531-.438.234l-2.078.594v2.375h2.672v1.406h-2.672v1.485q1.188.812 2.734 2.453zm6.61-1.703v1.922h3.109v1.421h-3.11v2h4.157v1.407h-10.547v-1.407h4.906v-2h-3.344v-1.421h3.344v-1.922h-3.64v-1.407h8.765v1.407zm1.703-7.282h-4.672v2.672h4.672zm0 4.75v-.656h-4.672v.735h-1.485v-6.235h7.64v6.156zm17.375 5.422q.953 1.782 1.703 1.782.297 0 .375-.438l.14-1.266 1.64.735-.296 1.781q-.234 1.266-1.344 1.266-2.218 0-3.781-3.047-1.484-2.89-1.562-8.156h-9.125v-1.641h9.046v-3.406h1.641q.734.14.078.593v2.813h5.188v1.64h-5.188q.297 5.188 1.485 7.344m-2.907 1.344q-4.156.89-8.375 1.625-.156.672-.531.156l-.36-1.86q1.844-.155 3.626-.452v-4.219h-2.97v-1.422h7.36v1.422h-2.906v4q1.719-.219 3.938-.672zm3.422-13.36q1.031.516 2 1.407l-1.328 1.11q-.75-.735-1.937-1.407z"/><path fill="none" d="M113.79 46.223v8.96h.063v8.961"/><path stroke="#1a1a1a" stroke-linecap="butt" stroke-linejoin="round" d="M113.79 46.223v8.96h.063v2.961"/><path fill="#1a1a1a" fill-rule="evenodd" stroke="#1a1a1a" stroke-linecap="butt" d="m112.201 58.144 1.652 4.538 1.652-4.538z"/><path fill="none" d="M113.789 117.052v8.961h.063v8.96"/><path stroke="#1a1a1a" stroke-linecap="butt" stroke-linejoin="round" d="M113.789 117.052v8.961h.063v2.96"/><path fill="#1a1a1a" fill-rule="evenodd" stroke="#1a1a1a" stroke-linecap="butt" d="m112.2 128.974 1.652 4.538 1.651-4.538z"/><path fill="none" d="M197.35 90.598h24.999v214.394h-50.606"/><path stroke="#1a1a1a" stroke-linecap="butt" stroke-linejoin="round" d="M197.35 90.598h24.999v214.394h-44.606"/><path fill="#1a1a1a" fill-rule="evenodd" stroke="#1a1a1a" stroke-linecap="butt" d="m177.743 303.34-4.538 1.652 4.538 1.652z"/><path fill="none" d="M125.54 105.808h64.662v40.41h-64.661z"/><path fill="#595959" d="M139.04 131.448v-10.937h-4.093v-1.469h9.828v1.469h-4.094v10.937zm6.567 0v-8.984h1.375v1.36q.516-.954.953-1.25.453-.313.985-.313.78 0 1.562.484l-.515 1.422q-.563-.328-1.125-.328-.5 0-.891.297-.39.297-.563.828-.265.813-.265 1.781v4.703zm11.677 0v-1.312q-1.047 1.516-2.844 1.516-.797 0-1.5-.297-.687-.313-1.016-.766-.328-.469-.468-1.14-.094-.438-.094-1.422v-5.563h1.516v4.984q0 1.188.093 1.61.157.594.61.937.468.344 1.156.344t1.281-.344q.61-.36.86-.953.25-.61.25-1.765v-4.813h1.515v8.984zm9.903-2.89 1.562.187q-.36 1.39-1.375 2.157-1 .75-2.562.75-1.985 0-3.141-1.204-1.14-1.218-1.14-3.421 0-2.266 1.156-3.516 1.171-1.25 3.03-1.25 1.813 0 2.954 1.234 1.14 1.219 1.14 3.438 0 .14-.015.406h-6.703q.094 1.484.844 2.281.75.782 1.875.782.843 0 1.437-.438.594-.437.938-1.406m-5-2.469h5.015q-.11-1.125-.578-1.703-.734-.875-1.89-.875-1.047 0-1.766.703-.703.703-.781 1.875"/><path fill="none" d="M185.163 60.785h64.661v40.41h-64.661z"/><path fill="#595959" d="M195.585 86.425V74.019h8.375v1.468h-6.735v3.844h5.828v1.453h-5.828v5.64zm16.162-1.11q-.843.72-1.625 1.016-.78.297-1.671.297-1.485 0-2.282-.719-.797-.734-.797-1.86 0-.655.297-1.202.313-.547.797-.875t1.094-.5q.437-.11 1.344-.22 1.843-.218 2.718-.53.016-.313.016-.391 0-.937-.437-1.312-.579-.516-1.735-.516-1.078 0-1.594.375-.5.375-.75 1.328l-1.484-.203q.203-.953.656-1.531.47-.594 1.344-.907.89-.328 2.047-.328 1.156 0 1.875.282.719.265 1.047.671.344.407.484 1.032.078.39.078 1.406v2.031q0 2.125.094 2.688.094.562.39 1.078h-1.593q-.234-.469-.313-1.11m-.125-3.406q-.828.344-2.484.578-.937.14-1.328.313-.39.172-.61.5-.203.312-.203.719 0 .609.454 1.015.468.406 1.359.406.875 0 1.562-.39t1.016-1.047q.234-.516.234-1.531zm3.872 4.516V74.019h1.516v12.406zm3.272-2.688 1.515-.234q.125.906.703 1.39.578.485 1.61.485 1.062 0 1.562-.422.516-.437.516-1.016 0-.515-.453-.812-.313-.203-1.563-.516-1.672-.422-2.328-.718-.64-.313-.984-.86-.328-.547-.328-1.203 0-.61.28-1.11.282-.515.75-.859.36-.265.97-.437.609-.188 1.312-.188 1.063 0 1.86.313.796.297 1.171.828.39.516.532 1.375l-1.485.203q-.11-.687-.594-1.078-.484-.39-1.375-.39-1.046 0-1.5.343-.437.344-.437.813 0 .296.172.53.187.25.594.407.218.094 1.343.39 1.61.438 2.25.72.64.265 1 .796.375.516.375 1.297 0 .766-.453 1.438-.437.672-1.281 1.047-.828.359-1.89.359-1.75 0-2.673-.719-.921-.734-1.171-2.172m15.43-.203 1.562.188q-.36 1.39-1.375 2.156-1 .75-2.563.75-1.984 0-3.14-1.203-1.141-1.219-1.141-3.422 0-2.266 1.156-3.516 1.172-1.25 3.031-1.25 1.813 0 2.954 1.235 1.14 1.218 1.14 3.437 0 .14-.015.406H229.1q.094 1.485.844 2.282.75.78 1.875.78.844 0 1.438-.437.593-.437.937-1.406m-5-2.469h5.015q-.11-1.125-.578-1.703-.735-.875-1.89-.875-1.048 0-1.767.703-.703.704-.78 1.875"/><path fill="none" d="M82.86 212.942v-.01H30.838v92.073h25"/><path stroke="red" stroke-linecap="butt" stroke-linejoin="round" stroke-width="3" d="M82.86 212.942v-.01H30.838v92.073h7"/><path fill="red" fill-rule="evenodd" stroke="red" stroke-linecap="butt" stroke-width="3" d="m37.837 309.96 13.615-4.955-13.615-4.955z"/><path fill="none" d="M113.787 264.832v25H5.228V90.595h25"/><path stroke="#1a1a1a" stroke-dasharray="1.0,3.0" stroke-linecap="butt" stroke-linejoin="round" d="M113.787 264.832v25H5.228V90.595h19"/><path fill="#1a1a1a" fill-rule="evenodd" stroke="#1a1a1a" stroke-linecap="butt" d="m24.228 92.248 4.538-1.652-4.538-1.652z"/></g></svg>