<svg xmlns="http://www.w3.org/2000/svg" fill="none" stroke-linecap="square" stroke-miterlimit="10" viewBox="0 0 244.682 333.892"><clipPath id="a"><path d="M0 0h244.682v333.892H0z"/></clipPath><g clip-path="url(#a)"><path fill="none" d="M0 0h244.682v333.892H0z"/><path fill="#fff" fill-rule="evenodd" d="M56.047 134.976h115.906v129.859H56.047z"/><path stroke="#1a1a1a" stroke-linecap="butt" stroke-linejoin="round" d="M56.047 134.976h115.906v129.859H56.047z"/><path fill="#000" d="m83.125 169.888-1.625-1.86v7.438h-1.484v-7.062q-1.125 2.078-2.375 3.187l-.97-1.406q2.516-2.453 3.345-5.563h-2.75v-1.406h2.75v-2.078l-2.313.36-.437-1.485q3.562-.594 5.718-1.406l1.032 1.406q.078.531-.438.234l-2.078.594v2.375h2.672v1.406H81.5v1.485q1.188.812 2.734 2.453zm6.61-1.703v1.922h3.109v1.422h-3.11v2h4.157v1.406H83.344v-1.406h4.906v-2h-3.344v-1.422h3.344v-1.922h-3.64v-1.406h8.765v1.406zm1.703-7.281h-4.672v2.672h4.671zm0 4.75v-.657h-4.672v.735H85.28v-6.235h7.64v6.157zm17.374 5.422q.954 1.78 1.704 1.78.296 0 .375-.437l.14-1.265 1.64.734-.296 1.781q-.234 1.266-1.344 1.266-2.219 0-3.781-3.047-1.484-2.89-1.562-8.156h-9.126v-1.64h9.047v-3.407h1.641q.734.14.078.594v2.812h5.188v1.64h-5.188q.297 5.188 1.484 7.345m-2.906 1.343q-4.156.89-8.375 1.625-.156.672-.531.157l-.36-1.86q1.844-.156 3.626-.453v-4.219h-2.97v-1.422h7.36v1.422h-2.906v4q1.719-.218 3.938-.672zm3.422-13.36q1.031.517 2 1.407l-1.328 1.11q-.75-.735-1.937-1.407zm8.313 14.017h14.25v1.421h-14.25v.735h-1.485v-15.656h15.953v1.406h-14.468zm10.468-6.97h-6.984v-4.015h6.984zm-1.484-1.187v-1.64h-4.016v1.64zm3.86 6.969h-1.266v-.594h-2.531v.828h-1.25v-4.984h5.046zm-1.266-1.781v-1.781h-2.531v1.78zm-6.453 1.86v-.673h-2.532v.89h-1.265v-5.046h5.047v4.828zm0-1.86v-1.781h-2.532v1.78zm26.78 2.75 1.345.297-.297 1.047q-.219.89-1.11.89h-3.203q-1.187 0-1.187-1.484v-5.578h-1.328v.672q0 5.125-5.563 6.687l-.453-1.344q4.75-1.265 4.75-5.422v-.593h-1.921v-7.344h3.187l.812-2.297 1.64.219q.22.219-.155.453l-.97 1.625h4.75v7.344h-3.484v3.343h.297l.672-2.89 1.266.297q.219.218-.156.437l-.735 2.078 1.484-.218-.593-1.266 1.031-.438q.89 1.329 1.406 2.75l-1.25.438-.156-.438-3.266.516v.969q0 .297.453.297h2q.516 0 .594-.453zM137.75 159.06q.594.062.078.437v3.72h2.078v1.405h-2.078v5.266l2.453-.594.219 1.266-5.562 1.703q-.235.516-.454.156l-.437-1.562 2.297-.594v-5.64h-1.938v-1.407h1.938v-4.156zm8.094 4.672h2.75v-1.86h-2.75zm-4.016 0h2.75v-1.86h-2.75zm0 3.11h2.75v-1.923h-2.75zm6.766 0v-1.923h-2.75v1.922zM106.844 195.826v-1.875h1.875v1.875zm6.234 0v-1.875h1.86v1.875zm6.203 0v-1.875h1.875v1.875z"/><path fill="#00f" d="m86.28 214.279 1.609.218q-.266 1.657-1.36 2.61-1.078.937-2.671.937-1.985 0-3.188-1.297t-1.203-3.718q0-1.578.516-2.75.515-1.172 1.578-1.75 1.062-.594 2.312-.594 1.578 0 2.578.797t1.282 2.265l-1.594.235q-.235-.969-.813-1.453-.578-.5-1.39-.5-1.235 0-2.016.89t-.781 2.813q0 1.953.75 2.844.75.875 1.953.875.969 0 1.61-.594.656-.594.827-1.828m2.406-1.297q0-2.688 1.484-3.969 1.25-1.078 3.047-1.078 2 0 3.266 1.312 1.265 1.297 1.265 3.61 0 1.86-.562 2.937-.563 1.063-1.64 1.657-1.063.593-2.329.593-2.031 0-3.281-1.297-1.25-1.312-1.25-3.765m1.687 0q0 1.86.797 2.797.813.922 2.047.922 1.219 0 2.031-.922.813-.938.813-2.844 0-1.797-.813-2.719t-2.031-.922q-1.234 0-2.047.922-.797.906-.797 2.766m9.298 4.844v-9.672h1.469v1.375q1.062-1.594 3.078-1.594.875 0 1.61.312.733.313 1.093.829.375.5.515 1.203.094.453.094 1.593v5.954h-1.64v-5.891q0-1-.204-1.484-.187-.5-.671-.797t-1.141-.297q-1.047 0-1.813.672-.75.656-.75 2.515v5.282zm13.954-1.47.234 1.454q-.687.14-1.234.14-.891 0-1.391-.28-.484-.282-.687-.735-.204-.469-.204-1.938v-5.578h-1.203v-1.265h1.203v-2.391l1.625-.984v3.375h1.657v1.265h-1.657v5.672q0 .688.079.89.093.204.28.329.204.11.579.11.266 0 .719-.063m1.605-10v-1.89h1.64v1.89zm0 11.47v-9.672h1.64v9.672zm4.145 0v-9.672h1.468v1.375q1.063-1.594 3.079-1.594.875 0 1.609.312.734.313 1.094.829.375.5.515 1.203.094.453.094 1.593v5.954h-1.64v-5.891q0-1-.204-1.484-.187-.5-.672-.797-.484-.297-1.14-.297-1.047 0-1.813.672-.75.656-.75 2.515v5.282zm16.703 0v-1.422q-1.125 1.64-3.062 1.64-.86 0-1.61-.328-.734-.328-1.093-.828-.36-.5-.5-1.219-.11-.468-.11-1.531v-5.984h1.641v5.359q0 1.281.11 1.734.156.641.656 1.016t1.234.375 1.375-.375q.656-.39.922-1.031.266-.656.266-1.89v-5.188h1.64v9.672zm10.673-3.11 1.688.203q-.407 1.485-1.485 2.313-1.078.812-2.765.812-2.125 0-3.375-1.297-1.235-1.312-1.235-3.671 0-2.454 1.25-3.797 1.266-1.344 3.266-1.344 1.937 0 3.156 1.328 1.234 1.313 1.234 3.703v.438h-7.218q.093 1.593.906 2.453.812.844 2.016.844.906 0 1.546-.47.641-.484 1.016-1.515m-5.39-2.656h5.406q-.11-1.219-.625-1.828-.782-.953-2.032-.953-1.125 0-1.906.765-.765.75-.844 2.016"/><path fill="red" d="M118.938 239.826v-2.563h2.562v2.563zm-6.22 0v-2.563h2.563v2.563zm-6.218 0v-2.563h2.563v2.563z"/><path fill="#fff" fill-rule="evenodd" d="M56.05 4.903h115.905v41.323H56.05z"/><path stroke="#1a1a1a" stroke-linecap="butt" stroke-linejoin="round" d="M56.05 4.903h115.905v41.323H56.05z"/><path fill="#000" d="M73.784 25.281v-1.484h-3.266v1.484zm0 1.406h-3.266v1.563h3.266zm-.235 5.875q.235 0 .235-.234v-2.672h-3.266v4.469h-1.484V22.39h6.234v10.312q0 1.266-1.187 1.266h-1.485l-.375-1.407zm3.86-9.796h1.484v8.53H77.41zm3.797 9.718q.218 0 .218-.218V22.172h1.407q.75.14.078.594v9.875q0 1.25-1.188 1.25h-1.64l-.297-1.407zM79.94 18.016q-.453.812-1.11 1.843h5.641v1.422H67.393V19.86h5.047q-.437-1.03-1.031-1.78l1.328-.735q.813.812 1.64 2.515h2.735q.828-1.406 1.344-2.812l1.703.594q.297.296-.219.375m22.703 6.296v1.641H86.987v-1.64zm7.656-.953q-.156.438-.75 1.782 1.563.734 2.672 1.625.453-1.625.594-3.407zm-1.421 2.89q-1.188 1.782-2.375 2.517l-.891-1.407q3.344-2.672 3.86-7.64H106.8v-1.407h8.687v1.407h-4.531q0 .375-.36 2.218h3.86q.14 9.063-6.907 12.032l-.968-1.563q3.718-1.625 4.968-4.078-.656-.89-2.671-2.078m10.984-8.39h1.422q.594.078.062.453v14.094q0 1.125-.89 1.125h-2.219l-.156-1.422h1.484q.297 0 .297-.297zm-2.375 2q.594.078.078.453v9.797h-1.484V19.86zm13.14 8.688-1.624-1.86v7.438h-1.485v-7.063q-1.125 2.079-2.375 3.188l-.969-1.406q2.516-2.453 3.344-5.563h-2.75v-1.406h2.75v-2.078l-2.312.36-.438-1.485q3.563-.594 5.719-1.406l1.031 1.406q.078.531-.437.234l-2.078.594v2.375h2.672v1.406h-2.672v1.485q1.187.812 2.734 2.453zm6.61-1.703v1.922h3.11v1.421h-3.11v2h4.156v1.407h-10.547v-1.407h4.907v-2h-3.344v-1.421h3.344v-1.922h-3.641v-1.407h8.766v1.407zm1.703-7.282h-4.672v2.672h4.672zm0 4.75v-.656h-4.672v.735h-1.484v-6.235h7.64v6.156zm17.375 5.422q.953 1.782 1.703 1.782.297 0 .375-.438l.14-1.266 1.642.735-.297 1.781q-.235 1.266-1.344 1.266-2.219 0-3.781-3.047-1.485-2.89-1.563-8.156h-9.125V20.75h9.047v-3.406h1.64q.735.14.079.593v2.813h5.187v1.64h-5.187q.297 5.188 1.484 7.344m-2.906 1.344q-4.156.89-8.375 1.625-.156.672-.531.156l-.36-1.86q1.844-.155 3.625-.452v-4.219H144.8v-1.422h7.36v1.422h-2.906v4q1.718-.219 3.937-.672zm3.422-13.36q1.031.516 2 1.407l-1.328 1.11q-.75-.735-1.938-1.407z"/><path fill="#fff" fill-rule="evenodd" d="m30.44 90.601 83.561-26.454 83.56 26.454-83.56 26.454z"/><path stroke="#1a1a1a" stroke-linecap="butt" stroke-linejoin="round" d="m30.44 90.601 83.561-26.454 83.56 26.454-83.56 26.454z"/><path fill="#000" d="M92.923 89.584q3.047-.829 4.016-1.641-.969-.969-1.719-2.156-.734.968-1.484 1.718l-.89-.968q2.233-2.375 2.968-4.532l1.187.157q.532.062 0 .437l-.656 1.344h6.672v1.187h-1.86q-1.03 1.782-2.218 2.735.969.672 4.156 1.265l-.453 1.407q-3.266-.813-4.75-1.844-1.484 1.187-4.156 2zm-.375 7.421q2.969-1.78 4.453-4.015h-3.625v-1.406h3.86V89.88h1.406q.594.063.078.438v1.266h4.375v1.406h-4.234q1.937 2.297 4.828 3.484l-.89 1.422q-2.454-1.422-4.079-3.344v4.453h-1.484v-4.312q-1.422 2.078-3.797 3.5zm0-.75h-1.484V85.052h1.422q.593.078.062.438zm-4.156-6.609q-.516.89-1.25 1.86l-.969-1.188q2.672-3.703 3.563-8.156l1.265.297q.594.14.063.437-.594 2.234-1.406 4.078.812.078.218.594v11.516h-1.484zm9.5-2.437q.969-.829 1.64-2.079H96.19q.453 1.032 1.703 2.079m16.11-2.75q-.079.515-.438 2.078h2.297v-4.078h1.406q.594.062.078.437v3.64h3.64v1.407h-3.64v3.719h5.125v1.406h-5.125v6.016h-1.484v-6.016h-5.5v-1.406h5.5v-3.72h-2.75q-.735 2-1.782 3.188l-1.265-1.187q2.156-2.734 2.375-6.297l1.781.438q.297.296-.219.375m-4.594 14.703h-1.485v-9.22q-.531.97-1.344 1.938l-1.187-1.343q2.828-3.266 3.344-8.235l1.562.297q.516.156 0 .375-.453 2.453-1.047 4.156l.297.079q.219.218-.14.437zm27.906-4.391q.953 1.781 1.703 1.781.297 0 .375-.437l.14-1.266 1.641.735-.297 1.78q-.234 1.266-1.343 1.266-2.22 0-3.782-3.046-1.484-2.891-1.562-8.157h-9.125v-1.64h9.047V82.38h1.64q.735.141.078.594v2.813h5.188v1.64h-5.188q.297 5.188 1.485 7.344m-2.906 1.344q-4.157.89-8.375 1.625-.157.672-.532.156l-.36-1.86q1.845-.156 3.626-.452v-4.22h-2.969v-1.421h7.36v1.422h-2.907v4q1.72-.219 3.938-.672zm3.421-13.36q1.032.516 2 1.407l-1.328 1.109q-.75-.734-1.937-1.406z"/><path fill="#fff" fill-rule="evenodd" d="M56.05 282.756h115.905v44.504H56.05z"/><path stroke="#1a1a1a" stroke-linecap="butt" stroke-linejoin="round" d="M56.05 282.756h115.905v44.504H56.05z"/><path fill="#000" d="M78.456 311.115q-2.297 1.625-6.157 2.375l-.53-1.562q3.562-.453 5.577-1.86-.828-.968-1.422-2.156-1.03 1.485-2.89 2.672l-.89-1.187q2.89-1.844 3.78-4.375l-2.812.156q-.078.516-.375.219l-.516-1.703 2.97-.079 1.405-1.187q-1.703-1.188-3.109-1.86l.813-1.265.734.375q1.265-1.563 2.234-3.406l1.266.734q.656.375-.078.516-.969 1.343-2.297 2.906.734.437 1.406.89 1.328-1.265 2.75-3.265l1.328.812q.297.297-.219.375-1.406 1.922-4.312 4.375l4.453-.296q-.594-.672-1.187-1.266l1.046-.89q1.704 1.265 2.813 3.343l-1.25.969-.594-1.047-4.828.453-.594 1.25h3.703l.235-.36 1.25.735q.531.219-.297.453-1.031 1.922-2.297 3.11 1.938 1.187 4.828 1.64l-.594 1.703q-2.968-.672-5.343-2.297m0-1.859q.812-.812 1.562-1.937h-2.906q.453 1.046 1.344 1.937m-7.203 4.234h-1.485v-7.656q-.672.672-1.562 1.422l-.657-1.484q2.438-1.938 4-4.985l1.344.89q.297.298-.234.376-.516.89-1.406 2.078zm1.343-15.375q-1.343 1.938-3.937 3.72l-.813-1.485q2.22-1.485 3.86-3.563l1.328 1.032q.078.375-.438.296m30.047 5.641v1.64H86.987v-1.64zm7.656-.953q-.156.437-.75 1.781 1.563.735 2.672 1.625.453-1.625.594-3.406zm-1.421 2.89q-1.188 1.782-2.375 2.516l-.891-1.406q3.344-2.672 3.86-7.64H106.8v-1.407h8.687v1.406h-4.531q0 .375-.36 2.219h3.86q.14 9.063-6.907 12.031l-.968-1.562q3.718-1.625 4.968-4.078-.656-.891-2.671-2.078m10.984-8.39h1.422q.594.078.062.453v14.094q0 1.125-.89 1.125h-2.219l-.156-1.422h1.484q.297 0 .297-.297zm-2.375 2q.594.078.078.453v9.797h-1.484v-10.25zm13.14 8.687-1.624-1.859v7.438h-1.485v-7.063q-1.125 2.078-2.375 3.188l-.969-1.407q2.516-2.453 3.344-5.562h-2.75v-1.406h2.75v-2.079l-2.312.36-.438-1.485q3.563-.593 5.719-1.406l1.031 1.406q.078.532-.437.235l-2.078.594v2.375h2.672v1.406h-2.672v1.484q1.187.813 2.734 2.453zm6.61-1.703v1.922h3.11v1.422h-3.11v2h4.156v1.406h-10.547v-1.406h4.907v-2h-3.344v-1.422h3.344v-1.922h-3.641v-1.406h8.766v1.406zm1.703-7.281h-4.672v2.672h4.672zm0 4.75v-.656h-4.672v.734h-1.484V297.6h7.64v6.156zm17.375 5.422q.953 1.781 1.703 1.781.297 0 .375-.437l.14-1.266 1.642.734-.297 1.782q-.235 1.265-1.344 1.265-2.219 0-3.781-3.047-1.485-2.89-1.563-8.156h-9.125v-1.64h9.047v-3.407h1.64q.735.14.079.594v2.813h5.187v1.64h-5.187q.297 5.188 1.484 7.344m-2.906 1.344q-4.156.89-8.375 1.625-.156.672-.531.156l-.36-1.86q1.844-.156 3.625-.453v-4.218H144.8v-1.422h7.36v1.422h-2.906v4q1.718-.22 3.937-.672zm3.422-13.36q1.031.516 2 1.407l-1.328 1.109q-.75-.734-1.938-1.406z"/><path fill="none" d="M114.003 46.226v8.96h.063v8.961"/><path stroke="#1a1a1a" stroke-linecap="butt" stroke-linejoin="round" d="M114.003 46.226v8.96h.063v2.961"/><path fill="#1a1a1a" fill-rule="evenodd" stroke="#1a1a1a" stroke-linecap="butt" d="m112.414 58.147 1.652 4.538 1.651-4.538z"/><path fill="none" d="M114.001 117.055v8.96h.063v8.961"/><path stroke="#1a1a1a" stroke-linecap="butt" stroke-linejoin="round" d="M114.001 117.055v8.96h.063v2.961"/><path fill="#1a1a1a" fill-rule="evenodd" stroke="#1a1a1a" stroke-linecap="butt" d="m112.413 128.976 1.651 4.538 1.652-4.538z"/><path fill="none" d="M197.562 90.601h25v214.394h-50.607"/><path stroke="#1a1a1a" stroke-linecap="butt" stroke-linejoin="round" d="M197.562 90.601h25v214.394h-44.607"/><path fill="#1a1a1a" fill-rule="evenodd" stroke="#1a1a1a" stroke-linecap="butt" d="m177.955 303.343-4.538 1.652 4.538 1.651z"/><path fill="none" d="M73.685 214.192v-.176H5.441V90.601h25"/><path stroke="#00f" stroke-linecap="butt" stroke-linejoin="round" stroke-width="3" d="M73.685 214.192v-.176H5.441V90.601h7"/><path fill="#00f" fill-rule="evenodd" stroke="#00f" stroke-linecap="butt" stroke-width="3" d="m12.44 95.556 13.615-4.955-13.614-4.955z"/><path fill="none" d="M125.753 105.811h64.662v40.41h-64.662z"/><path fill="#595959" d="M139.253 131.451v-10.937h-4.093v-1.47h9.828v1.47h-4.094v10.937zm6.567 0v-8.984h1.375v1.359q.515-.953.953-1.25.453-.312.984-.312.782 0 1.563.484l-.516 1.422q-.562-.328-1.125-.328-.5 0-.89.297-.391.296-.563.828-.266.812-.266 1.78v4.704zm11.676 0v-1.312q-1.046 1.515-2.843 1.515-.797 0-1.5-.297-.688-.312-1.016-.765-.328-.47-.469-1.141-.093-.437-.093-1.422v-5.562h1.515v4.984q0 1.188.094 1.61.156.593.61.937.468.344 1.156.344t1.28-.344q.61-.36.86-.953.25-.61.25-1.766v-4.812h1.516v8.984zm9.903-2.89 1.563.187q-.36 1.39-1.375 2.156-1 .75-2.563.75-1.984 0-3.14-1.203-1.141-1.219-1.141-3.422 0-2.265 1.156-3.515 1.172-1.25 3.031-1.25 1.813 0 2.953 1.234 1.141 1.219 1.141 3.437 0 .141-.016.407h-6.703q.094 1.484.844 2.28.75.782 1.875.782.844 0 1.438-.437.593-.438.937-1.407m-5-2.47h5.016q-.11-1.124-.578-1.702-.735-.875-1.891-.875-1.047 0-1.766.703-.703.703-.78 1.875"/><path fill="none" d="M185.375 60.787h64.662v40.41h-64.662z"/><path fill="#595959" d="M195.797 86.427V74.021h8.375v1.469h-6.734v3.844h5.828v1.453h-5.828v5.64zm16.163-1.109q-.844.719-1.625 1.016t-1.672.297q-1.484 0-2.281-.72-.797-.734-.797-1.859 0-.656.297-1.203.312-.547.797-.875.484-.328 1.094-.5.437-.11 1.343-.218 1.844-.22 2.72-.532.015-.312.015-.39 0-.938-.438-1.313-.578-.515-1.734-.515-1.078 0-1.594.375-.5.375-.75 1.328l-1.484-.203q.203-.954.656-1.532.469-.593 1.344-.906.89-.328 2.047-.328 1.156 0 1.875.281.718.266 1.046.672.344.406.485 1.031.078.39.078 1.407v2.03q0 2.126.094 2.688.093.563.39 1.078h-1.593q-.235-.468-.313-1.109m-.125-3.406q-.828.344-2.484.578-.938.14-1.328.312t-.61.5q-.203.313-.203.72 0 .609.453 1.015.469.406 1.36.406.875 0 1.562-.39.688-.391 1.016-1.047.234-.516.234-1.532zm3.872 4.515V74.021h1.515v12.406zm3.271-2.687 1.516-.234q.125.906.703 1.39.578.485 1.61.485 1.062 0 1.562-.422.515-.438.515-1.016 0-.516-.453-.812-.312-.204-1.562-.516-1.672-.422-2.328-.719-.641-.312-.985-.86-.328-.546-.328-1.202 0-.61.281-1.11.282-.515.75-.86.36-.265.97-.437.609-.187 1.312-.187 1.062 0 1.859.312.797.297 1.172.829.39.515.531 1.375l-1.484.203q-.11-.688-.594-1.078t-1.375-.391q-1.047 0-1.5.344-.437.343-.437.812 0 .297.171.531.188.25.594.407.219.093 1.344.39 1.61.438 2.25.719.64.266 1 .797.375.516.375 1.297 0 .765-.453 1.437-.438.672-1.281 1.047-.829.36-1.891.36-1.75 0-2.672-.72-.922-.734-1.172-2.171m15.43-.203 1.562.187q-.359 1.39-1.375 2.157-1 .75-2.562.75-1.985 0-3.14-1.204-1.141-1.218-1.141-3.421 0-2.266 1.156-3.516 1.172-1.25 3.031-1.25 1.813 0 2.953 1.234 1.14 1.219 1.14 3.438 0 .14-.015.406h-6.703q.094 1.484.844 2.281.75.782 1.875.782.844 0 1.437-.438.594-.437.938-1.406m-5-2.469h5.015q-.109-1.125-.578-1.703-.734-.875-1.89-.875-1.047 0-1.766.703-.703.703-.781 1.875"/><path fill="none" d="M114 264.835v25H5.44V90.597h25"/><path stroke="#1a1a1a" stroke-dasharray="1.0,3.0" stroke-linecap="butt" stroke-linejoin="round" d="M114 264.835v25H5.44V90.597h19"/><path fill="#1a1a1a" fill-rule="evenodd" stroke="#1a1a1a" stroke-linecap="butt" d="m24.44 92.25 4.539-1.652-4.538-1.651z"/></g></svg>