<svg xmlns="http://www.w3.org/2000/svg" fill="none" stroke-linecap="square" stroke-miterlimit="10" viewBox="0 0 457.756 234.381"><clipPath id="a"><path d="M0 0h457.756v234.38H0z"/></clipPath><g clip-path="url(#a)"><path fill="none" d="M0 0h457.756v234.38H0z"/><path fill="none" d="M7.446 4.91h166.772v45.513H7.446z"/><path stroke="#1a1a1a" stroke-linecap="butt" stroke-linejoin="round" d="M7.446 4.91h166.772v45.513H7.446z"/><path fill="#000" d="M50.613 27.384v-1.485h-3.265v1.485zm0 1.406h-3.265v1.562h3.265zm-.234 5.875q.234 0 .234-.235V31.76h-3.265v4.468h-1.485V24.493h6.235v10.312q0 1.266-1.188 1.266h-1.484l-.375-1.406zm3.86-9.797h1.484v8.531h-1.485zm3.796 9.719q.219 0 .219-.22V24.275h1.406q.75.14.078.594v9.875q0 1.25-1.187 1.25h-1.64l-.298-1.406zm-1.265-14.47q-.454.813-1.11 1.845h5.64v1.422H44.224v-1.422h5.047q-.438-1.032-1.032-1.782l1.328-.734q.813.813 1.641 2.516h2.734q.829-1.407 1.344-2.813l1.703.594q.297.297-.218.375m22.703 6.298v1.64H63.816v-1.64zm7.656-.953q-.156.437-.75 1.78 1.562.735 2.672 1.626.453-1.625.594-3.406zm-1.422 2.89q-1.187 1.782-2.375 2.516l-.89-1.406q3.343-2.672 3.859-7.641h-2.672v-1.406h8.687v1.406h-4.53q0 .375-.36 2.219h3.86q.14 9.062-6.907 12.031l-.969-1.562q3.719-1.625 4.969-4.079-.656-.89-2.672-2.078m10.984-8.39h1.422q.594.078.063.453v14.094q0 1.125-.89 1.125h-2.22l-.156-1.422h1.485q.296 0 .296-.297zm-2.375 2q.594.078.079.453v9.797H92.91v-10.25zm13.141 8.687-1.625-1.86v7.438h-1.484v-7.062q-1.125 2.078-2.375 3.187l-.97-1.406q2.517-2.453 3.345-5.562h-2.75v-1.407h2.75V21.9l-2.313.36-.437-1.485q3.562-.594 5.718-1.406l1.032 1.406q.078.531-.438.235l-2.078.593v2.375h2.672v1.407h-2.672v1.484q1.188.812 2.734 2.453zm6.61-1.703v1.922h3.109v1.422h-3.11v2h4.157v1.406h-10.547V34.29h4.906v-2h-3.344v-1.422h3.344v-1.922h-3.64V27.54h8.765v1.406zm1.703-7.281h-4.672v2.672h4.672zm0 4.75v-.656h-4.672v.734h-1.485v-6.234h7.64v6.156zm17.375 5.422q.953 1.78 1.703 1.78.297 0 .375-.437l.14-1.265 1.64.734-.296 1.781q-.234 1.266-1.344 1.266-2.218 0-3.781-3.047-1.484-2.89-1.562-8.156h-9.125v-1.64h9.046v-3.407h1.641q.734.14.078.594v2.812h5.188v1.64h-5.188q.297 5.188 1.485 7.345m-2.907 1.343q-4.156.891-8.375 1.625-.156.672-.531.157l-.36-1.86q1.844-.156 3.626-.453V28.43h-2.97V27.01h7.36v1.421h-2.906v4q1.719-.218 3.938-.671zm3.422-13.359q1.031.516 2 1.406l-1.328 1.11q-.75-.735-1.937-1.407z"/><path fill="none" d="M259.963 94.445h166.772v45.512H259.963z"/><path stroke="#1a1a1a" stroke-linecap="butt" stroke-linejoin="round" d="M259.963 94.445h166.772v45.512H259.963z"/><path fill="#00f" d="m311.583 120.34-1.328-1.516v6.937h-2.078v-6.187q-.594 1.094-2.125 2.453l-1.312-1.875q2.64-2.578 3.343-5.234h-2.656v-2h2.75v-1.438l-2.234.344-.594-2.047q3.86-.64 6.203-1.531l1.203 1.656q.188 1.203-.765.656l-1.735.5v1.86h2.672v2h-2.672v1.03q1.078.735 2.828 2.595zm6.907-1.86v1.328h3.11v2.016h-3.11v1.406h4.156v2h-11.14v-2h4.906v-1.406h-3.344v-2.016h3.344v-1.328h-3.641v-2h9.36v2zm1.11-7.281h-4.079v2.078h4.078zm0 4.75v-.656h-4.079v.734h-2.078v-6.828h8.234v6.75zm18.53 4.984q.86 1.625 1.438 1.625.047 0 .078-.187l.187-1.656 2.22 1-.329 2q-.281 1.515-1.64 1.515-2.407 0-4.047-3.203-1.516-2.953-1.594-8h-9.125v-2.234h9.047v-3.407h1.968q1.454.282.344 1.047v2.36h5.188v2.234h-5.172q.281 4.813 1.437 6.906m-2.828 1.719q-4.437.953-8.469 1.656-.265 1.11-1.062.016l-.438-2.25q2.172-.188 3.688-.438v-3.671h-2.969v-2.016h7.953v2.016H331.1v3.359q1.375-.172 3.89-.688zm3.031-13.953q1.25.625 2.5 1.781l-1.796 1.5q-.922-.906-2.438-1.765zm9.25 14.078h14.25v2.016h-14.25v.734h-2.078v-16.25h16.547v2h-14.469zm10.47-6.375h-7.579v-4.61h7.578zm-2.079-1.781v-1.047h-3.422v1.047zm4.453 7.562h-1.86v-.593h-1.937v.828h-1.843v-5.578h5.64zm-1.86-2.375v-1.187h-1.937v1.187zm-6.452 2.453v-.671h-1.938v.89h-1.86v-5.64h5.641v5.421zm0-2.453v-1.187h-1.938v1.187zm27.453 2.688 1.937.437-.39 1.344q-.266 1.11-1.39 1.11h-3.204q-1.484 0-1.484-1.782v-5.281h-.735v.375q0 5.344-6.047 7.047l-.64-1.906q4.828-1.297 4.828-5.22v-.296h-1.922v-7.938h3.281l.813-2.328 1.984.266q.547.547-.078.953l-.672 1.11h4.531v7.937h-3.484v2.75h-.234l.687-2.953 1.64.39q.548.547-.062.907l-.547 1.515.61-.093-.563-1.188 1.547-.656q1.047 1.562 1.672 3.312l-1.813.625-.171-.484-2.766.437v.72h2.156q.266 0 .297-.22zm-11.563-13.735q1.375.141.36.891v3.266h2.078v2h-2.078v4.593l2.39-.578.328 1.828-5.687 1.75q-.422.907-.953.032l-.531-1.907 2.375-.609v-5.11h-1.938v-2h1.938v-4.156zm8.375 4.672h2.157v-1.265h-2.157zm-4.015 0h2.156v-1.265h-2.156zm0 3.11h2.156v-1.328h-2.156zm6.172 0v-1.328h-2.157v1.328z"/><path fill="none" d="M7.446 183.982h166.772v45.511H7.446z"/><path stroke="#1a1a1a" stroke-linecap="butt" stroke-linejoin="round" d="M7.446 183.982h166.772v45.511H7.446z"/><path fill="#000" d="M55.285 212.845q-2.297 1.625-6.156 2.375l-.531-1.562q3.562-.454 5.578-1.86-.828-.969-1.422-2.156-1.031 1.484-2.89 2.672l-.891-1.188q2.89-1.843 3.78-4.375l-2.812.157q-.078.515-.375.218l-.515-1.703 2.969-.078 1.406-1.187q-1.703-1.188-3.11-1.86l.813-1.265.734.375q1.266-1.563 2.235-3.407l1.265.735q.657.375-.078.515-.969 1.344-2.297 2.907.735.437 1.407.89 1.328-1.265 2.75-3.265l1.328.812q.297.297-.22.375-1.405 1.922-4.312 4.375l4.454-.297q-.594-.672-1.188-1.265l1.047-.891q1.703 1.266 2.812 3.344l-1.25.968-.593-1.046-4.828.453-.594 1.25h3.703l.234-.36 1.25.735q.532.218-.297.453-1.03 1.922-2.296 3.11 1.937 1.187 4.828 1.64l-.594 1.703q-2.969-.672-5.344-2.297m0-1.86q.813-.812 1.563-1.937H53.94q.454 1.047 1.344 1.938m-7.203 4.235h-1.484v-7.656q-.672.672-1.563 1.422l-.656-1.485q2.437-1.937 4-4.984l1.344.89q.297.297-.235.376-.515.89-1.406 2.078zm1.344-15.375q-1.344 1.938-3.938 3.719l-.812-1.485q2.219-1.484 3.86-3.562l1.327 1.031q.078.375-.437.297m30.047 5.64v1.641H63.816v-1.64zm7.656-.952q-.156.437-.75 1.78 1.562.735 2.672 1.626.453-1.625.594-3.406zm-1.422 2.89q-1.187 1.781-2.375 2.516l-.89-1.406q3.343-2.672 3.859-7.641h-2.672v-1.406h8.687v1.406h-4.53q0 .375-.36 2.219h3.86q.14 9.062-6.907 12.03l-.969-1.562q3.719-1.625 4.969-4.078-.656-.89-2.672-2.078m10.984-8.39h1.422q.594.078.063.453v14.093q0 1.125-.89 1.125h-2.22l-.156-1.421h1.485q.296 0 .296-.297zm-2.375 2q.594.078.079.453v9.797H92.91v-10.25zm13.141 8.687-1.625-1.86v7.438h-1.484v-7.062q-1.125 2.078-2.375 3.187l-.97-1.406q2.517-2.453 3.345-5.563h-2.75v-1.406h2.75v-2.078l-2.313.36-.437-1.485q3.562-.594 5.718-1.406l1.032 1.406q.078.531-.438.234l-2.078.594v2.375h2.672v1.406h-2.672v1.485q1.188.812 2.734 2.453zm6.61-1.703v1.922h3.109v1.422h-3.11v2h4.157v1.406h-10.547v-1.406h4.906v-2h-3.344v-1.422h3.344v-1.922h-3.64v-1.406h8.765v1.406zm1.703-7.281h-4.672v2.672h4.672zm0 4.75v-.657h-4.672v.735h-1.485v-6.235h7.64v6.157zm17.375 5.422q.953 1.78 1.703 1.78.297 0 .375-.437l.14-1.265 1.64.734-.296 1.781q-.234 1.266-1.344 1.266-2.218 0-3.781-3.047-1.484-2.89-1.562-8.156h-9.125v-1.64h9.046v-3.407h1.641q.734.14.078.594v2.812h5.188v1.64h-5.188q.297 5.188 1.485 7.345m-2.907 1.343q-4.156.89-8.375 1.625-.156.672-.531.157l-.36-1.86q1.844-.156 3.626-.453v-4.219h-2.97v-1.422h7.36v1.422h-2.906v4q1.719-.218 3.938-.672zm3.422-13.36q1.031.517 2 1.407l-1.328 1.11q-.75-.735-1.937-1.407z"/><path fill="none" d="m7.446 117.202 83.386-29.845 83.386 29.845-83.386 29.845z"/><path stroke="#1a1a1a" stroke-linecap="butt" stroke-linejoin="round" d="m7.446 117.202 83.386-29.845 83.386 29.845-83.386 29.845z"/><path fill="#38761d" d="M77.535 114.997q-.078.25-.562 1.344 1.328.625 2.109 1.25.328-1.156.438-2.594zm-1.531 2.984q-1.063 1.61-2.563 2.532l-1.187-1.875q3.453-2.766 3.922-7.282h-2.64v-2h9.28v2h-4.53q0 .11-.298 1.625h3.797q.14 9.563-7.328 12.704l-1.281-2.079q3.937-1.718 5.062-3.906-.515-.703-2.234-1.719m10.594-9.078h1.734q1.375.188.344.907v13.937q0 1.422-1.188 1.422h-2.484l-.219-2.016h1.813zm-2.063 2q1.36.172.36.907v9.937h-2.079v-10.844zm6.828 9.125q2.953-1.062 4.297-2.359H91.8v-2.016h2.079v-7.234l1.437.469q1.157-.188 2.516-.75l.563 1.562q.343 1.125-.782.563-.875.125-1.656.234v.484h2.516v1.782h-2.516v.593h2.516v1.782h-2.516v.515h2.594v-2.89h1.5q1.36.172.36.906v1.984h.437v-2.968H98.41v-4.594h1.5q1.39.187.344.89v.297h2.531v1.782h-2.531v.14h2.453v4.453h2.453v-.515h-2.453v-1.782h2.453v-.593h-2.453v-1.782h2.453v-.593h-2.453v-1.782h4.531v7.047h2.078v2.016h-4.015q1.094.766 4.344 1.64l-.829 2.047q-4.203-1.203-6.39-3.687h-3.89q-2.704 2.984-6.141 4.14zm8.157 3.422H92.69v-2h6.829v-.453h-3.266v-2h3.266v-1.406h1.718q1.375.187.36.89v.516h3.406v2h-3.406v.453h6.968v2h-6.968v2.531H99.52z"/><path fill="none" d="M90.832 50.423V68.89h.063v18.477"/><path stroke="#1a1a1a" stroke-linecap="butt" stroke-linejoin="round" d="M90.832 50.423V68.89h.063v12.477"/><path fill="#1a1a1a" fill-rule="evenodd" stroke="#1a1a1a" stroke-linecap="butt" d="m89.243 81.367 1.652 4.539 1.652-4.539z"/><path fill="none" d="M174.218 117.202h42.873v.063h42.86"/><path stroke="#1a1a1a" stroke-linecap="butt" stroke-linejoin="round" d="M174.218 117.202h42.873v.063h36.86"/><path fill="#1a1a1a" fill-rule="evenodd" stroke="#1a1a1a" stroke-linecap="butt" d="m253.95 118.917 4.538-1.652-4.538-1.652z"/><path fill="none" d="M426.735 117.2h25.001V62.358H90.83v24.986"/><path stroke="#1a1a1a" stroke-linecap="butt" stroke-linejoin="round" d="M426.735 117.2h25.001V62.358H90.83v18.986"/><path fill="#1a1a1a" fill-rule="evenodd" stroke="#1a1a1a" stroke-linecap="butt" d="m89.178 81.343 1.651 4.538 1.652-4.538z"/><path fill="none" d="M90.832 147.047v18.468h.063v18.477"/><path stroke="#1a1a1a" stroke-linecap="butt" stroke-linejoin="round" d="M90.832 147.047v18.468h.063v12.477"/><path fill="#1a1a1a" fill-rule="evenodd" stroke="#1a1a1a" stroke-linecap="butt" d="m89.243 177.992 1.652 4.538 1.652-4.538z"/><path fill="none" d="M7.446 140.895h85.732v40.41H7.446z"/><path fill="#595959" d="M53.1 153.457q1.391.719 2.391 1.719l-.922 1.265q-1.062-1-2.328-1.734zm-.734 4.047q1.266.656 2.266 1.719l-.86 1.265q-1-1-2.203-1.719zm-1.188 9.094q1.532-2.188 2.782-4.844l1.14.86q-1.406 2.859-2.468 4.718.078.672-.266.328zm13.938-6.235q.672.266-.188.531-1.265 2.188-3 3.72 1.532.984 4.329 1.39l-.61 1.594q-3.11-.797-4.781-2-2.313 1.609-4.781 2.328l-.719-1.328q2.578-.735 4.312-1.922-1.265-1.203-2.062-3.328h-1.125v-1.25h7.437l.266-.344zm-6.031.985q.656 1.734 1.718 2.53 1.329-1.062 2.063-2.53zm5.906-6.829q.469.329-.14.454l-.72 2.39q-.609 1.938-2.062 1.938h-1.531l-.266-1.266h1.469q.719 0 .984-.86l.47-1.593H59.35q-.875 2.453-3.53 4.516l-.798-1.204q2.735-2.187 3.719-5.843l1.266.203q.593.203-.063.469l-.203.593h3.984l.266-.328zm11.219 3.25q2.125-1.53 3.062-2.39h-9.765v-1.266H80.46l.265-.265 1.266 1.265q.125.266-.328.266-1.86 1.719-5.125 3.719v7.578q0 .922-.922.922h-2.063l-.265-1.47h1.469q.265 0 .265-.265v-8.297z"/><path fill="none" d="M165.995 80.871h85.732v40.41h-85.732z"/><path fill="#595959" d="M179.385 99.402v5.64q1.25 1.407 4.313 1.407h7.562l-.39 1.266h-7.438q-2.797 0-4.656-1.672-.797.875-1.984 1.734l-.86-1.469q1.328-.531 2.125-1.125v-4.515h-2.125v-1.266zm6.375 3.328q.594.39 1.188.656l1.734-1.39h-2.922zm-7.968-9.297q1.125.719 1.922 1.719l-1.063 1.328q-.86-1.062-1.922-1.86zm10.218 6.438h-5.375v1.328h5.375zm2.391 5.906q-2.781-.531-4.64-1.86v2.126h-1.141v-2.657q-1.86 1.329-3.906 2l-.61-1.203q3.188-.734 4.453-2.187h-3.047v-2.922h7.625v2.922h-.328l.86.734q.078.328-.328.188l-1.532.937q1 .328 3 .656zm.406-8.703v1.062h-10.89v-1.062zm-7.25-3.188h-1.515v1.532h1.515zm1.14 0v1.532h1.25v-1.532zm2.392 0v1.532h1.515v-1.532zm2.656-.796v3.125H180.9V93.09zm3.187 8.906q3.907-2.188 5.047-5.64h-4.453V95.09h4.781q.203-.797.328-2.391l1.735.328q.265.266-.203.328l-.328 1.735h7.968v1.265h-8.234q-.266.922-.61 1.516h6.579v8.844q0 1.062-1.063 1.062h-1.531l-.328-1.266h1.328q.266 0 .266-.265v-1.797h-5.782v3.531h-1.328v-7.312q-1.594 1.656-3.375 2.718zm5.5-.266v1.453h5.782v-1.453zm5.782-1.265v-1.329h-5.782v1.329z"/></g></svg>