<svg xmlns="http://www.w3.org/2000/svg" fill="none" stroke-linecap="square" stroke-miterlimit="10" viewBox="0 0 620.488 312.819"><clipPath id="a"><path d="M0 0h620.488v312.819H0z"/></clipPath><g clip-path="url(#a)"><path fill="none" d="M0 0h620.488v312.819H0z"/><path fill="none" d="M6.832 6.793h166.772v45.511H6.832z"/><path stroke="#1a1a1a" stroke-linecap="butt" stroke-linejoin="round" d="M6.832 6.793h166.772v45.511H6.832z"/><path fill="#000" d="M50 29.265v-1.484h-3.267v1.484zm0 1.407h-3.267v1.562H50zm-.235 5.875q.234 0 .234-.235V33.64h-3.266v4.47H45.25V26.374h6.234v10.312q0 1.266-1.187 1.266h-1.484l-.375-1.406zm3.86-9.797h1.483v8.531h-1.484zm3.796 9.719q.219 0 .219-.22V26.157h1.406q.75.14.078.594v9.875q0 1.25-1.187 1.25h-1.641l-.297-1.406zm-1.266-14.47q-.453.813-1.109 1.845h5.64v1.421H43.609v-1.421h5.047q-.437-1.032-1.03-1.782l1.327-.734q.813.812 1.64 2.516h2.735q.828-1.407 1.344-2.813l1.703.594q.297.297-.219.375m22.703 6.298v1.64H63.202v-1.64zm7.657-.953q-.157.437-.75 1.78 1.562.735 2.672 1.626.453-1.625.593-3.406zm-1.422 2.89q-1.188 1.781-2.375 2.516l-.89-1.406q3.343-2.672 3.859-7.641h-2.672v-1.406h8.687v1.406h-4.531q0 .375-.36 2.219h3.86q.14 9.062-6.906 12.03l-.969-1.562q3.719-1.625 4.969-4.078-.657-.89-2.672-2.078m10.984-8.39H97.5q.594.078.063.453V36.39q0 1.125-.891 1.125h-2.219l-.156-1.421h1.484q.297 0 .297-.297zm-2.375 2q.594.078.078.453v9.797h-1.484v-10.25zm13.14 8.687-1.624-1.86v7.438h-1.485v-7.062q-1.125 2.078-2.375 3.187l-.968-1.406q2.515-2.453 3.343-5.563h-2.75V25.86h2.75v-2.078l-2.312.36-.438-1.485q3.563-.594 5.72-1.406l1.03 1.406q.079.531-.437.234l-2.078.594v2.375h2.672v1.406h-2.672v1.485q1.187.812 2.734 2.453zm6.61-1.703v1.922h3.11v1.422h-3.11v2h4.156v1.406h-10.546v-1.406h4.906v-2h-3.344V32.75h3.344v-1.922h-3.64v-1.406h8.765v1.406zm1.703-7.281h-4.672v2.672h4.672zm0 4.75v-.657h-4.672v.735H109V22.14h7.64v6.157zm17.375 5.422q.953 1.78 1.703 1.78.297 0 .375-.437l.141-1.265 1.64.734-.296 1.781q-.235 1.266-1.344 1.266-2.219 0-3.781-3.047-1.485-2.89-1.563-8.156h-9.125v-1.64h9.047v-3.407h1.64q.735.14.079.594v2.812h5.187v1.64h-5.187q.297 5.188 1.484 7.345m-2.906 1.343q-4.156.89-8.375 1.625-.156.672-.531.157l-.36-1.86q1.844-.156 3.625-.453v-4.219h-2.968V28.89h7.36v1.422h-2.907v4q1.719-.218 3.937-.672zm3.422-13.36q1.031.517 2 1.407l-1.328 1.11q-.75-.735-1.938-1.407z"/><path fill="none" d="M227.35 171.715h166.77v45.512H227.35z"/><path stroke="#1a1a1a" stroke-linecap="butt" stroke-linejoin="round" d="M227.35 171.715h166.77v45.512H227.35z"/><path fill="#000" d="m270.36 197.454-1.625-1.86v7.438h-1.484v-7.063q-1.125 2.078-2.375 3.188l-.97-1.406q2.516-2.454 3.345-5.563h-2.75v-1.406h2.75v-2.078l-2.313.359-.437-1.484q3.562-.594 5.718-1.407l1.032 1.407q.078.53-.438.234l-2.078.594v2.375h2.672v1.406h-2.672v1.484q1.187.813 2.734 2.454zm6.61-1.703v1.921h3.109v1.422h-3.11v2h4.157v1.407h-10.547v-1.407h4.906v-2h-3.344v-1.422h3.344v-1.921h-3.64v-1.407h8.765v1.407zm1.702-7.282h-4.671v2.672h4.671zm0 4.75v-.656h-4.671v.734h-1.485v-6.234h7.64v6.156zm17.375 5.422q.954 1.781 1.704 1.781.296 0 .375-.437l.14-1.266 1.64.735-.296 1.78q-.234 1.267-1.344 1.267-2.219 0-3.781-3.047-1.484-2.891-1.563-8.157h-9.125v-1.64h9.047v-3.406h1.64q.735.14.079.593v2.813h5.188v1.64h-5.188q.297 5.188 1.484 7.344m-2.906 1.344q-4.156.89-8.375 1.625-.156.672-.531.156l-.36-1.86q1.844-.155 3.626-.452v-4.22h-2.97v-1.421h7.36v1.422h-2.906v4q1.719-.219 3.937-.672zm3.422-13.36q1.031.516 2 1.407l-1.328 1.11q-.75-.735-1.938-1.407zm8.313 14.016h14.25v1.422h-14.25v.734h-1.485v-15.656h15.953v1.406h-14.468zm10.468-6.969h-6.984v-4.015h6.984zm-1.484-1.187v-1.64h-4.016v1.64zm3.86 6.969h-1.266v-.594h-2.532v.828h-1.25v-4.984h5.047zm-1.266-1.782v-1.78h-2.532v1.78zm-6.453 1.86v-.672h-2.532v.89h-1.265v-5.046h5.047v4.828zm0-1.86v-1.78h-2.532v1.78zm26.78 2.75 1.345.297-.297 1.047q-.22.89-1.11.89h-3.203q-1.187 0-1.187-1.484v-5.578H331v.672q0 5.125-5.563 6.688l-.453-1.344q4.75-1.266 4.75-5.422v-.594h-1.922v-7.343h3.188l.812-2.297 1.64.218q.22.22-.156.454l-.968 1.625h4.75v7.343h-3.485v3.344h.297l.672-2.89 1.266.296q.218.219-.157.438l-.734 2.078 1.484-.219-.593-1.265 1.03-.438q.892 1.328 1.407 2.75l-1.25.438-.156-.438-3.266.516v.968q0 .297.453.297h2q.516 0 .594-.453zm-11.796-13.796q.594.062.078.437v3.719h2.078v1.406h-2.078v5.266l2.453-.594.219 1.266-5.563 1.703q-.234.515-.453.156l-.437-1.563 2.297-.593v-5.641h-1.938v-1.406h1.938v-4.156zm8.094 4.671h2.75v-1.859h-2.75zm-4.016 0h2.75v-1.859h-2.75zm0 3.11h2.75v-1.922h-2.75zm6.766 0v-1.922h-2.75v1.922zm19-5.781v1.625h-12.172v-1.625zm1.843 10.093v1.625h-16.03v-1.625z"/><path fill="none" d="M227.35 261.252h166.77v45.512H227.35z"/><path stroke="#1a1a1a" stroke-linecap="butt" stroke-linejoin="round" d="M227.35 261.252h166.77v45.512H227.35z"/><path fill="#000" d="M275.188 290.115q-2.297 1.625-6.156 2.375l-.531-1.562q3.562-.453 5.578-1.86-.828-.968-1.422-2.156-1.031 1.485-2.89 2.672l-.891-1.187q2.89-1.844 3.78-4.375l-2.812.156q-.078.516-.375.219l-.515-1.703 2.968-.079 1.407-1.187q-1.703-1.188-3.11-1.86l.813-1.265.734.375q1.266-1.563 2.235-3.406l1.265.734q.656.375-.078.516-.969 1.343-2.297 2.906.735.437 1.406.89 1.329-1.265 2.75-3.265l1.329.812q.296.297-.22.375-1.405 1.922-4.312 4.375l4.453-.296q-.593-.672-1.187-1.266l1.047-.89q1.703 1.265 2.812 3.343l-1.25.969-.593-1.047-4.829.453-.593 1.25h3.703l.234-.36 1.25.735q.531.219-.297.453-1.031 1.922-2.297 3.11 1.938 1.187 4.829 1.64l-.594 1.703q-2.969-.672-5.344-2.297m0-1.859q.813-.812 1.563-1.937h-2.907q.453 1.046 1.344 1.937m-7.203 4.234H266.5v-7.656q-.672.672-1.563 1.422l-.656-1.484q2.437-1.938 4-4.985l1.344.89q.296.298-.235.376-.515.89-1.406 2.078zm1.344-15.375q-1.344 1.938-3.938 3.72l-.812-1.485q2.218-1.485 3.859-3.563l1.328 1.032q.078.375-.437.296m30.047 5.641v1.64h-15.657v-1.64zm7.656-.953q-.156.437-.75 1.781 1.562.735 2.672 1.625.453-1.625.593-3.406zm-1.422 2.89q-1.188 1.782-2.375 2.516l-.89-1.406q3.343-2.672 3.859-7.64h-2.672v-1.407h8.687v1.406h-4.531q0 .375-.36 2.219h3.86q.14 9.063-6.906 12.031l-.969-1.562q3.719-1.625 4.969-4.078-.656-.891-2.672-2.078m10.984-8.39h1.422q.594.078.063.453v14.094q0 1.125-.891 1.125h-2.219l-.156-1.422h1.484q.297 0 .297-.297zm-2.375 2q.594.078.078.453v9.797h-1.484v-10.25zm13.14 8.687-1.624-1.859v7.438h-1.484v-7.063q-1.125 2.078-2.375 3.188l-.97-1.407q2.516-2.453 3.345-5.562h-2.75v-1.406h2.75v-2.079l-2.313.36-.437-1.485q3.562-.593 5.718-1.406l1.032 1.406q.078.532-.438.235l-2.078.594v2.375h2.672v1.406h-2.672v1.484q1.187.813 2.734 2.453zm6.61-1.703v1.922h3.11v1.422h-3.11v2h4.157v1.406h-10.547v-1.406h4.906v-2h-3.344v-1.422h3.344v-1.922h-3.64v-1.406h8.765v1.406zm1.703-7.281h-4.671v2.672h4.671zm0 4.75v-.656h-4.671v.734h-1.485V276.6h7.64v6.156zm17.375 5.422q.954 1.781 1.704 1.781.296 0 .375-.437l.14-1.266 1.64.734-.296 1.782q-.234 1.265-1.344 1.265-2.219 0-3.781-3.047-1.484-2.89-1.563-8.156h-9.125v-1.64h9.047v-3.407h1.64q.735.14.079.594v2.813h5.188v1.64h-5.188q.297 5.188 1.484 7.344m-2.906 1.344q-4.156.89-8.375 1.625-.156.672-.531.156l-.36-1.86q1.844-.156 3.626-.453v-4.218h-2.97v-1.422h7.36v1.422h-2.906v4q1.719-.22 3.937-.672zm3.422-13.36q1.031.516 2 1.407l-1.328 1.109q-.75-.734-1.938-1.406z"/><path fill="none" d="m6.832 112.026 83.386-29.845 83.386 29.845-83.386 29.845z"/><path stroke="#1a1a1a" stroke-linecap="butt" stroke-linejoin="round" d="m6.832 112.026 83.386-29.845 83.386 29.845-83.386 29.845z"/><path fill="#000" d="M64.468 111.199q2.562-.688 3.375-1.375-.813-.813-1.438-1.813-.625.813-1.25 1.438l-.75-.813q1.875-2 2.5-3.812l1 .125q.438.062 0 .375l-.562 1.125h5.625v1h-1.563q-.875 1.5-1.875 2.312.813.563 3.5 1.063l-.375 1.187q-2.75-.687-4-1.562-1.25 1-3.5 1.687zm-.313 6.25q2.5-1.5 3.75-3.375h-3.062v-1.188h3.25v-1.437h1.187q.5.062.063.375v1.062h3.687v1.188h-3.562q1.625 1.937 4.062 2.937l-.75 1.188q-2.062-1.188-3.437-2.813v3.75h-1.25v-3.625q-1.188 1.75-3.188 2.938zm0-.625h-1.25v-9.438h1.188q.5.063.062.375zm-3.5-5.563q-.437.75-1.062 1.563l-.813-1q2.25-3.125 3-6.875l1.063.25q.5.125.062.375-.5 1.875-1.187 3.437.687.063.187.5v9.688h-1.25zm8-2.062q.813-.688 1.375-1.75h-2.812q.375.875 1.437 1.75m13.563-2.313q-.063.438-.375 1.75h1.937V105.2h1.188q.5.062.062.375v3.062h3.063v1.188H85.03v3.125h4.313v1.187H85.03v5.063h-1.25v-5.063h-4.625v-1.187h4.625v-3.125h-2.312q-.625 1.687-1.5 2.687l-1.063-1q1.813-2.312 2-5.312l1.5.375q.25.25-.187.312m-3.875 12.375h-1.25v-7.75q-.438.813-1.125 1.625l-1-1.125q2.375-2.75 2.812-6.937l1.313.25q.437.125 0 .312-.375 2.063-.875 3.5l.25.063q.187.187-.125.375zm23.5-3.687q.812 1.5 1.437 1.5.25 0 .313-.375l.125-1.063 1.375.625-.25 1.5q-.188 1.063-1.125 1.063-1.875 0-3.188-2.563-1.25-2.437-1.312-6.875H91.53v-1.375h7.625v-2.875h1.375q.625.125.063.5v2.375h4.375v1.375h-4.375q.25 4.375 1.25 6.188m-2.438 1.125q-3.5.75-7.062 1.375-.125.562-.438.125l-.312-1.563q1.562-.125 3.062-.375V112.7h-2.5v-1.188h6.188v1.188h-2.438v3.375q1.438-.188 3.313-.563zm2.875-11.25q.875.437 1.688 1.187l-1.125.938q-.625-.625-1.625-1.188zm18.375 5.562v1.375h-13.187v-1.375z"/><path fill="none" d="M90.218 52.304v14.939h.063v14.951"/><path stroke="#1a1a1a" stroke-linecap="butt" stroke-linejoin="round" d="M90.218 52.304v14.939h.063v8.951"/><path fill="#1a1a1a" fill-rule="evenodd" stroke="#1a1a1a" stroke-linecap="butt" d="m88.63 76.194 1.65 4.538 1.653-4.538z"/><path fill="none" d="M310.735 217.227v22.013h.063v22.019"/><path stroke="#1a1a1a" stroke-linecap="butt" stroke-linejoin="round" d="M310.735 217.227v22.013h.063v16.019"/><path fill="#1a1a1a" fill-rule="evenodd" stroke="#1a1a1a" stroke-linecap="butt" d="m309.146 255.259 1.652 4.538 1.652-4.538z"/><path fill="none" d="M310.722 129.521h85.732v40.41h-85.732z"/><path fill="#595959" d="M324.222 155.161v-10.937h-4.094v-1.47h9.828v1.47h-4.094v10.937zm6.566 0v-8.984h1.375v1.359q.516-.953.953-1.25.454-.312.985-.312.781 0 1.562.484l-.515 1.422q-.563-.328-1.125-.328-.5 0-.891.297-.39.296-.562.828-.266.812-.266 1.78v4.704zm11.677 0v-1.312q-1.047 1.515-2.844 1.515-.797 0-1.5-.297-.687-.312-1.015-.765-.329-.47-.47-1.141-.093-.437-.093-1.422v-5.562h1.516v4.984q0 1.188.093 1.61.157.593.61.937.469.344 1.156.344.688 0 1.281-.344.61-.36.86-.953.25-.61.25-1.766v-4.812h1.515v8.984zm9.903-2.89 1.562.187q-.36 1.39-1.375 2.156-1 .75-2.562.75-1.985 0-3.141-1.203-1.14-1.219-1.14-3.422 0-2.266 1.156-3.516 1.171-1.25 3.03-1.25 1.813 0 2.954 1.235 1.14 1.219 1.14 3.437 0 .141-.015.407h-6.703q.094 1.484.844 2.28.75.782 1.875.782.843 0 1.437-.437.594-.438.938-1.407m-5-2.47h5.015q-.11-1.124-.578-1.702-.734-.875-1.89-.875-1.047 0-1.766.703-.703.703-.781 1.875"/><path fill="none" d="M163.198 77.373h85.732v40.41h-85.732z"/><path fill="#595959" d="M173.62 103.013V90.606h8.375v1.47h-6.734v3.843h5.828v1.453h-5.828v5.64zm16.163-1.11q-.844.72-1.625 1.016t-1.672.297q-1.484 0-2.281-.719-.797-.734-.797-1.86 0-.656.297-1.202.312-.547.797-.875.484-.329 1.093-.5.438-.11 1.344-.22 1.844-.218 2.719-.53.016-.313.016-.391 0-.938-.438-1.313-.578-.515-1.734-.515-1.078 0-1.594.375-.5.375-.75 1.328l-1.484-.203q.203-.953.656-1.531.469-.594 1.344-.907.89-.328 2.046-.328 1.157 0 1.875.281.72.266 1.047.672.344.407.485 1.032.078.39.078 1.406v2.031q0 2.125.094 2.688.093.562.39 1.078h-1.594q-.234-.47-.312-1.11m-.125-3.406q-.828.344-2.484.578-.938.14-1.329.313-.39.172-.609.5-.203.312-.203.718 0 .61.453 1.016.469.406 1.36.406.874 0 1.562-.39.687-.39 1.016-1.047.234-.516.234-1.531zm3.871 4.516V90.606h1.516v12.407zm3.272-2.688 1.516-.234q.125.906.703 1.39.578.485 1.61.485 1.062 0 1.562-.422.515-.438.515-1.016 0-.515-.453-.812-.312-.203-1.562-.516-1.672-.422-2.329-.719-.64-.312-.984-.859-.328-.547-.328-1.203 0-.61.281-1.11.281-.515.75-.859.36-.265.969-.437.61-.188 1.312-.188 1.063 0 1.86.313.797.297 1.172.828.39.515.531 1.375l-1.484.203q-.11-.688-.594-1.078-.485-.39-1.375-.39-1.047 0-1.5.343-.438.344-.438.812 0 .297.172.532.188.25.594.406.219.094 1.344.39 1.61.438 2.25.72.64.265 1 .796.375.516.375 1.297 0 .766-.453 1.438-.438.671-1.282 1.046-.828.36-1.89.36-1.75 0-2.672-.719-.922-.734-1.172-2.172m15.43-.203 1.562.188q-.36 1.39-1.375 2.156-1 .75-2.562.75-1.985 0-3.141-1.203-1.14-1.22-1.14-3.422 0-2.266 1.156-3.516 1.172-1.25 3.03-1.25 1.813 0 2.954 1.235 1.14 1.218 1.14 3.437 0 .14-.015.406h-6.703q.094 1.485.844 2.282.75.78 1.875.78.843 0 1.437-.437t.938-1.406m-5-2.469h5.015q-.11-1.125-.578-1.703-.734-.875-1.89-.875-1.047 0-1.766.703-.703.703-.781 1.875"/><path fill="none" d="M6.832 171.747h166.772v45.512H6.832z"/><path stroke="#1a1a1a" stroke-linecap="butt" stroke-linejoin="round" d="M6.832 171.747h166.772v45.512H6.832z"/><path fill="#000" d="m49.843 197.485-1.625-1.86v7.438h-1.485v-7.062q-1.125 2.078-2.375 3.187l-.968-1.406q2.515-2.453 3.343-5.563h-2.75v-1.406h2.75v-2.078l-2.312.36-.438-1.485q3.563-.594 5.72-1.406l1.03 1.406q.079.531-.437.234l-2.078.594v2.375h2.672v1.406h-2.672v1.485q1.187.812 2.734 2.453zm6.61-1.703v1.922h3.109v1.422h-3.11v2h4.156v1.406H50.062v-1.406h4.906v-2h-3.344v-1.422h3.344v-1.922h-3.64v-1.406h8.765v1.406zm1.702-7.281h-4.672v2.672h4.672zm0 4.75v-.657h-4.672v.735H52v-6.235h7.64v6.157zm17.375 5.422q.953 1.78 1.703 1.78.297 0 .375-.437l.141-1.265 1.64.734-.296 1.781q-.235 1.266-1.344 1.266-2.219 0-3.781-3.047-1.485-2.89-1.563-8.156H63.28v-1.64h9.047v-3.407h1.64q.735.14.079.594v2.812h5.187v1.64h-5.187q.297 5.188 1.484 7.345m-2.906 1.343q-4.156.891-8.375 1.625-.156.672-.531.157l-.36-1.86q1.844-.156 3.625-.453v-4.219h-2.968v-1.422h7.36v1.422h-2.907v4q1.719-.218 3.937-.672zm3.422-13.359q1.031.516 2 1.406l-1.328 1.11q-.75-.735-1.938-1.407zm8.312 14.016h14.25v1.421h-14.25v.735h-1.484v-15.656h15.953v1.406H84.358zm10.47-6.97h-6.985v-4.015h6.984zm-1.485-1.187v-1.64h-4.016v1.64zm3.86 6.97h-1.266v-.595h-2.532v.828h-1.25v-4.984h5.047zm-1.266-1.782v-1.781h-2.532v1.78zm-6.454 1.86v-.673h-2.53v.891h-1.266v-5.047h5.046v4.828zm0-1.86v-1.781h-2.53v1.78zm26.782 2.75 1.343.297-.296 1.047q-.22.89-1.11.89H113q-1.187 0-1.187-1.484v-5.578h-1.329v.672q0 5.125-5.562 6.687l-.453-1.344q4.75-1.265 4.75-5.422v-.593h-1.922v-7.344h3.187l.813-2.297 1.64.219q.22.219-.156.453l-.968 1.625h4.75v7.344h-3.485v3.343h.297l.672-2.89 1.266.297q.218.218-.157.437l-.734 2.078 1.484-.218-.593-1.266 1.03-.438q.891 1.329 1.407 2.75l-1.25.438-.156-.438-3.266.516v.969q0 .297.453.297h2q.516 0 .594-.453zm-11.797-13.797q.594.062.078.437v3.72h2.078v1.405h-2.078v5.266l2.453-.594.219 1.266-5.563 1.703q-.234.516-.453.156l-.437-1.562 2.297-.594v-5.64h-1.938v-1.407h1.938v-4.156zm8.094 4.672h2.75v-1.86h-2.75zm-4.016 0h2.75v-1.86h-2.75zm0 3.11h2.75v-1.923h-2.75zm6.766 0v-1.923h-2.75v1.922zm20.546-1.188v1.64h-15.656v-1.64z"/><path fill="none" d="M90.218 217.259v21.996h220.504v22.004"/><path stroke="#1a1a1a" stroke-linecap="butt" stroke-linejoin="round" d="M90.218 217.259v21.996h220.504v16.004"/><path fill="#1a1a1a" fill-rule="evenodd" stroke="#1a1a1a" stroke-linecap="butt" d="m309.07 255.259 1.652 4.538 1.652-4.538z"/><path fill="none" d="M447.866 171.715h166.772v45.512H447.866z"/><path stroke="#1a1a1a" stroke-linecap="butt" stroke-linejoin="round" d="M447.866 171.715h166.772v45.512H447.866z"/><path fill="#000" d="m494.155 197.454-1.625-1.86v7.438h-1.484v-7.063q-1.125 2.078-2.375 3.188l-.969-1.406q2.516-2.454 3.344-5.563h-2.75v-1.406h2.75v-2.078l-2.313.359-.437-1.484q3.562-.594 5.719-1.407l1.03 1.407q.079.53-.437.234l-2.078.594v2.375h2.672v1.406h-2.672v1.484q1.188.813 2.735 2.454zm6.61-1.703v1.921h3.109v1.422h-3.11v2h4.157v1.407h-10.547v-1.407h4.906v-2h-3.344v-1.422h3.344v-1.921h-3.64v-1.407h8.765v1.407zm1.703-7.282h-4.672v2.672h4.672zm0 4.75v-.656h-4.672v.734h-1.485v-6.234h7.641v6.156zm17.375 5.422q.953 1.781 1.703 1.781.297 0 .375-.437l.14-1.266 1.641.735-.297 1.78q-.234 1.267-1.344 1.267-2.218 0-3.78-3.047-1.485-2.891-1.563-8.157h-9.125v-1.64h9.047v-3.406h1.64q.735.14.078.593v2.813h5.188v1.64h-5.188q.297 5.188 1.485 7.344m-2.907 1.344q-4.156.89-8.375 1.625-.156.672-.53.156l-.36-1.86q1.844-.155 3.625-.452v-4.22h-2.969v-1.421h7.36v1.422h-2.907v4q1.719-.219 3.938-.672zm3.422-13.36q1.032.516 2 1.407l-1.328 1.11q-.75-.735-1.937-1.407zm8.313 14.016h14.25v1.422h-14.25v.734h-1.485v-15.656h15.954v1.406h-14.47zm10.469-6.969h-6.985v-4.015h6.985zm-1.485-1.187v-1.64h-4.015v1.64zm3.86 6.969h-1.266v-.594h-2.531v.828h-1.25v-4.984h5.047zm-1.266-1.782v-1.78h-2.531v1.78zm-6.453 1.86v-.672h-2.531v.89h-1.266v-5.046h5.047v4.828zm0-1.86v-1.78h-2.531v1.78zm26.781 2.75 1.344.297-.297 1.047q-.219.89-1.11.89h-3.203q-1.187 0-1.187-1.484v-5.578h-1.328v.672q0 5.125-5.563 6.688l-.453-1.344q4.75-1.266 4.75-5.422v-.594h-1.921v-7.343h3.187l.812-2.297 1.64.218q.22.22-.155.454l-.97 1.625h4.75v7.343h-3.483v3.344h.296l.672-2.89 1.266.296q.219.219-.156.438l-.735 2.078 1.485-.219-.594-1.265 1.031-.438q.89 1.328 1.406 2.75l-1.25.438-.156-.438-3.265.516v.968q0 .297.453.297h2q.515 0 .593-.453zm-11.797-13.796q.594.062.078.437v3.719h2.078v1.406h-2.078v5.266l2.453-.594.22 1.266-5.563 1.703q-.235.515-.453.156l-.438-1.563 2.297-.593v-5.641h-1.938v-1.406h1.938v-4.156zm8.094 4.671h2.75v-1.859h-2.75zm-4.016 0h2.75v-1.859h-2.75zm0 3.11h2.75v-1.922h-2.75zm6.766 0v-1.922h-2.75v1.922zM563.108 201.391l5.172-6.953-4.562-6.406h2.11l2.42 3.437q.75 1.063 1.079 1.625.438-.718 1.047-1.515l2.687-3.547h1.922l-4.687 6.297 5.062 7.062h-2.187l-3.36-4.765q-.28-.407-.593-.891-.438.734-.625 1l-3.36 4.656z"/><path fill="none" d="m227.35 112.026 83.385-29.845 83.386 29.845-83.386 29.845z"/><path stroke="#1a1a1a" stroke-linecap="butt" stroke-linejoin="round" d="m227.35 112.026 83.385-29.845 83.386 29.845-83.386 29.845z"/><path fill="#000" d="M284.985 111.199q2.562-.688 3.375-1.375-.813-.813-1.438-1.813-.625.813-1.25 1.438l-.75-.813q1.875-2 2.5-3.812l1 .125q.438.062 0 .375l-.562 1.125h5.625v1h-1.563q-.875 1.5-1.875 2.312.813.563 3.5 1.063l-.375 1.187q-2.75-.687-4-1.562-1.25 1-3.5 1.687zm-.313 6.25q2.5-1.5 3.75-3.375h-3.062v-1.188h3.25v-1.437h1.187q.5.062.063.375v1.062h3.687v1.188h-3.562q1.625 1.937 4.062 2.937l-.75 1.188q-2.062-1.188-3.437-2.813v3.75h-1.25v-3.625q-1.188 1.75-3.188 2.938zm0-.625h-1.25v-9.438h1.188q.5.063.062.375zm-3.5-5.563q-.437.75-1.062 1.563l-.813-1q2.25-3.125 3-6.875l1.063.25q.5.125.062.375-.5 1.875-1.187 3.437.687.063.187.5v9.688h-1.25zm8-2.062q.813-.688 1.375-1.75h-2.812q.375.875 1.437 1.75m13.563-2.313q-.063.438-.375 1.75h1.937V105.2h1.188q.5.062.062.375v3.062h3.063v1.188h-3.063v3.125h4.313v1.187h-4.313v5.063h-1.25v-5.063h-4.625v-1.187h4.625v-3.125h-2.312q-.625 1.687-1.5 2.687l-1.063-1q1.813-2.312 2-5.312l1.5.375q.25.25-.187.312m-3.875 12.375h-1.25v-7.75q-.438.813-1.125 1.625l-1-1.125q2.375-2.75 2.812-6.937l1.313.25q.437.125 0 .312-.375 2.063-.875 3.5l.25.063q.187.187-.125.375zm23.5-3.687q.812 1.5 1.437 1.5.25 0 .313-.375l.125-1.063 1.375.625-.25 1.5q-.188 1.063-1.125 1.063-1.875 0-3.188-2.563-1.25-2.437-1.312-6.875h-7.688v-1.375h7.625v-2.875h1.375q.625.125.063.5v2.375h4.375v1.375h-4.375q.25 4.375 1.25 6.188m-2.438 1.125q-3.5.75-7.062 1.375-.125.562-.438.125l-.312-1.563q1.562-.125 3.062-.375V112.7h-2.5v-1.188h6.188v1.188h-2.438v3.375q1.438-.188 3.313-.563zm2.875-11.25q.875.437 1.688 1.187l-1.125.938q-.625-.625-1.625-1.188zm17.063 1.687v1.375h-10.25v-1.375zm1.562 8.5v1.375h-13.5v-1.375z"/><path fill="none" d="M173.604 112.026h26.872v.063h26.86"/><path stroke="#1a1a1a" stroke-linecap="butt" stroke-linejoin="round" d="M173.604 112.026h26.872v.063h20.86"/><path fill="#1a1a1a" fill-rule="evenodd" stroke="#1a1a1a" stroke-linecap="butt" d="m221.336 113.741 4.538-1.652-4.538-1.651z"/><path fill="none" d="M90.218 141.871v14.938h.063v14.952"/><path stroke="#1a1a1a" stroke-linecap="butt" stroke-linejoin="round" d="M90.218 141.871v14.938h.063v8.952"/><path fill="#1a1a1a" fill-rule="evenodd" stroke="#1a1a1a" stroke-linecap="butt" d="m88.63 165.761 1.65 4.538 1.653-4.538z"/><path fill="none" d="M310.735 141.871v14.922h.063v14.937"/><path stroke="#1a1a1a" stroke-linecap="butt" stroke-linejoin="round" d="M310.735 141.871v14.922h.063v8.937"/><path fill="#1a1a1a" fill-rule="evenodd" stroke="#1a1a1a" stroke-linecap="butt" d="m309.146 165.73 1.652 4.538 1.652-4.538z"/><path fill="none" d="M394.12 112.026h137.135v59.685"/><path stroke="#1a1a1a" stroke-linecap="butt" stroke-linejoin="round" d="M394.12 112.026h137.135v53.685"/><path fill="#1a1a1a" fill-rule="evenodd" stroke="#1a1a1a" stroke-linecap="butt" d="m529.603 165.711 1.652 4.538 1.651-4.538z"/><path fill="none" d="M531.252 217.227v22.013H310.748v22.019"/><path stroke="#1a1a1a" stroke-linecap="butt" stroke-linejoin="round" d="M531.252 217.227v22.013H310.748v16.019"/><path fill="#1a1a1a" fill-rule="evenodd" stroke="#1a1a1a" stroke-linecap="butt" d="m309.096 255.259 1.652 4.538 1.652-4.538z"/><path fill="none" d="M90.218 129.521h85.732v40.41H90.218z"/><path fill="#595959" d="M103.718 155.161v-10.937h-4.094v-1.47h9.828v1.47h-4.094v10.937zm6.566 0v-8.984h1.375v1.359q.516-.953.953-1.25.454-.312.985-.312.781 0 1.562.484l-.515 1.422q-.563-.328-1.125-.328-.5 0-.89.297-.392.296-.563.828-.266.812-.266 1.78v4.704zm11.677 0v-1.312q-1.047 1.515-2.844 1.515-.797 0-1.5-.297-.687-.312-1.015-.765-.329-.47-.47-1.141-.093-.437-.093-1.422v-5.562h1.516v4.984q0 1.188.093 1.61.157.593.61.937.469.344 1.156.344.688 0 1.281-.344.61-.36.86-.953.25-.61.25-1.766v-4.812h1.515v8.984zm9.903-2.89 1.562.187q-.36 1.39-1.375 2.156-1 .75-2.562.75-1.985 0-3.14-1.203-1.142-1.219-1.142-3.422 0-2.266 1.157-3.516 1.172-1.25 3.03-1.25 1.813 0 2.954 1.235 1.14 1.219 1.14 3.437 0 .141-.015.407h-6.703q.094 1.484.844 2.28.75.782 1.875.782.843 0 1.437-.437.594-.438.938-1.407m-5-2.47h5.015q-.11-1.124-.578-1.702-.734-.875-1.89-.875-1.047 0-1.766.703-.703.703-.781 1.875"/><path fill="none" d="M383.063 77.373h85.732v40.41h-85.732z"/><path fill="#595959" d="M393.485 103.013V90.606h8.375v1.47h-6.735v3.843h5.829v1.453h-5.829v5.64zm16.163-1.11q-.844.72-1.625 1.016-.782.297-1.672.297-1.485 0-2.281-.719-.797-.734-.797-1.86 0-.656.297-1.202.312-.547.796-.875.485-.329 1.094-.5.438-.11 1.344-.22 1.844-.218 2.719-.53.015-.313.015-.391 0-.938-.437-1.313-.578-.515-1.735-.515-1.078 0-1.593.375-.5.375-.75 1.328l-1.485-.203q.203-.953.657-1.531.468-.594 1.343-.907.891-.328 2.047-.328t1.875.281q.719.266 1.047.672.344.407.484 1.032.079.39.079 1.406v2.031q0 2.125.093 2.688.094.562.391 1.078h-1.594q-.234-.47-.312-1.11m-.125-3.406q-.828.344-2.485.578-.937.14-1.328.313-.39.172-.61.5-.202.312-.202.718 0 .61.453 1.016.469.406 1.36.406.874 0 1.562-.39.687-.39 1.015-1.047.235-.516.235-1.531zm3.871 4.516V90.606h1.516v12.407zm3.272-2.688 1.515-.234q.125.906.704 1.39.578.485 1.609.485 1.062 0 1.562-.422.516-.438.516-1.016 0-.515-.453-.812-.313-.203-1.563-.516-1.671-.422-2.328-.719-.64-.312-.984-.859-.328-.547-.328-1.203 0-.61.281-1.11.281-.515.75-.859.36-.265.969-.437.61-.188 1.312-.188 1.063 0 1.86.313.797.297 1.172.828.39.515.53 1.375l-1.484.203q-.109-.688-.593-1.078-.485-.39-1.375-.39-1.047 0-1.5.343-.438.344-.438.812 0 .297.172.532.188.25.594.406.219.094 1.344.39 1.609.438 2.25.72.64.265 1 .796.375.516.375 1.297 0 .766-.454 1.438-.437.671-1.28 1.046-.829.36-1.891.36-1.75 0-2.672-.719-.922-.734-1.172-2.172m15.43-.203 1.562.188q-.36 1.39-1.375 2.156-1 .75-2.563.75-1.984 0-3.14-1.203-1.14-1.22-1.14-3.422 0-2.266 1.155-3.516 1.172-1.25 3.032-1.25 1.812 0 2.953 1.235 1.14 1.218 1.14 3.437 0 .14-.015.406h-6.703q.093 1.485.843 2.282.75.78 1.875.78.844 0 1.438-.437t.937-1.406m-5-2.469h5.015q-.11-1.125-.578-1.703-.734-.875-1.89-.875-1.048 0-1.766.703-.703.703-.782 1.875"/></g></svg>