<svg xmlns="http://www.w3.org/2000/svg" fill="none" stroke-linecap="square" stroke-miterlimit="10" viewBox="0 0 435.512 241.404"><clipPath id="a"><path d="M0 0h435.512v241.404H0z"/></clipPath><g clip-path="url(#a)"><path d="M0 0h435.512v241.404H0z"/><path d="M7.449 8.423H174.22v45.511H7.45z"/><path stroke="#1a1a1a" stroke-linecap="butt" stroke-linejoin="round" d="M7.449 8.423H174.22v45.511H7.45z"/><path fill="#000" d="M50.616 30.895v-1.484H47.35v1.484zm0 1.407H47.35v1.562h3.266zm-.234 5.875q.234 0 .234-.235V35.27H47.35v4.47h-1.484V28.004H52.1v10.312q0 1.266-1.187 1.266h-1.485l-.375-1.406zm3.859-9.797h1.484v8.531h-1.484zm3.797 9.718q.219 0 .219-.218V27.786h1.406q.75.14.078.594v9.875q0 1.25-1.188 1.25h-1.64l-.297-1.407zM56.772 23.63q-.453.812-1.11 1.843h5.641v1.422H44.225v-1.422h5.047q-.437-1.03-1.031-1.78l1.328-.735q.813.812 1.64 2.515h2.735q.828-1.406 1.344-2.812l1.703.594q.297.297-.219.375m22.703 6.297v1.64H63.82v-1.64zm7.657-.954q-.157.438-.75 1.782 1.562.734 2.671 1.625.454-1.625.594-3.407zm-1.422 2.891q-1.188 1.781-2.375 2.516l-.891-1.407q3.344-2.671 3.86-7.64h-2.672v-1.406h8.687v1.406h-4.531q0 .375-.36 2.219h3.86q.14 9.062-6.906 12.03l-.97-1.562q3.72-1.625 4.97-4.078-.657-.89-2.672-2.078m10.984-8.39h1.422q.594.078.062.453V38.02q0 1.125-.89 1.125h-2.219l-.156-1.422h1.484q.297 0 .297-.296zm-2.375 2q.594.078.078.453v9.796h-1.484v-10.25zm13.14 8.687-1.624-1.86v7.438h-1.485v-7.062q-1.125 2.078-2.375 3.187l-.968-1.406q2.515-2.453 3.343-5.563h-2.75V27.49h2.75v-2.078l-2.312.36-.438-1.485q3.563-.594 5.719-1.406l1.031 1.406q.078.531-.437.234l-2.078.594v2.375h2.672v1.406h-2.672v1.485q1.187.812 2.734 2.453zm6.61-1.703v1.922h3.11v1.422h-3.11v2h4.156v1.406h-10.547v-1.406h4.907v-2h-3.344V34.38h3.344v-1.922h-3.641v-1.406h8.766v1.406zm1.703-7.281H111.1v2.671h4.672zm0 4.75v-.657H111.1v.735h-1.484V23.77h7.64v6.157zm17.375 5.421q.953 1.782 1.703 1.782.297 0 .375-.438l.14-1.265 1.642.734-.297 1.781q-.235 1.266-1.344 1.266-2.219 0-3.781-3.047-1.485-2.89-1.563-8.156h-9.125v-1.64h9.047v-3.407h1.64q.735.14.079.594v2.812h5.187v1.64h-5.187q.297 5.188 1.484 7.344m-2.906 1.344q-4.156.89-8.375 1.625-.156.672-.531.156l-.36-1.859q1.844-.156 3.625-.453v-4.219h-2.968V30.52h7.359v1.422h-2.906v4q1.718-.219 3.937-.672zm3.422-13.36q1.031.516 2 1.407l-1.328 1.11q-.75-.735-1.938-1.407z"/><path d="M259.966 97.957h166.772v45.512H259.966z"/><path stroke="#1a1a1a" stroke-linecap="butt" stroke-linejoin="round" d="M259.966 97.957h166.772v45.512H259.966z"/><path fill="#000" d="m312.477 123.695-1.625-1.86v7.438h-1.485v-7.062q-1.125 2.078-2.375 3.187l-.968-1.406q2.515-2.453 3.343-5.563h-2.75v-1.406h2.75v-2.078l-2.312.36-.438-1.485q3.563-.594 5.72-1.406l1.03 1.406q.078.531-.437.234l-2.078.594v2.375h2.672v1.406h-2.672v1.485q1.187.812 2.734 2.453zm6.61-1.703v1.922h3.108v1.422h-3.109v2h4.156v1.406h-10.547v-1.406h4.907v-2h-3.344v-1.422h3.344v-1.922h-3.64v-1.406h8.765v1.406zm1.702-7.281h-4.672v2.672h4.672zm0 4.75v-.657h-4.672v.735h-1.484v-6.235h7.64v6.157zm17.375 5.422q.953 1.78 1.703 1.78.297 0 .375-.437l.14-1.265 1.642.734-.297 1.781q-.235 1.266-1.344 1.266-2.219 0-3.781-3.047-1.485-2.89-1.563-8.156h-9.125v-1.64h9.047v-3.407h1.64q.735.14.079.594v2.812h5.187v1.64h-5.187q.297 5.188 1.484 7.345m-2.906 1.343q-4.156.891-8.375 1.625-.156.672-.531.157l-.36-1.86q1.844-.156 3.625-.453v-4.219h-2.968v-1.422h7.359v1.422h-2.906v4q1.718-.218 3.937-.672zm3.422-13.359q1.031.516 2 1.406l-1.328 1.11q-.75-.735-1.938-1.407zm8.312 14.016h14.25v1.421h-14.25v.735h-1.484v-15.656h15.953v1.406h-14.469zm10.47-6.97h-6.985v-4.015h6.984zm-1.485-1.187v-1.64h-4.016v1.64zm3.86 6.97h-1.267v-.595h-2.53v.828h-1.25v-4.984h5.046zm-1.267-1.782v-1.781h-2.53v1.78zm-6.453 1.86v-.673h-2.53v.891h-1.267v-5.047h5.047v4.828zm0-1.86v-1.781h-2.53v1.78zm26.782 2.75 1.343.297-.297 1.047q-.218.89-1.109.89h-3.203q-1.188 0-1.188-1.484v-5.578h-1.328v.672q0 5.125-5.562 6.687l-.453-1.344q4.75-1.265 4.75-5.422v-.593h-1.922v-7.344h3.187l.813-2.297 1.64.219q.22.219-.156.453l-.969 1.625h4.75v7.344h-3.484v3.343h.297l.672-2.89 1.265.297q.22.218-.156.437l-.734 2.078 1.484-.218-.594-1.266 1.032-.438q.89 1.329 1.406 2.75l-1.25.438-.156-.438-3.266.516v.969q0 .297.453.297h2q.516 0 .594-.453zm-11.797-13.797q.593.062.078.437v3.72h2.078v1.405h-2.078v5.266l2.453-.594.219 1.266-5.563 1.703q-.234.516-.453.156l-.437-1.562 2.296-.594v-5.64h-1.937v-1.407h1.937v-4.156zm8.093 4.672h2.75v-1.86h-2.75zm-4.015 0h2.75v-1.86h-2.75zm0 3.11h2.75v-1.923h-2.75zm6.765 0v-1.923h-2.75v1.922z"/><path d="M7.449 187.493H174.22v45.512H7.45z"/><path stroke="#1a1a1a" stroke-linecap="butt" stroke-linejoin="round" d="M7.449 187.493H174.22v45.512H7.45z"/><path fill="#000" d="M55.288 216.357q-2.297 1.625-6.156 2.375l-.532-1.563q3.563-.453 5.578-1.859-.828-.969-1.421-2.156-1.032 1.484-2.891 2.672l-.89-1.188q2.89-1.844 3.78-4.375l-2.812.156q-.078.516-.375.22l-.516-1.704 2.97-.078 1.405-1.188q-1.703-1.187-3.109-1.859l.813-1.266.734.375q1.266-1.562 2.234-3.406l1.266.734q.656.375-.078.516-.969 1.344-2.297 2.906.734.438 1.406.891 1.328-1.266 2.75-3.266l1.328.813q.297.297-.218.375-1.407 1.922-4.313 4.375l4.453-.297q-.594-.672-1.187-1.266l1.047-.89q1.703 1.265 2.812 3.343l-1.25.97-.594-1.048-4.828.453-.594 1.25h3.704l.234-.359 1.25.734q.531.22-.297.454-1.031 1.921-2.297 3.109 1.938 1.187 4.828 1.64l-.593 1.704q-2.97-.672-5.344-2.297m0-1.86q.812-.812 1.562-1.937h-2.906q.453 1.047 1.344 1.937m-7.203 4.235H46.6v-7.656q-.672.671-1.562 1.421l-.656-1.484q2.437-1.937 4-4.984l1.343.89q.297.297-.234.375-.516.891-1.406 2.078zm1.343-15.375q-1.343 1.937-3.937 3.719l-.813-1.485q2.22-1.484 3.86-3.562l1.328 1.031q.078.375-.438.297m30.047 5.64v1.641H63.82v-1.64zm7.657-.953q-.157.438-.75 1.782 1.562.734 2.671 1.625.454-1.625.594-3.407zm-1.422 2.891q-1.188 1.781-2.375 2.516l-.891-1.407q3.344-2.672 3.86-7.64h-2.672v-1.407h8.687v1.407h-4.531q0 .375-.36 2.218h3.86q.14 9.063-6.906 12.032l-.97-1.563q3.72-1.625 4.97-4.078-.657-.89-2.672-2.078m10.984-8.39h1.422q.594.077.062.452v14.094q0 1.125-.89 1.125h-2.219l-.156-1.422h1.484q.297 0 .297-.297zm-2.375 2q.594.077.078.452v9.797h-1.484v-10.25zm13.14 8.687-1.624-1.86v7.438h-1.485v-7.063q-1.125 2.079-2.375 3.188l-.968-1.406q2.515-2.453 3.343-5.563h-2.75v-1.406h2.75v-2.078l-2.312.36-.438-1.485q3.563-.594 5.719-1.406l1.031 1.406q.078.531-.437.234l-2.078.594v2.375h2.672v1.406h-2.672v1.485q1.187.812 2.734 2.453zm6.61-1.703v1.922h3.11v1.421h-3.11v2h4.156v1.407h-10.547v-1.407h4.907v-2h-3.344v-1.421h3.344v-1.922h-3.641v-1.407h8.766v1.407zm1.703-7.282H111.1v2.672h4.672zm0 4.75v-.656H111.1v.735h-1.484v-6.235h7.64v6.156zm17.375 5.422q.953 1.782 1.703 1.782.297 0 .375-.438l.14-1.266 1.642.735-.297 1.781q-.235 1.266-1.344 1.266-2.219 0-3.781-3.047-1.485-2.89-1.563-8.156h-9.125v-1.641h9.047v-3.406h1.64q.735.14.079.593v2.813h5.187v1.64h-5.187q.297 5.188 1.484 7.344m-2.906 1.344q-4.156.89-8.375 1.625-.156.672-.531.156l-.36-1.859q1.844-.156 3.625-.453v-4.219h-2.968v-1.422h7.359v1.422h-2.906v4q1.718-.219 3.937-.672zm3.422-13.36q1.031.516 2 1.407l-1.328 1.11q-.75-.735-1.938-1.407z"/><path d="m7.449 120.714 83.386-29.845 83.385 29.845-83.385 29.845z"/><path stroke="#1a1a1a" stroke-linecap="butt" stroke-linejoin="round" d="m7.449 120.714 83.386-29.845 83.385 29.845-83.385 29.845z"/><path fill="#000" d="M69.757 119.696q3.046-.828 4.015-1.64-.969-.969-1.719-2.156-.734.968-1.484 1.718l-.89-.968q2.234-2.375 2.968-4.532l1.188.157q.53.062 0 .437l-.657 1.344h6.672v1.187h-1.86q-1.03 1.782-2.218 2.735.969.672 4.156 1.265l-.453 1.407q-3.265-.813-4.75-1.844-1.484 1.187-4.156 2zm-.375 7.422q2.968-1.781 4.453-4.015H70.21v-1.407h3.859v-1.703h1.406q.594.063.078.438v1.265h4.375v1.407h-4.234q1.938 2.297 4.828 3.484l-.89 1.422q-2.454-1.422-4.079-3.344v4.453H74.07v-4.312q-1.422 2.078-3.797 3.5zm0-.75h-1.485v-11.203h1.422q.594.078.063.438zm-4.157-6.61q-.515.892-1.25 1.86l-.968-1.187q2.671-3.703 3.562-8.156l1.266.296q.593.141.062.438-.594 2.234-1.406 4.078.812.078.219.594v11.515h-1.485zm9.5-2.437q.969-.828 1.64-2.078h-3.343q.453 1.032 1.703 2.078m16.11-2.75q-.078.516-.438 2.079h2.297v-4.079H94.1q.594.063.078.438v3.64h3.641v1.407h-3.64v3.719h5.124v1.406h-5.125v6.015h-1.484v-6.015h-5.5v-1.406h5.5v-3.72h-2.75q-.734 2-1.781 3.188l-1.266-1.187q2.156-2.735 2.375-6.297l1.781.437q.297.297-.218.375m-4.594 14.704h-1.484v-9.22q-.532.97-1.344 1.938l-1.188-1.343q2.828-3.266 3.344-8.235l1.563.297q.515.156 0 .375-.454 2.453-1.047 4.156l.297.078q.218.22-.141.438zm27.906-4.391q.953 1.781 1.703 1.781.297 0 .375-.437l.14-1.266 1.642.734-.297 1.782q-.235 1.265-1.344 1.265-2.219 0-3.781-3.047-1.485-2.89-1.563-8.156h-9.125v-1.64h9.047v-3.407h1.64q.735.14.079.594v2.813h5.187v1.64h-5.187q.297 5.188 1.484 7.344m-2.906 1.344q-4.156.89-8.375 1.625-.156.672-.531.156l-.36-1.86q1.844-.156 3.625-.453v-4.218h-2.968v-1.422h7.359v1.422h-2.906v4q1.718-.22 3.937-.672zm3.422-13.36q1.031.516 2 1.407l-1.328 1.109q-.75-.734-1.938-1.406z"/><path d="M90.835 53.934v18.468h.063v18.477"/><path stroke="#1a1a1a" stroke-linecap="butt" stroke-linejoin="round" d="M90.835 53.934v18.468h.063v12.477"/><path fill="#1a1a1a" fill-rule="evenodd" stroke="#1a1a1a" stroke-linecap="butt" d="m89.246 84.88 1.652 4.537 1.651-4.538z"/><path d="M174.22 120.714h42.873v.063h42.86"/><path stroke="#1a1a1a" stroke-linecap="butt" stroke-linejoin="round" d="M174.22 120.714h42.873v.063h36.86"/><path fill="#1a1a1a" fill-rule="evenodd" stroke="#1a1a1a" stroke-linecap="butt" d="m253.953 122.429 4.538-1.652-4.538-1.652z"/><path d="M343.352 143.469v22.012H90.848V187.5"/><path stroke="#1a1a1a" stroke-linecap="butt" stroke-linejoin="round" d="M343.352 143.469v22.012H90.848V181.5"/><path fill="#1a1a1a" fill-rule="evenodd" stroke="#1a1a1a" stroke-linecap="butt" d="m89.196 181.5 1.652 4.538L92.5 181.5z"/><path d="M90.835 150.56v18.466h.063v18.478"/><path stroke="#1a1a1a" stroke-linecap="butt" stroke-linejoin="round" d="M90.835 150.56v18.466h.063v12.478"/><path fill="#1a1a1a" fill-rule="evenodd" stroke="#1a1a1a" stroke-linecap="butt" d="m89.246 181.504 1.652 4.538 1.651-4.538z"/><path d="M7.449 144.407H93.18v40.41H7.45z"/><path fill="#595959" d="M43.23 170.047V157.64h8.375v1.468h-6.734v3.844h5.828v1.453h-5.828v5.64zm16.163-1.11q-.844.72-1.625 1.016t-1.672.297q-1.484 0-2.281-.719-.797-.734-.797-1.86 0-.655.297-1.202.312-.547.797-.875.484-.328 1.094-.5.437-.11 1.343-.219 1.844-.219 2.72-.531.015-.313.015-.39 0-.938-.438-1.313-.578-.516-1.734-.516-1.078 0-1.594.375-.5.375-.75 1.328l-1.484-.203q.203-.953.656-1.531.469-.594 1.344-.907.89-.328 2.047-.328 1.156 0 1.875.282.718.265 1.046.671.344.407.485 1.032.078.39.078 1.406v2.031q0 2.125.094 2.688.093.562.39 1.078h-1.593q-.235-.469-.313-1.11m-.125-3.406q-.828.344-2.484.578-.938.141-1.328.313t-.61.5q-.203.312-.203.719 0 .609.453 1.015.469.406 1.36.406.875 0 1.562-.39t1.016-1.047q.234-.516.234-1.531zm3.872 4.516V157.64h1.515v12.406zm3.271-2.688 1.516-.234q.125.906.703 1.39.578.485 1.61.485 1.062 0 1.562-.422.515-.437.515-1.016 0-.515-.453-.812-.312-.203-1.562-.516-1.672-.422-2.328-.718-.64-.313-.985-.86-.328-.547-.328-1.203 0-.61.281-1.11.282-.515.75-.859.36-.265.97-.437.609-.188 1.312-.188 1.062 0 1.86.313.796.297 1.171.828.39.516.531 1.375l-1.484.203q-.11-.687-.594-1.078-.484-.39-1.375-.39-1.047 0-1.5.343-.437.344-.437.813 0 .296.171.53.188.25.594.407.219.094 1.344.39 1.61.438 2.25.72.64.265 1 .796.375.516.375 1.297 0 .766-.453 1.438-.438.672-1.281 1.047-.829.359-1.891.359-1.75 0-2.672-.719-.922-.734-1.172-2.172m15.43-.203 1.562.188q-.359 1.39-1.375 2.156-1 .75-2.562.75-1.984 0-3.14-1.203-1.141-1.219-1.141-3.422 0-2.266 1.156-3.516 1.172-1.25 3.031-1.25 1.813 0 2.953 1.235 1.14 1.218 1.14 3.437 0 .14-.015.406h-6.703q.094 1.485.844 2.282.75.781 1.875.781.844 0 1.437-.438.594-.437.938-1.406m-5-2.469h5.016q-.11-1.125-.579-1.703-.734-.875-1.89-.875-1.047 0-1.766.703-.703.704-.781 1.875"/><path d="M165.997 84.383h85.733v40.41h-85.733z"/><path fill="#595959" d="M179.497 110.023V99.086h-4.093v-1.469h9.828v1.469h-4.094v10.937zm6.567 0v-8.984h1.375v1.36q.515-.954.953-1.25.453-.313.984-.313.782 0 1.563.484l-.516 1.422q-.562-.328-1.125-.328-.5 0-.89.297-.391.297-.563.828-.266.812-.266 1.781v4.703zm11.677 0v-1.312q-1.047 1.515-2.844 1.515-.797 0-1.5-.297-.688-.312-1.016-.765-.328-.469-.469-1.14-.093-.438-.093-1.423v-5.562h1.515v4.984q0 1.188.094 1.61.156.593.61.937.468.344 1.156.344t1.28-.344q.61-.36.86-.953.25-.61.25-1.766v-4.812h1.516v8.984zm9.902-2.89 1.563.187q-.36 1.39-1.375 2.156-1 .75-2.563.75-1.984 0-3.14-1.203-1.141-1.219-1.141-3.422 0-2.265 1.156-3.515 1.172-1.25 3.031-1.25 1.813 0 2.954 1.234 1.14 1.219 1.14 3.438 0 .14-.015.406h-6.704q.094 1.484.844 2.281.75.781 1.875.781.844 0 1.438-.437.593-.438.937-1.406m-5-2.47h5.016q-.11-1.124-.578-1.702-.735-.875-1.89-.875-1.048 0-1.767.703-.703.703-.78 1.875"/></g></svg>