<svg xmlns="http://www.w3.org/2000/svg" fill="none" stroke-linecap="square" stroke-miterlimit="10" viewBox="0 0 619.43 240.627"><clipPath id="a"><path d="M0 0h619.43v240.627H0z"/></clipPath><g clip-path="url(#a)"><path fill="none" d="M0 0h619.43v240.627H0z"/><path fill="none" d="M226.178 8.423H392.95v45.511H226.178z"/><path stroke="#1a1a1a" stroke-linecap="butt" stroke-linejoin="round" d="M226.178 8.423H392.95v45.511H226.178z"/><path fill="#000" d="M269.346 30.895v-1.484h-3.266v1.484zm0 1.407h-3.266v1.562h3.266zm-.235 5.875q.235 0 .235-.235V35.27h-3.266v4.47h-1.484V28.004h6.234v10.312q0 1.266-1.188 1.266h-1.484l-.375-1.406zm3.86-9.797h1.484v8.531h-1.484zm3.796 9.718q.22 0 .22-.218V27.786h1.405q.75.14.079.594v9.875q0 1.25-1.188 1.25h-1.64l-.297-1.407zm-1.265-14.468q-.453.812-1.11 1.843h5.641v1.422h-17.078v-1.422h5.047q-.438-1.03-1.031-1.78l1.328-.735q.812.812 1.64 2.515h2.735q.828-1.406 1.343-2.812l1.704.594q.296.297-.22.375m22.703 6.297v1.64h-15.656v-1.64zm7.656-.954q-.156.438-.75 1.782 1.563.734 2.672 1.625.453-1.625.594-3.407zm-1.422 2.891q-1.187 1.781-2.375 2.516l-.89-1.407q3.343-2.671 3.86-7.64h-2.673v-1.406h8.688v1.406h-4.532q0 .375-.359 2.219h3.86q.14 9.062-6.907 12.03l-.969-1.562q3.72-1.625 4.97-4.078-.657-.89-2.673-2.078m10.985-8.39h1.422q.593.078.062.453V38.02q0 1.125-.89 1.125h-2.22l-.156-1.422h1.485q.297 0 .297-.296zm-2.375 2q.593.078.078.453v9.796h-1.485v-10.25zm13.14 8.687-1.625-1.86v7.438h-1.484v-7.062q-1.125 2.078-2.375 3.187l-.969-1.406q2.516-2.453 3.344-5.563h-2.75V27.49h2.75v-2.078l-2.313.36-.437-1.485q3.562-.594 5.719-1.406l1.03 1.406q.079.531-.437.234l-2.078.594v2.375h2.672v1.406h-2.672v1.485q1.188.812 2.735 2.453zm6.61-1.703v1.922h3.11v1.422h-3.11v2h4.156v1.406h-10.547v-1.406h4.906v-2h-3.343V34.38h3.343v-1.922h-3.64v-1.406h8.765v1.406zm1.703-7.281h-4.672v2.671h4.672zm0 4.75v-.657h-4.672v.735h-1.484V23.77h7.64v6.157zm17.375 5.421q.953 1.782 1.703 1.782.297 0 .375-.438l.14-1.265 1.641.734-.297 1.781q-.234 1.266-1.343 1.266-2.22 0-3.782-3.047-1.484-2.89-1.562-8.156h-9.125v-1.64h9.047v-3.407h1.64q.735.14.078.594v2.812h5.188v1.64h-5.188q.297 5.188 1.485 7.344m-2.906 1.344q-4.157.89-8.375 1.625-.157.672-.532.156l-.36-1.859q1.845-.156 3.626-.453v-4.219h-2.969V30.52h7.36v1.422h-2.907v4q1.719-.219 3.938-.672zm3.421-13.36q1.032.516 2 1.407l-1.328 1.11q-.75-.735-1.937-1.407z"/><path fill="none" d="M446.696 97.957h166.771v45.512H446.696z"/><path stroke="#1a1a1a" stroke-linecap="butt" stroke-linejoin="round" d="M446.696 97.957h166.771v45.512H446.696z"/><path fill="#000" d="m489.706 123.695-1.625-1.86v7.438h-1.484v-7.062q-1.125 2.078-2.375 3.187l-.969-1.406q2.516-2.453 3.344-5.563h-2.75v-1.406h2.75v-2.078l-2.313.36-.437-1.485q3.562-.594 5.719-1.406l1.031 1.406q.078.531-.438.234l-2.078.594v2.375h2.672v1.406h-2.672v1.485q1.188.812 2.735 2.453zm6.61-1.703v1.922h3.11v1.422h-3.11v2h4.156v1.406h-10.547v-1.406h4.906v-2h-3.343v-1.422h3.343v-1.922h-3.64v-1.406h8.765v1.406zm1.703-7.281h-4.672v2.672h4.672zm0 4.75v-.657h-4.672v.735h-1.484v-6.235h7.64v6.157zm17.375 5.422q.953 1.78 1.703 1.78.297 0 .375-.437l.14-1.265 1.641.734-.297 1.781q-.234 1.266-1.343 1.266-2.22 0-3.782-3.047-1.484-2.89-1.562-8.156h-9.125v-1.64h9.047v-3.407h1.64q.735.14.078.594v2.812h5.188v1.64h-5.188q.297 5.188 1.485 7.345m-2.906 1.343q-4.157.891-8.375 1.625-.157.672-.532.157l-.359-1.86q1.844-.156 3.625-.453v-4.219h-2.969v-1.422h7.36v1.422h-2.907v4q1.72-.218 3.938-.672zm3.421-13.359q1.032.516 2 1.406l-1.328 1.11q-.75-.735-1.937-1.407zm8.313 14.016h14.25v1.421h-14.25v.735h-1.484v-15.656h15.953v1.406h-14.469zm10.469-6.97h-6.985v-4.015h6.985zm-1.485-1.187v-1.64h-4.015v1.64zm3.86 6.97H535.8v-.595h-2.531v.828h-1.25v-4.984h5.047zm-1.266-1.782v-1.781h-2.531v1.78zm-6.453 1.86v-.673h-2.531v.891h-1.266v-5.047h5.047v4.828zm0-1.86v-1.781h-2.531v1.78zm26.781 2.75 1.344.297-.297 1.047q-.219.89-1.11.89h-3.202q-1.188 0-1.188-1.484v-5.578h-1.328v.672q0 5.125-5.563 6.687l-.453-1.344q4.75-1.265 4.75-5.422v-.593h-1.922v-7.344h3.188l.812-2.297 1.641.219q.219.219-.156.453l-.969 1.625h4.75v7.344h-3.484v3.343h.297l.671-2.89 1.266.297q.219.218-.156.437l-.735 2.078 1.485-.218-.594-1.266 1.031-.438q.891 1.329 1.407 2.75l-1.25.438-.157-.438-3.265.516v.969q0 .297.453.297h2q.515 0 .594-.453zm-11.797-13.797q.594.062.078.437v3.72h2.079v1.405h-2.079v5.266l2.454-.594.218 1.266-5.562 1.703q-.235.516-.453.156l-.438-1.562 2.297-.594v-5.64h-1.937v-1.407h1.937v-4.156zm8.094 4.672h2.75v-1.86h-2.75zm-4.016 0h2.75v-1.86h-2.75zm0 3.11h2.75v-1.923h-2.75zm6.766 0v-1.923h-2.75v1.922zm19-5.782v1.625h-12.172v-1.625zm1.844 10.094v1.625h-16.031v-1.625z"/><path fill="none" d="M226.178 187.493H392.95v45.512H226.178z"/><path stroke="#1a1a1a" stroke-linecap="butt" stroke-linejoin="round" d="M226.178 187.493H392.95v45.512H226.178z"/><path fill="#000" d="M274.017 216.357q-2.296 1.625-6.156 2.375l-.531-1.563q3.562-.453 5.578-1.859-.828-.969-1.422-2.156-1.031 1.484-2.89 2.672l-.891-1.188q2.89-1.844 3.781-4.375l-2.812.156q-.078.516-.375.22l-.516-1.704 2.969-.078 1.406-1.188q-1.703-1.187-3.11-1.859l.813-1.266.735.375q1.265-1.562 2.234-3.406l1.266.734q.656.375-.079.516-.968 1.344-2.296 2.906.734.438 1.406.891 1.328-1.266 2.75-3.266l1.328.813q.297.297-.219.375-1.406 1.922-4.312 4.375l4.453-.297q-.594-.672-1.188-1.266l1.047-.89q1.703 1.265 2.813 3.343l-1.25.97-.594-1.048-4.828.453-.594 1.25h3.703l.235-.359 1.25.734q.53.22-.297.454-1.032 1.921-2.297 3.109 1.937 1.187 4.828 1.64l-.594 1.704q-2.969-.672-5.344-2.297m0-1.86q.813-.812 1.563-1.937h-2.906q.453 1.047 1.343 1.937m-7.203 4.235h-1.484v-7.656q-.672.671-1.563 1.421l-.656-1.484q2.438-1.937 4-4.984l1.344.89q.297.297-.234.375-.516.891-1.407 2.078zm1.344-15.375q-1.344 1.937-3.937 3.719l-.813-1.485q2.219-1.484 3.86-3.562l1.328 1.031q.078.375-.438.297m30.047 5.64v1.641h-15.656v-1.64zm7.656-.953q-.156.438-.75 1.782 1.563.734 2.672 1.625.453-1.625.594-3.407zm-1.422 2.891q-1.187 1.781-2.375 2.516l-.89-1.407q3.343-2.672 3.86-7.64h-2.673v-1.407h8.688v1.407h-4.532q0 .375-.359 2.218h3.86q.14 9.063-6.907 12.032l-.969-1.563q3.72-1.625 4.97-4.078-.657-.89-2.673-2.078m10.985-8.39h1.422q.593.077.062.452v14.094q0 1.125-.89 1.125h-2.22l-.156-1.422h1.485q.297 0 .297-.297zm-2.375 2q.593.077.078.452v9.797h-1.485v-10.25zm13.14 8.687-1.625-1.86v7.438h-1.484v-7.063q-1.125 2.079-2.375 3.188l-.969-1.406q2.516-2.453 3.344-5.563h-2.75v-1.406h2.75v-2.078l-2.313.36-.437-1.485q3.562-.594 5.719-1.406l1.03 1.406q.08.531-.437.234l-2.078.594v2.375h2.672v1.406h-2.672v1.485q1.188.812 2.735 2.453zm6.61-1.703v1.922h3.11v1.421h-3.11v2h4.156v1.407h-10.547v-1.407h4.906v-2h-3.343v-1.421h3.343v-1.922h-3.64v-1.407h8.765v1.407zm1.703-7.282h-4.672v2.672h4.672zm0 4.75v-.656h-4.672v.735h-1.484v-6.235h7.64v6.156zm17.375 5.422q.953 1.782 1.703 1.782.297 0 .375-.438l.14-1.266 1.641.735-.297 1.781q-.234 1.266-1.343 1.266-2.22 0-3.782-3.047-1.484-2.89-1.562-8.156h-9.125v-1.641h9.047v-3.406h1.64q.735.14.078.593v2.813h5.188v1.64h-5.188q.297 5.188 1.485 7.344m-2.906 1.344q-4.157.89-8.375 1.625-.157.672-.532.156l-.36-1.859q1.845-.156 3.626-.453v-4.219h-2.969v-1.422h7.36v1.422h-2.907v4q1.72-.219 3.938-.672zm3.421-13.36q1.032.516 2 1.407l-1.328 1.11q-.75-.735-1.937-1.407z"/><path fill="none" d="m226.178 120.714 83.386-29.845 83.386 29.845-83.386 29.845z"/><path stroke="#1a1a1a" stroke-linecap="butt" stroke-linejoin="round" d="m226.178 120.714 83.386-29.845 83.386 29.845-83.386 29.845z"/><path fill="#000" d="M288.486 119.696q3.047-.828 4.016-1.64-.969-.969-1.719-2.156-.734.968-1.484 1.718l-.89-.968q2.233-2.375 2.968-4.532l1.187.157q.532.062 0 .437l-.656 1.344h6.672v1.187h-1.86q-1.03 1.782-2.218 2.735.969.672 4.156 1.265l-.453 1.407q-3.266-.813-4.75-1.844-1.484 1.187-4.156 2zm-.375 7.422q2.969-1.781 4.453-4.015h-3.625v-1.407h3.86v-1.703h1.406q.594.063.078.438v1.265h4.375v1.407h-4.234q1.937 2.297 4.828 3.484l-.89 1.422q-2.454-1.422-4.079-3.344v4.453H292.8v-4.312q-1.422 2.078-3.797 3.5zm0-.75h-1.484v-11.203h1.422q.593.078.062.438zm-4.156-6.61q-.516.892-1.25 1.86l-.969-1.187q2.672-3.703 3.563-8.156l1.265.296q.594.141.063.438-.594 2.234-1.406 4.078.812.078.218.594v11.515h-1.484zm9.5-2.437q.969-.828 1.64-2.078h-3.343q.453 1.032 1.703 2.078m16.11-2.75q-.079.516-.438 2.079h2.297v-4.079h1.406q.594.063.078.438v3.64h3.64v1.407h-3.64v3.719h5.125v1.406h-5.125v6.015h-1.484v-6.015h-5.5v-1.406h5.5v-3.72h-2.75q-.735 2-1.782 3.188l-1.265-1.187q2.156-2.735 2.375-6.297l1.781.437q.297.297-.219.375m-4.594 14.704h-1.485v-9.22q-.531.97-1.344 1.938l-1.187-1.343q2.828-3.266 3.344-8.235l1.562.297q.516.156 0 .375-.453 2.453-1.047 4.156l.297.078q.219.22-.14.438zm27.906-4.391q.953 1.781 1.703 1.781.297 0 .375-.437l.14-1.266 1.641.734-.297 1.782q-.234 1.265-1.343 1.265-2.22 0-3.782-3.047-1.484-2.89-1.562-8.156h-9.125v-1.64h9.047v-3.407h1.64q.735.14.078.594v2.813h5.188v1.64h-5.188q.297 5.188 1.485 7.344m-2.906 1.344q-4.157.89-8.375 1.625-.157.672-.532.156l-.36-1.86q1.845-.156 3.626-.453v-4.218h-2.969v-1.422h7.36v1.422h-2.907v4q1.72-.22 3.938-.672zm3.421-13.36q1.032.516 2 1.407l-1.328 1.109q-.75-.734-1.937-1.406z"/><path fill="none" d="M309.564 53.934v18.468h.063v18.477"/><path stroke="#1a1a1a" stroke-linecap="butt" stroke-linejoin="round" d="M309.564 53.934v18.468h.063v12.477"/><path fill="#1a1a1a" fill-rule="evenodd" stroke="#1a1a1a" stroke-linecap="butt" d="m307.976 84.88 1.651 4.537 1.652-4.538z"/><path fill="none" d="M392.95 120.714h26.873v.063h26.86"/><path stroke="#1a1a1a" stroke-linecap="butt" stroke-linejoin="round" d="M392.95 120.714h26.873v.063h20.86"/><path fill="#1a1a1a" fill-rule="evenodd" stroke="#1a1a1a" stroke-linecap="butt" d="m440.682 122.429 4.539-1.652-4.539-1.652z"/><path fill="none" d="M530.081 143.469v22.012H309.577V187.5"/><path stroke="#1a1a1a" stroke-linecap="butt" stroke-linejoin="round" d="M530.081 143.469v22.012H309.577V181.5"/><path fill="#1a1a1a" fill-rule="evenodd" stroke="#1a1a1a" stroke-linecap="butt" d="m307.926 181.5 1.651 4.538 1.652-4.538z"/><path fill="none" d="M143.25 84.382h85.732v40.41h-85.733z"/><path fill="#595959" d="M189.496 110.022V99.084h-4.094v-1.468h9.828v1.468h-4.094v10.938zm6.566 0v-8.984h1.375v1.359q.516-.953.953-1.25.453-.313.985-.313.78 0 1.562.485l-.516 1.422q-.562-.328-1.125-.328-.5 0-.89.296-.39.297-.563.829-.265.812-.265 1.78v4.704zm11.677 0v-1.313q-1.047 1.516-2.844 1.516-.797 0-1.5-.297-.688-.312-1.016-.765-.328-.47-.468-1.141-.094-.438-.094-1.422v-5.562h1.515v4.984q0 1.187.094 1.61.156.593.61.937.468.344 1.156.344t1.281-.344q.61-.36.86-.953.25-.61.25-1.766v-4.812h1.515v8.984zm9.902-2.89 1.563.187q-.36 1.39-1.375 2.156-1 .75-2.563.75-1.984 0-3.14-1.203-1.14-1.219-1.14-3.422 0-2.266 1.155-3.516 1.172-1.25 3.032-1.25 1.812 0 2.953 1.235 1.14 1.219 1.14 3.437 0 .14-.015.407h-6.703q.093 1.484.843 2.28.75.782 1.875.782.844 0 1.438-.437.594-.438.937-1.407m-5-2.47h5.016q-.11-1.124-.578-1.703-.734-.875-1.89-.875-1.048 0-1.766.704-.703.703-.782 1.875"/><path fill="none" d="M384.727 84.383h85.732v40.41h-85.732z"/><path fill="#595959" d="M395.149 110.023V97.617h8.375v1.469h-6.734v3.843h5.828v1.454h-5.828v5.64zm16.163-1.11q-.844.72-1.625 1.016-.782.297-1.672.297-1.485 0-2.281-.718-.797-.735-.797-1.86 0-.656.297-1.203.312-.547.796-.875t1.094-.5q.438-.11 1.344-.219 1.844-.218 2.719-.53.015-.313.015-.392 0-.937-.437-1.312-.578-.516-1.735-.516-1.078 0-1.593.375-.5.375-.75 1.328l-1.485-.203q.203-.953.657-1.53.468-.595 1.343-.907.891-.328 2.047-.328t1.875.281q.719.266 1.047.672.344.406.484 1.031.079.39.079 1.406v2.032q0 2.125.093 2.687.094.563.391 1.078h-1.594q-.234-.469-.312-1.11m-.125-3.405q-.828.343-2.485.578-.937.14-1.328.312-.39.172-.61.5-.202.313-.202.719 0 .61.453 1.016.469.406 1.36.406.874 0 1.562-.39.687-.391 1.015-1.048.235-.515.235-1.53zm3.871 4.515V97.617h1.516v12.406zm3.272-2.687 1.515-.235q.125.907.704 1.391.578.484 1.609.484 1.062 0 1.562-.422.516-.437.516-1.015 0-.516-.453-.813-.313-.203-1.563-.515-1.671-.422-2.328-.719-.64-.313-.984-.86-.328-.546-.328-1.203 0-.609.281-1.109.281-.516.75-.86.36-.265.969-.437.61-.187 1.312-.187 1.063 0 1.86.312.797.297 1.172.828.39.516.53 1.375l-1.484.203q-.109-.687-.593-1.078-.485-.39-1.375-.39-1.047 0-1.5.343-.438.344-.438.813 0 .297.172.531.188.25.594.406.219.094 1.344.391 1.609.438 2.25.719.64.265 1 .797.375.515.375 1.297 0 .765-.454 1.437-.437.672-1.28 1.047-.829.36-1.891.36-1.75 0-2.672-.72-.922-.734-1.172-2.171m15.43-.203 1.562.187q-.36 1.39-1.375 2.156-1 .75-2.562.75-1.985 0-3.141-1.203-1.14-1.219-1.14-3.422 0-2.265 1.156-3.515 1.171-1.25 3.03-1.25 1.813 0 2.954 1.234 1.14 1.219 1.14 3.438 0 .14-.015.406h-6.703q.094 1.484.844 2.281.75.781 1.875.781.843 0 1.437-.437.594-.438.938-1.406m-5-2.47h5.015q-.11-1.124-.578-1.702-.734-.875-1.89-.875-1.047 0-1.766.703-.703.703-.781 1.875"/><path fill="none" d="M5.661 97.988h166.772V143.5H5.661z"/><path stroke="#1a1a1a" stroke-linecap="butt" stroke-linejoin="round" d="M5.661 97.988h166.772V143.5H5.661z"/><path fill="#000" d="m48.672 123.727-1.625-1.86v7.438h-1.484v-7.063q-1.125 2.078-2.375 3.188l-.969-1.407q2.516-2.453 3.344-5.562h-2.75v-1.406h2.75v-2.078l-2.313.359-.437-1.484q3.562-.594 5.719-1.407l1.03 1.407q.079.53-.437.234l-2.078.594v2.375h2.672v1.406h-2.672v1.484q1.188.813 2.735 2.453zm6.61-1.704v1.922h3.109v1.422h-3.11v2h4.157v1.406H48.89v-1.406h4.906v-2h-3.344v-1.422h3.344v-1.922h-3.64v-1.406h8.765v1.406zm1.703-7.28h-4.672v2.671h4.672zm0 4.75v-.657h-4.672v.734h-1.485v-6.234h7.641v6.156zm17.375 5.421q.953 1.781 1.703 1.781.297 0 .375-.437l.14-1.266 1.641.735-.297 1.78q-.234 1.266-1.344 1.266-2.218 0-3.78-3.046-1.485-2.891-1.563-8.157H62.11v-1.64h9.047v-3.407h1.64q.735.141.078.594v2.813h5.188v1.64h-5.188q.297 5.188 1.485 7.344m-2.907 1.344q-4.156.89-8.375 1.625-.156.672-.53.156l-.36-1.86q1.844-.156 3.625-.452v-4.22h-2.969v-1.421h7.36v1.422h-2.907v4q1.719-.219 3.938-.672zm3.422-13.36q1.032.516 2 1.407l-1.328 1.11q-.75-.735-1.937-1.407zm8.313 14.016h14.25v1.422h-14.25v.734h-1.485v-15.656h15.954v1.406h-14.47zm10.469-6.969h-6.985v-4.015h6.985zm-1.485-1.187v-1.64h-4.015v1.64zm3.86 6.969h-1.266v-.594h-2.531v.828h-1.25v-4.984h5.047zm-1.266-1.782v-1.78h-2.531v1.78zm-6.453 1.86v-.672h-2.531v.89h-1.266v-5.046h5.047v4.828zm0-1.86v-1.78h-2.531v1.78zm26.781 2.75 1.344.297-.297 1.047q-.219.89-1.11.89h-3.203q-1.187 0-1.187-1.484v-5.578h-1.328v.672q0 5.125-5.563 6.688l-.453-1.344q4.75-1.266 4.75-5.422v-.594h-1.921v-7.344h3.187l.812-2.296 1.641.218q.219.22-.156.453l-.969 1.625h4.75v7.344h-3.484v3.344h.296l.672-2.89 1.266.296q.219.219-.156.438l-.735 2.078 1.485-.219-.594-1.266 1.031-.437q.89 1.328 1.406 2.75l-1.25.437-.156-.437-3.265.516v.968q0 .297.453.297h2q.515 0 .593-.453zm-11.797-13.797q.594.063.078.438v3.719h2.078v1.406h-2.078v5.266l2.453-.594.22 1.265-5.563 1.704q-.235.515-.453.156l-.438-1.563 2.297-.593v-5.641h-1.938v-1.406h1.938v-4.157zm8.094 4.672h2.75v-1.859h-2.75zm-4.016 0h2.75v-1.859h-2.75zm0 3.11h2.75v-1.922h-2.75zm6.766 0v-1.922h-2.75v1.922zm20.547-1.188v1.64h-15.656v-1.64z"/><path fill="none" d="M226.178 120.714h-26.872v.063h-26.86"/><path stroke="#1a1a1a" stroke-linecap="butt" stroke-linejoin="round" d="M226.178 120.714h-26.872v.063h-20.86"/><path fill="#1a1a1a" fill-rule="evenodd" stroke="#1a1a1a" stroke-linecap="butt" d="m178.446 119.125-4.538 1.652 4.538 1.652z"/><path fill="none" d="M89.047 143.5v21.997h220.504V187.5"/><path stroke="#1a1a1a" stroke-linecap="butt" stroke-linejoin="round" d="M89.047 143.5v21.997h220.504V181.5"/><path fill="#1a1a1a" fill-rule="evenodd" stroke="#1a1a1a" stroke-linecap="butt" d="m307.9 181.5 1.651 4.538 1.652-4.538z"/></g></svg>