<svg xmlns="http://www.w3.org/2000/svg" fill="none" stroke-linecap="square" stroke-miterlimit="10" viewBox="0 0 457.756 235.551"><clipPath id="a"><path d="M0 0h457.756v235.551H0z"/></clipPath><g clip-path="url(#a)"><path fill="none" d="M0 0h457.756v235.551H0z"/><path fill="none" d="M6.276 4.91h166.771v45.513H6.276z"/><path stroke="#1a1a1a" stroke-linecap="butt" stroke-linejoin="round" d="M6.276 4.91h166.771v45.513H6.276z"/><path fill="#000" d="M49.443 27.384v-1.485h-3.266v1.485zm0 1.406h-3.266v1.562h3.266zm-.235 5.875q.235 0 .235-.235V31.76h-3.266v4.468h-1.484V24.493h6.234v10.312q0 1.266-1.187 1.266h-1.485l-.375-1.406zm3.86-9.797h1.484v8.531h-1.484zm3.797 9.719q.218 0 .218-.22V24.275h1.407q.75.14.078.594v9.875q0 1.25-1.188 1.25h-1.64l-.297-1.406zm-1.266-14.47q-.453.813-1.11 1.845h5.641v1.422H43.052v-1.422h5.047q-.438-1.032-1.031-1.782l1.328-.734q.812.813 1.64 2.516h2.735q.828-1.407 1.344-2.813l1.703.594q.297.297-.22.375m22.703 6.298v1.64H62.646v-1.64zm7.656-.953q-.156.437-.75 1.78 1.563.735 2.672 1.626.453-1.625.594-3.406zm-1.422 2.89q-1.187 1.782-2.375 2.516l-.89-1.406q3.344-2.672 3.86-7.641h-2.673v-1.406h8.688v1.406h-4.531q0 .375-.36 2.219h3.86q.14 9.062-6.907 12.031l-.968-1.562q3.718-1.625 4.968-4.079-.656-.89-2.672-2.078m10.985-8.39h1.422q.593.078.062.453v14.094q0 1.125-.89 1.125h-2.22l-.155-1.422h1.484q.297 0 .297-.297zm-2.375 2q.594.078.078.453v9.797H91.74v-10.25zm13.14 8.687-1.625-1.86v7.438h-1.484v-7.062q-1.125 2.078-2.375 3.187l-.969-1.406q2.516-2.453 3.344-5.562h-2.75v-1.407h2.75V21.9l-2.312.36-.438-1.485q3.563-.594 5.719-1.406l1.031 1.406q.078.531-.437.235l-2.079.593v2.375h2.672v1.407h-2.672v1.484q1.188.812 2.735 2.453zm6.61-1.703v1.922h3.11v1.422h-3.11v2h4.156v1.406h-10.547V34.29h4.906v-2h-3.343v-1.422h3.343v-1.922h-3.64V27.54h8.765v1.406zm1.703-7.281h-4.672v2.672h4.672zm0 4.75v-.656h-4.672v.734h-1.484v-6.234h7.64v6.156zm17.375 5.422q.953 1.78 1.703 1.78.297 0 .375-.437l.14-1.265 1.641.734-.297 1.781q-.234 1.266-1.343 1.266-2.22 0-3.782-3.047-1.484-2.89-1.562-8.156h-9.125v-1.64h9.047v-3.407h1.64q.735.14.079.594v2.812h5.187v1.64h-5.187q.296 5.188 1.484 7.345m-2.906 1.343q-4.157.891-8.375 1.625-.157.672-.532.157l-.359-1.86q1.844-.156 3.625-.453V28.43h-2.969V27.01h7.36v1.421h-2.907v4q1.72-.218 3.938-.671zm3.422-13.359q1.03.516 2 1.406l-1.329 1.11q-.75-.735-1.937-1.407z"/><path fill="none" d="M258.793 94.445h166.771v45.512H258.793z"/><path stroke="#1a1a1a" stroke-linecap="butt" stroke-linejoin="round" d="M258.793 94.445h166.771v45.512H258.793z"/><path fill="#00f" d="m310.413 120.34-1.328-1.516v6.937h-2.078v-6.187q-.594 1.094-2.125 2.453l-1.313-1.875q2.64-2.578 3.344-5.234h-2.656v-2h2.75v-1.438l-2.235.344-.594-2.047q3.86-.64 6.204-1.531l1.203 1.656q.187 1.203-.766.656l-1.734.5v1.86h2.672v2h-2.672v1.03q1.078.735 2.828 2.595zm6.906-1.86v1.328h3.11v2.016h-3.11v1.406h4.156v2h-11.14v-2h4.906v-1.406h-3.344v-2.016h3.344v-1.328h-3.64v-2h9.359v2zm1.11-7.281h-4.079v2.078h4.078zm0 4.75v-.656h-4.079v.734h-2.078v-6.828h8.235v6.75zm18.53 4.984q.86 1.625 1.438 1.625.047 0 .078-.187l.188-1.656 2.219 1-.329 2q-.28 1.515-1.64 1.515-2.406 0-4.047-3.203-1.516-2.953-1.594-8h-9.125v-2.234h9.047v-3.407h1.969q1.453.282.344 1.047v2.36h5.187v2.234h-5.172q.281 4.813 1.438 6.906m-2.827 1.719q-4.438.953-8.47 1.656-.265 1.11-1.062.016l-.437-2.25q2.172-.188 3.687-.438v-3.671h-2.968v-2.016h7.953v2.016h-2.907v3.359q1.375-.172 3.891-.688zm3.03-13.953q1.25.625 2.5 1.781l-1.796 1.5q-.922-.906-2.438-1.765zm9.25 14.078h14.25v2.016h-14.25v.734h-2.077v-16.25h16.547v2h-14.47zm10.47-6.375h-7.579v-4.61h7.579zm-2.079-1.781v-1.047h-3.421v1.047zm4.454 7.562h-1.86v-.593h-1.937v.828h-1.844v-5.578h5.64zm-1.86-2.375v-1.187h-1.937v1.187zm-6.453 2.453v-.671h-1.937v.89h-1.86v-5.64h5.64v5.421zm0-2.453v-1.187h-1.937v1.187zm27.453 2.688 1.938.437-.39 1.344q-.267 1.11-1.392 1.11h-3.203q-1.484 0-1.484-1.782v-5.281h-.734v.375q0 5.344-6.047 7.047l-.64-1.906q4.827-1.297 4.827-5.22v-.296h-1.922v-7.938h3.282l.812-2.328 1.984.266q.547.547-.078.953l-.672 1.11h4.532v7.937h-3.485v2.75h-.234l.687-2.953 1.641.39q.547.547-.062.907l-.547 1.515.61-.093-.563-1.188 1.546-.656q1.047 1.562 1.672 3.312l-1.812.625-.172-.484-2.766.437v.72h2.157q.265 0 .296-.22zm-11.562-13.735q1.375.141.36.891v3.266h2.077v2h-2.078v4.593l2.39-.578.329 1.828-5.688 1.75q-.422.907-.953.032l-.531-1.907 2.375-.609v-5.11h-1.938v-2h1.938v-4.156zm8.375 4.672h2.156v-1.265h-2.156zm-4.016 0h2.156v-1.265h-2.156zm0 3.11h2.156v-1.328h-2.156zm6.172 0v-1.328h-2.156v1.328z"/><path fill="none" d="M6.276 183.982h166.771v45.511H6.276z"/><path stroke="#1a1a1a" stroke-linecap="butt" stroke-linejoin="round" d="M6.276 183.982h166.771v45.511H6.276z"/><path fill="#000" d="M54.115 212.845q-2.297 1.625-6.157 2.375l-.531-1.562q3.563-.454 5.578-1.86-.828-.969-1.422-2.156-1.031 1.484-2.89 2.672l-.891-1.188q2.89-1.843 3.781-4.375l-2.812.157q-.078.515-.375.218l-.516-1.703 2.969-.078 1.406-1.187q-1.703-1.188-3.11-1.86l.813-1.265.735.375q1.265-1.563 2.234-3.407l1.266.735q.656.375-.078.515-.97 1.344-2.297 2.907.734.437 1.406.89 1.328-1.265 2.75-3.265l1.328.812q.297.297-.219.375-1.406 1.922-4.312 4.375l4.453-.297q-.594-.672-1.188-1.265l1.047-.891q1.703 1.266 2.813 3.344l-1.25.968-.594-1.046-4.828.453-.594 1.25h3.703l.235-.36 1.25.735q.53.218-.297.453-1.031 1.922-2.297 3.11 1.937 1.187 4.828 1.64l-.594 1.703q-2.968-.672-5.343-2.297m0-1.86q.812-.812 1.562-1.937h-2.906q.453 1.047 1.344 1.938m-7.204 4.235h-1.484v-7.656q-.672.672-1.562 1.422l-.657-1.485q2.438-1.937 4-4.984l1.344.89q.297.297-.234.376-.516.89-1.407 2.078zm1.344-15.375q-1.344 1.938-3.937 3.719l-.813-1.485q2.219-1.484 3.86-3.562l1.328 1.031q.078.375-.438.297m30.047 5.64v1.641H62.646v-1.64zm7.656-.952q-.156.437-.75 1.78 1.563.735 2.672 1.626.453-1.625.594-3.406zm-1.422 2.89q-1.187 1.781-2.375 2.516l-.89-1.406q3.344-2.672 3.86-7.641h-2.673v-1.406h8.688v1.406h-4.531q0 .375-.36 2.219h3.86q.14 9.062-6.907 12.03l-.968-1.562q3.718-1.625 4.968-4.078-.656-.89-2.672-2.078m10.985-8.39h1.422q.593.078.062.453v14.093q0 1.125-.89 1.125h-2.22l-.155-1.421h1.484q.297 0 .297-.297zm-2.375 2q.594.078.078.453v9.797H91.74v-10.25zm13.14 8.687-1.625-1.86v7.438h-1.484v-7.062q-1.125 2.078-2.375 3.187l-.969-1.406q2.516-2.453 3.344-5.563h-2.75v-1.406h2.75v-2.078l-2.312.36-.438-1.485q3.563-.594 5.719-1.406l1.031 1.406q.078.531-.437.234l-2.079.594v2.375h2.672v1.406h-2.672v1.485q1.188.812 2.735 2.453zm6.61-1.703v1.922h3.11v1.422h-3.11v2h4.156v1.406h-10.547v-1.406h4.906v-2h-3.343v-1.422h3.343v-1.922h-3.64v-1.406h8.765v1.406zm1.703-7.281h-4.672v2.672h4.672zm0 4.75v-.657h-4.672v.735h-1.484v-6.235h7.64v6.157zm17.375 5.422q.953 1.78 1.703 1.78.297 0 .375-.437l.14-1.265 1.641.734-.297 1.781q-.234 1.266-1.343 1.266-2.22 0-3.782-3.047-1.484-2.89-1.562-8.156h-9.125v-1.64h9.047v-3.407h1.64q.735.14.079.594v2.812h5.187v1.64h-5.187q.296 5.188 1.484 7.345m-2.906 1.343q-4.157.89-8.375 1.625-.157.672-.532.157l-.359-1.86q1.844-.156 3.625-.453v-4.219h-2.969v-1.422h7.36v1.422h-2.907v4q1.72-.218 3.938-.672zm3.422-13.36q1.03.517 2 1.407l-1.329 1.11q-.75-.735-1.937-1.407z"/><path fill="none" d="M6.276 117.202 89.66 87.357l83.386 29.845-83.386 29.845z"/><path stroke="#1a1a1a" stroke-linecap="butt" stroke-linejoin="round" d="M6.276 117.202 89.66 87.357l83.386 29.845-83.386 29.845z"/><path fill="#38761d" d="M67.49 115.716q3.406-.922 4.078-1.485-.766-.765-1.297-1.625-.5.657-1.485 1.625l-1.28-1.39q2.374-2.531 3.171-4.86l1.422.188q1.297.156.203.937l-.422.844h6.5v1.781h-1.984q-.969 1.688-1.89 2.422.577.407 4.046 1.047l-.64 2q-3.594-.89-4.938-1.828-1.36 1.078-4.281 1.969zm-.313 7.515q3.203-1.921 4.344-3.64h-3.375v-2h3.86v-1.703h1.718q1.375.14.36.89v.813h4.374v2h-3.89q1.484 1.75 4.625 3.047l-1.235 1.968q-2.734-1.593-3.875-2.937v3.937h-2.078v-3.656q-.922 1.344-3.578 2.938zm.734-.375h-2.078V111.06h1.735q1.39.187.343.89zm-4.734-5.875q.016.032-.953 1.313l-1.36-1.656q2.766-3.844 3.704-8.532l1.562.375q1.344.313.25.922-.562 2.125-1.219 3.625 1.094.094.079.985v11.672H63.16zm9.781-3.859q.735-.625 1.14-1.39h-2.39q.25.546 1.25 1.39m16.969-2.094q-.047.313-.328 1.516h1.625v-4.078h1.719q1.375.14.359.89v3.188h3.64v2h-3.64v3.125h5.125v2h-5.125v6.016h-2.078v-6.016h-5.5v-2h5.5v-3.125h-2.25q-.672 1.86-1.969 3.312l-1.687-1.578q2.265-2.875 2.5-6.703l2.218.547q.766.766-.109.906m-4.562 14.735h-2.079v-8.36q.016-.015-1.046 1.235l-1.579-1.797q2.938-3.39 3.47-8.594l1.905.375q1.313.39.188.875-.438 2.313-.938 3.734l.079.016q.546.547 0 .875zm28.468-4.828q.86 1.625 1.438 1.625.047 0 .078-.188l.187-1.656 2.22 1-.329 2q-.281 1.515-1.64 1.515-2.407 0-4.047-3.203-1.516-2.953-1.594-8h-9.125v-2.234h9.047v-3.406h1.968q1.454.281.344 1.047v2.359h5.188v2.234h-5.172q.281 4.813 1.437 6.907m-2.828 1.718q-4.437.953-8.469 1.657-.265 1.109-1.062.015l-.438-2.25q2.172-.187 3.688-.437v-3.672h-2.969v-2.016h7.953v2.016h-2.906v3.36q1.375-.173 3.89-.688zm3.031-13.953q1.25.625 2.5 1.781l-1.796 1.5q-.922-.906-2.438-1.765z"/><path fill="none" d="M89.661 50.423V68.89h.063v18.477"/><path stroke="#1a1a1a" stroke-linecap="butt" stroke-linejoin="round" d="M89.661 50.423V68.89h.063v12.477"/><path fill="#1a1a1a" fill-rule="evenodd" stroke="#1a1a1a" stroke-linecap="butt" d="m88.073 81.367 1.651 4.539 1.652-4.539z"/><path fill="none" d="M173.047 117.202h42.873v.063h42.86"/><path stroke="#1a1a1a" stroke-linecap="butt" stroke-linejoin="round" d="M173.047 117.202h42.873v.063h36.86"/><path fill="#1a1a1a" fill-rule="evenodd" stroke="#1a1a1a" stroke-linecap="butt" d="m252.78 118.917 4.538-1.652-4.538-1.652z"/><path fill="none" d="M425.564 117.2h25.002V62.358H89.659v24.986"/><path stroke="#1a1a1a" stroke-linecap="butt" stroke-linejoin="round" d="M425.564 117.2h25.002V62.358H89.659v18.986"/><path fill="#1a1a1a" fill-rule="evenodd" stroke="#1a1a1a" stroke-linecap="butt" d="m88.007 81.343 1.652 4.538 1.652-4.538z"/><path fill="none" d="M89.661 147.047v18.468h.063v18.477"/><path stroke="#1a1a1a" stroke-linecap="butt" stroke-linejoin="round" d="M89.661 147.047v18.468h.063v12.477"/><path fill="#1a1a1a" fill-rule="evenodd" stroke="#1a1a1a" stroke-linecap="butt" d="m88.073 177.992 1.651 4.538 1.652-4.538z"/><path fill="none" d="M6.276 140.895h85.732v40.41H6.276z"/><path fill="#595959" d="M42.057 166.535v-12.406h8.375v1.469h-6.734v3.843h5.828v1.453h-5.828v5.641zm16.163-1.11q-.844.72-1.625 1.016t-1.672.297q-1.484 0-2.281-.719-.797-.734-.797-1.859 0-.656.297-1.203.312-.547.797-.875.484-.328 1.093-.5.438-.11 1.344-.219 1.844-.219 2.719-.531.016-.313.016-.39 0-.938-.438-1.313-.578-.516-1.734-.516-1.078 0-1.594.375-.5.375-.75 1.328l-1.484-.203q.203-.953.656-1.531.469-.594 1.344-.906.89-.328 2.046-.328 1.157 0 1.875.28.72.266 1.047.673.344.406.485 1.03.078.392.078 1.407v2.031q0 2.125.094 2.688.093.562.39 1.078h-1.594q-.234-.469-.312-1.11m-.125-3.406q-.828.344-2.484.579-.938.14-1.329.312-.39.172-.609.5-.203.313-.203.719 0 .61.453 1.015.469.407 1.36.407.874 0 1.562-.391.687-.39 1.016-1.047.234-.515.234-1.531zm3.871 4.516v-12.406h1.516v12.406zm3.272-2.687 1.516-.235q.125.906.703 1.39.578.485 1.61.485 1.062 0 1.562-.422.515-.437.515-1.015 0-.516-.453-.813-.312-.203-1.562-.515-1.672-.422-2.329-.72-.64-.312-.984-.859-.328-.546-.328-1.203 0-.61.281-1.11.281-.515.75-.858.36-.266.969-.438.61-.187 1.312-.187 1.063 0 1.86.312.797.297 1.172.828.39.516.531 1.375l-1.484.203q-.11-.687-.594-1.078-.485-.39-1.375-.39-1.047 0-1.5.343-.438.344-.438.813 0 .297.172.531.188.25.594.406.219.094 1.344.39 1.61.438 2.25.72.64.265 1 .797.375.515.375 1.296 0 .766-.453 1.438-.438.672-1.282 1.047-.828.36-1.89.36-1.75 0-2.672-.72-.922-.734-1.172-2.171m15.43-.204 1.562.188q-.36 1.39-1.375 2.156-1 .75-2.562.75-1.985 0-3.141-1.203-1.14-1.219-1.14-3.422 0-2.265 1.156-3.515 1.172-1.25 3.03-1.25 1.813 0 2.954 1.234 1.14 1.219 1.14 3.437 0 .141-.015.407h-6.703q.094 1.484.844 2.28.75.782 1.875.782.843 0 1.437-.437.594-.438.938-1.407m-5-2.468h5.015q-.11-1.125-.578-1.703-.734-.875-1.89-.875-1.047 0-1.766.703-.703.703-.781 1.875"/><path fill="none" d="M164.824 80.871h85.732v40.41h-85.732z"/><path fill="#595959" d="M178.324 106.511V95.574h-4.094v-1.469h9.829v1.469h-4.094v10.937zm6.567 0v-8.984h1.375v1.36q.515-.954.953-1.25.453-.313.984-.313.781 0 1.563.484l-.516 1.422q-.563-.328-1.125-.328-.5 0-.89.297-.391.297-.563.828-.266.813-.266 1.781v4.703zm11.676 0V105.2q-1.047 1.516-2.843 1.516-.797 0-1.5-.297-.688-.313-1.016-.766-.328-.469-.469-1.14-.094-.438-.094-1.422v-5.563h1.516v4.984q0 1.188.094 1.61.156.594.61.937.468.344 1.155.344t1.282-.344q.609-.36.859-.953.25-.61.25-1.765v-4.813h1.516v8.984zm9.903-2.89 1.562.187q-.359 1.39-1.375 2.157-1 .75-2.562.75-1.984 0-3.14-1.204-1.141-1.218-1.141-3.421 0-2.266 1.156-3.516 1.172-1.25 3.031-1.25 1.813 0 2.953 1.234 1.141 1.219 1.141 3.438 0 .14-.016.406h-6.703q.094 1.484.844 2.281.75.782 1.875.782.844 0 1.437-.438.594-.437.938-1.406m-5-2.469h5.016q-.11-1.125-.579-1.703-.734-.875-1.89-.875-1.047 0-1.766.703-.703.703-.781 1.875"/></g></svg>